M48
;DRILL file {Pcbnew (2013-may-18)-stable} date Mon 02 Nov 2015 08:13:53 PM CST
;FORMAT={-:-/ absolute / inch / decimal}
FMAT,2
INCH,TZ
T1C0.015
T2C0.030
%
G90
G05
M72
T1
X7.39Y-5.9
X7.79Y-5.645
X7.82Y-5.67
X7.865Y-6.4275
X7.875Y-5.6975
X7.89Y-5.78
X7.935Y-5.64
X7.955Y-6.47
X8.08Y-5.795
X8.1025Y-5.705
X8.115Y-6.24
X8.13Y-6.44
X8.135Y-5.94
X8.145Y-6.21
X8.17Y-5.74
X8.185Y-6.095
X8.21Y-5.725
X8.225Y-6.395
X8.235Y-6.185
X8.265Y-5.81
X8.3325Y-5.7575
X8.345Y-5.985
X8.37Y-5.6675
X8.37Y-6.205
X8.385Y-5.97
X8.395Y-5.81
X8.405Y-6.045
X8.41Y-6.4
X8.4425Y-5.995
X8.445Y-6.225
X8.53Y-6.33
X8.545Y-6.25
X8.555Y-5.76
X8.565Y-6.36
X8.58Y-5.985
X8.605Y-6.15
X8.645Y-6.1925
X8.655Y-6.145
X8.685Y-6.0275
X8.74Y-6.0975
T2
X8.3109Y-5.67
X8.4291Y-5.67
T0
M30
