G04 (created by PCBNEW (2013-may-18)-stable) date Mon 02 Nov 2015 08:13:46 PM CST*
%MOIN*%
G04 Gerber Fmt 3.4, Leading zero omitted, Abs format*
%FSLAX34Y34*%
G01*
G70*
G90*
G04 APERTURE LIST*
%ADD10C,0.00590551*%
%ADD11C,0.005*%
%ADD12C,0.0031*%
%ADD13C,0.0039*%
%ADD14C,0.0028*%
%ADD15C,0.003*%
%ADD16C,0.0043*%
%ADD17C,0.0045*%
%ADD18C,0.03*%
%ADD19R,0.0393701X0.015748*%
%ADD20R,0.0275591X0.0590551*%
%ADD21C,0.0354331*%
%ADD22R,0.0354331X0.0590551*%
%ADD23R,0.023622X0.0590551*%
%ADD24C,0.7*%
%ADD25R,0.0315X0.0394*%
%ADD26R,0.1X0.05*%
%ADD27R,0.035X0.055*%
%ADD28R,0.045X0.025*%
%ADD29R,0.0236X0.0157*%
%ADD30R,0.0157X0.0236*%
G04 APERTURE END LIST*
G54D10*
G54D11*
X82850Y-63750D02*
X83050Y-64050D01*
X82850Y-63050D02*
X82850Y-64075D01*
X82850Y-64075D02*
X83450Y-64075D01*
X83450Y-64075D02*
X83450Y-63050D01*
X83450Y-63050D02*
X82850Y-63050D01*
G54D10*
X82381Y-57211D02*
X82381Y-56188D01*
X85018Y-57211D02*
X85018Y-56188D01*
X82381Y-56188D02*
X85018Y-56188D01*
X82381Y-57211D02*
X85018Y-57211D01*
X85800Y-60700D02*
G75*
G03X85800Y-60700I-100J0D01*
G74*
G01*
X85900Y-59450D02*
X82500Y-59450D01*
X82500Y-59450D02*
X82500Y-60950D01*
X82500Y-60950D02*
X85900Y-60950D01*
X85900Y-60950D02*
X85900Y-59450D01*
X81637Y-60600D02*
G75*
G03X81637Y-60600I-3937J0D01*
G74*
G01*
G54D12*
X80199Y-56862D02*
G75*
G03X80199Y-56862I-62J0D01*
G74*
G01*
X81100Y-57200D02*
X81100Y-56800D01*
X80075Y-57200D02*
X80075Y-56800D01*
X81100Y-56800D02*
X80075Y-56800D01*
X80075Y-57200D02*
X81100Y-57200D01*
X82225Y-57538D02*
G75*
G03X82225Y-57538I-62J0D01*
G74*
G01*
X81200Y-57200D02*
X81200Y-57600D01*
X82225Y-57200D02*
X82225Y-57600D01*
X81200Y-57600D02*
X82225Y-57600D01*
X82225Y-57200D02*
X81200Y-57200D01*
G54D11*
X83920Y-65000D02*
G75*
G03X83920Y-65000I-70J0D01*
G74*
G01*
X85000Y-64350D02*
X85000Y-64950D01*
X85000Y-64950D02*
X83900Y-64950D01*
X83900Y-64950D02*
X83900Y-64350D01*
X83900Y-63750D02*
X83900Y-63150D01*
X83900Y-63150D02*
X85000Y-63150D01*
X85000Y-63150D02*
X85000Y-63750D01*
G54D13*
X83850Y-62950D02*
G75*
G03X83850Y-62950I-50J0D01*
G74*
G01*
X83350Y-62950D02*
X83750Y-62950D01*
X83750Y-62950D02*
X83750Y-62350D01*
X83750Y-62350D02*
X83350Y-62350D01*
X82950Y-62350D02*
X82550Y-62350D01*
X82550Y-62350D02*
X82550Y-62950D01*
X82550Y-62950D02*
X82950Y-62950D01*
X83850Y-62350D02*
G75*
G03X83850Y-62350I-50J0D01*
G74*
G01*
X84250Y-62350D02*
X83850Y-62350D01*
X83850Y-62350D02*
X83850Y-62950D01*
X83850Y-62950D02*
X84250Y-62950D01*
X84650Y-62950D02*
X85050Y-62950D01*
X85050Y-62950D02*
X85050Y-62350D01*
X85050Y-62350D02*
X84650Y-62350D01*
X83850Y-64750D02*
G75*
G03X83850Y-64750I-50J0D01*
G74*
G01*
X83350Y-64750D02*
X83750Y-64750D01*
X83750Y-64750D02*
X83750Y-64150D01*
X83750Y-64150D02*
X83350Y-64150D01*
X82950Y-64150D02*
X82550Y-64150D01*
X82550Y-64150D02*
X82550Y-64750D01*
X82550Y-64750D02*
X82950Y-64750D01*
G54D11*
X86150Y-59350D02*
X86150Y-60250D01*
X86150Y-60250D02*
X86650Y-60250D01*
X86650Y-60250D02*
X86650Y-59350D01*
X86650Y-59350D02*
X86150Y-59350D01*
G54D14*
X82350Y-64600D02*
X82350Y-64800D01*
X82350Y-64800D02*
X82050Y-64800D01*
X82050Y-64800D02*
X82050Y-64600D01*
X82350Y-64400D02*
X82350Y-64200D01*
X82350Y-64200D02*
X82050Y-64200D01*
X82050Y-64200D02*
X82050Y-64400D01*
X82850Y-62000D02*
X82650Y-62000D01*
X82650Y-62000D02*
X82650Y-61700D01*
X82650Y-61700D02*
X82850Y-61700D01*
X83050Y-62000D02*
X83250Y-62000D01*
X83250Y-62000D02*
X83250Y-61700D01*
X83250Y-61700D02*
X83050Y-61700D01*
X85850Y-62100D02*
X85850Y-62300D01*
X85850Y-62300D02*
X85550Y-62300D01*
X85550Y-62300D02*
X85550Y-62100D01*
X85850Y-61900D02*
X85850Y-61700D01*
X85850Y-61700D02*
X85550Y-61700D01*
X85550Y-61700D02*
X85550Y-61900D01*
X82350Y-59800D02*
X82350Y-60000D01*
X82350Y-60000D02*
X82050Y-60000D01*
X82050Y-60000D02*
X82050Y-59800D01*
X82350Y-59600D02*
X82350Y-59400D01*
X82350Y-59400D02*
X82050Y-59400D01*
X82050Y-59400D02*
X82050Y-59600D01*
X81550Y-64400D02*
X81550Y-64200D01*
X81550Y-64200D02*
X81850Y-64200D01*
X81850Y-64200D02*
X81850Y-64400D01*
X81550Y-64600D02*
X81550Y-64800D01*
X81550Y-64800D02*
X81850Y-64800D01*
X81850Y-64800D02*
X81850Y-64600D01*
X82200Y-58150D02*
X82400Y-58150D01*
X82400Y-58150D02*
X82400Y-58450D01*
X82400Y-58450D02*
X82200Y-58450D01*
X82000Y-58150D02*
X81800Y-58150D01*
X81800Y-58150D02*
X81800Y-58450D01*
X81800Y-58450D02*
X82000Y-58450D01*
X82350Y-60600D02*
X82350Y-60800D01*
X82350Y-60800D02*
X82050Y-60800D01*
X82050Y-60800D02*
X82050Y-60600D01*
X82350Y-60400D02*
X82350Y-60200D01*
X82350Y-60200D02*
X82050Y-60200D01*
X82050Y-60200D02*
X82050Y-60400D01*
X85250Y-64100D02*
X85250Y-63900D01*
X85250Y-63900D02*
X85550Y-63900D01*
X85550Y-63900D02*
X85550Y-64100D01*
X85250Y-64300D02*
X85250Y-64500D01*
X85250Y-64500D02*
X85550Y-64500D01*
X85550Y-64500D02*
X85550Y-64300D01*
X85300Y-58000D02*
X85300Y-58200D01*
X85300Y-58200D02*
X85000Y-58200D01*
X85000Y-58200D02*
X85000Y-58000D01*
X85300Y-57800D02*
X85300Y-57600D01*
X85300Y-57600D02*
X85000Y-57600D01*
X85000Y-57600D02*
X85000Y-57800D01*
X86500Y-60450D02*
X86700Y-60450D01*
X86700Y-60450D02*
X86700Y-60750D01*
X86700Y-60750D02*
X86500Y-60750D01*
X86300Y-60450D02*
X86100Y-60450D01*
X86100Y-60450D02*
X86100Y-60750D01*
X86100Y-60750D02*
X86300Y-60750D01*
X86300Y-61250D02*
X86100Y-61250D01*
X86100Y-61250D02*
X86100Y-60950D01*
X86100Y-60950D02*
X86300Y-60950D01*
X86500Y-61250D02*
X86700Y-61250D01*
X86700Y-61250D02*
X86700Y-60950D01*
X86700Y-60950D02*
X86500Y-60950D01*
X85400Y-58350D02*
X85600Y-58350D01*
X85600Y-58350D02*
X85600Y-58650D01*
X85600Y-58650D02*
X85400Y-58650D01*
X85200Y-58350D02*
X85000Y-58350D01*
X85000Y-58350D02*
X85000Y-58650D01*
X85000Y-58650D02*
X85200Y-58650D01*
X82350Y-61400D02*
X82350Y-61600D01*
X82350Y-61600D02*
X82050Y-61600D01*
X82050Y-61600D02*
X82050Y-61400D01*
X82350Y-61200D02*
X82350Y-61000D01*
X82350Y-61000D02*
X82050Y-61000D01*
X82050Y-61000D02*
X82050Y-61200D01*
X82000Y-59250D02*
X81800Y-59250D01*
X81800Y-59250D02*
X81800Y-58950D01*
X81800Y-58950D02*
X82000Y-58950D01*
X82200Y-59250D02*
X82400Y-59250D01*
X82400Y-59250D02*
X82400Y-58950D01*
X82400Y-58950D02*
X82200Y-58950D01*
X81500Y-58150D02*
X81700Y-58150D01*
X81700Y-58150D02*
X81700Y-58450D01*
X81700Y-58450D02*
X81500Y-58450D01*
X81300Y-58150D02*
X81100Y-58150D01*
X81100Y-58150D02*
X81100Y-58450D01*
X81100Y-58450D02*
X81300Y-58450D01*
X85350Y-62100D02*
X85350Y-62300D01*
X85350Y-62300D02*
X85050Y-62300D01*
X85050Y-62300D02*
X85050Y-62100D01*
X85350Y-61900D02*
X85350Y-61700D01*
X85350Y-61700D02*
X85050Y-61700D01*
X85050Y-61700D02*
X85050Y-61900D01*
X79550Y-56600D02*
X79550Y-56400D01*
X79550Y-56400D02*
X79850Y-56400D01*
X79850Y-56400D02*
X79850Y-56600D01*
X79550Y-56800D02*
X79550Y-57000D01*
X79550Y-57000D02*
X79850Y-57000D01*
X79850Y-57000D02*
X79850Y-56800D01*
X83050Y-58300D02*
X83050Y-58100D01*
X83050Y-58100D02*
X83350Y-58100D01*
X83350Y-58100D02*
X83350Y-58300D01*
X83050Y-58500D02*
X83050Y-58700D01*
X83050Y-58700D02*
X83350Y-58700D01*
X83350Y-58700D02*
X83350Y-58500D01*
G54D15*
X82971Y-63035D02*
X83214Y-63035D01*
X83242Y-63050D01*
X83257Y-63064D01*
X83271Y-63092D01*
X83271Y-63150D01*
X83257Y-63178D01*
X83242Y-63192D01*
X83214Y-63207D01*
X82971Y-63207D01*
X83271Y-63507D02*
X83271Y-63335D01*
X83271Y-63421D02*
X82971Y-63421D01*
X83014Y-63392D01*
X83042Y-63364D01*
X83057Y-63335D01*
X82971Y-63692D02*
X82971Y-63721D01*
X82985Y-63750D01*
X83000Y-63764D01*
X83028Y-63778D01*
X83085Y-63792D01*
X83157Y-63792D01*
X83214Y-63778D01*
X83242Y-63764D01*
X83257Y-63750D01*
X83271Y-63721D01*
X83271Y-63692D01*
X83257Y-63664D01*
X83242Y-63650D01*
X83214Y-63635D01*
X83157Y-63621D01*
X83085Y-63621D01*
X83028Y-63635D01*
X83000Y-63650D01*
X82985Y-63664D01*
X82971Y-63692D01*
X83271Y-64078D02*
X83271Y-63907D01*
X83271Y-63992D02*
X82971Y-63992D01*
X83014Y-63964D01*
X83042Y-63935D01*
X83057Y-63907D01*
G54D14*
X80725Y-57060D02*
X80737Y-57054D01*
X80748Y-57042D01*
X80765Y-57025D01*
X80777Y-57020D01*
X80788Y-57020D01*
X80782Y-57048D02*
X80794Y-57042D01*
X80805Y-57031D01*
X80811Y-57008D01*
X80811Y-56968D01*
X80805Y-56945D01*
X80794Y-56934D01*
X80782Y-56928D01*
X80760Y-56928D01*
X80748Y-56934D01*
X80737Y-56945D01*
X80731Y-56968D01*
X80731Y-57008D01*
X80737Y-57031D01*
X80748Y-57042D01*
X80760Y-57048D01*
X80782Y-57048D01*
X80617Y-57048D02*
X80685Y-57048D01*
X80651Y-57048D02*
X80651Y-56928D01*
X80662Y-56945D01*
X80674Y-56957D01*
X80685Y-56962D01*
X80542Y-56928D02*
X80531Y-56928D01*
X80520Y-56934D01*
X80514Y-56940D01*
X80508Y-56951D01*
X80502Y-56974D01*
X80502Y-57002D01*
X80508Y-57025D01*
X80514Y-57037D01*
X80520Y-57042D01*
X80531Y-57048D01*
X80542Y-57048D01*
X80554Y-57042D01*
X80560Y-57037D01*
X80565Y-57025D01*
X80571Y-57002D01*
X80571Y-56974D01*
X80565Y-56951D01*
X80560Y-56940D01*
X80554Y-56934D01*
X80542Y-56928D01*
X80457Y-56940D02*
X80451Y-56934D01*
X80440Y-56928D01*
X80411Y-56928D01*
X80400Y-56934D01*
X80394Y-56940D01*
X80388Y-56951D01*
X80388Y-56962D01*
X80394Y-56980D01*
X80462Y-57048D01*
X80388Y-57048D01*
X81825Y-57660D02*
X81837Y-57654D01*
X81848Y-57642D01*
X81865Y-57625D01*
X81877Y-57620D01*
X81888Y-57620D01*
X81882Y-57648D02*
X81894Y-57642D01*
X81905Y-57631D01*
X81911Y-57608D01*
X81911Y-57568D01*
X81905Y-57545D01*
X81894Y-57534D01*
X81882Y-57528D01*
X81860Y-57528D01*
X81848Y-57534D01*
X81837Y-57545D01*
X81831Y-57568D01*
X81831Y-57608D01*
X81837Y-57631D01*
X81848Y-57642D01*
X81860Y-57648D01*
X81882Y-57648D01*
X81717Y-57648D02*
X81785Y-57648D01*
X81751Y-57648D02*
X81751Y-57528D01*
X81762Y-57545D01*
X81774Y-57557D01*
X81785Y-57562D01*
X81642Y-57528D02*
X81631Y-57528D01*
X81620Y-57534D01*
X81614Y-57540D01*
X81608Y-57551D01*
X81602Y-57574D01*
X81602Y-57602D01*
X81608Y-57625D01*
X81614Y-57637D01*
X81620Y-57642D01*
X81631Y-57648D01*
X81642Y-57648D01*
X81654Y-57642D01*
X81660Y-57637D01*
X81665Y-57625D01*
X81671Y-57602D01*
X81671Y-57574D01*
X81665Y-57551D01*
X81660Y-57540D01*
X81654Y-57534D01*
X81642Y-57528D01*
X81488Y-57648D02*
X81557Y-57648D01*
X81522Y-57648D02*
X81522Y-57528D01*
X81534Y-57545D01*
X81545Y-57557D01*
X81557Y-57562D01*
G54D11*
X84785Y-64221D02*
X84928Y-64221D01*
X84928Y-63921D01*
X84528Y-64221D02*
X84699Y-64221D01*
X84614Y-64221D02*
X84614Y-63921D01*
X84642Y-63964D01*
X84671Y-63992D01*
X84699Y-64007D01*
X84342Y-63921D02*
X84314Y-63921D01*
X84285Y-63935D01*
X84271Y-63950D01*
X84257Y-63978D01*
X84242Y-64035D01*
X84242Y-64107D01*
X84257Y-64164D01*
X84271Y-64192D01*
X84285Y-64207D01*
X84314Y-64221D01*
X84342Y-64221D01*
X84371Y-64207D01*
X84385Y-64192D01*
X84399Y-64164D01*
X84414Y-64107D01*
X84414Y-64035D01*
X84399Y-63978D01*
X84385Y-63950D01*
X84371Y-63935D01*
X84342Y-63921D01*
X83957Y-64221D02*
X84128Y-64221D01*
X84042Y-64221D02*
X84042Y-63921D01*
X84071Y-63964D01*
X84100Y-63992D01*
X84128Y-64007D01*
G54D16*
X83210Y-62329D02*
X83220Y-62320D01*
X83229Y-62292D01*
X83229Y-62273D01*
X83220Y-62245D01*
X83201Y-62226D01*
X83182Y-62216D01*
X83145Y-62207D01*
X83117Y-62207D01*
X83079Y-62216D01*
X83060Y-62226D01*
X83042Y-62245D01*
X83032Y-62273D01*
X83032Y-62292D01*
X83042Y-62320D01*
X83051Y-62329D01*
X83229Y-62517D02*
X83229Y-62404D01*
X83229Y-62460D02*
X83032Y-62460D01*
X83060Y-62442D01*
X83079Y-62423D01*
X83089Y-62404D01*
X83032Y-62639D02*
X83032Y-62657D01*
X83042Y-62676D01*
X83051Y-62686D01*
X83070Y-62695D01*
X83107Y-62704D01*
X83154Y-62704D01*
X83192Y-62695D01*
X83210Y-62686D01*
X83220Y-62676D01*
X83229Y-62657D01*
X83229Y-62639D01*
X83220Y-62620D01*
X83210Y-62610D01*
X83192Y-62601D01*
X83154Y-62592D01*
X83107Y-62592D01*
X83070Y-62601D01*
X83051Y-62610D01*
X83042Y-62620D01*
X83032Y-62639D01*
X83032Y-62770D02*
X83032Y-62892D01*
X83107Y-62826D01*
X83107Y-62854D01*
X83117Y-62873D01*
X83126Y-62883D01*
X83145Y-62892D01*
X83192Y-62892D01*
X83210Y-62883D01*
X83220Y-62873D01*
X83229Y-62854D01*
X83229Y-62798D01*
X83220Y-62779D01*
X83210Y-62770D01*
X84510Y-62529D02*
X84520Y-62520D01*
X84529Y-62492D01*
X84529Y-62473D01*
X84520Y-62445D01*
X84501Y-62426D01*
X84482Y-62416D01*
X84445Y-62407D01*
X84417Y-62407D01*
X84379Y-62416D01*
X84360Y-62426D01*
X84342Y-62445D01*
X84332Y-62473D01*
X84332Y-62492D01*
X84342Y-62520D01*
X84351Y-62529D01*
X84529Y-62717D02*
X84529Y-62604D01*
X84529Y-62660D02*
X84332Y-62660D01*
X84360Y-62642D01*
X84379Y-62623D01*
X84389Y-62604D01*
X84332Y-62839D02*
X84332Y-62857D01*
X84342Y-62876D01*
X84351Y-62886D01*
X84370Y-62895D01*
X84407Y-62904D01*
X84454Y-62904D01*
X84492Y-62895D01*
X84510Y-62886D01*
X84520Y-62876D01*
X84529Y-62857D01*
X84529Y-62839D01*
X84520Y-62820D01*
X84510Y-62810D01*
X84492Y-62801D01*
X84454Y-62792D01*
X84407Y-62792D01*
X84370Y-62801D01*
X84351Y-62810D01*
X84342Y-62820D01*
X84332Y-62839D01*
X84398Y-63073D02*
X84529Y-63073D01*
X84323Y-63026D02*
X84464Y-62979D01*
X84464Y-63101D01*
X83370Y-64960D02*
X83379Y-64970D01*
X83407Y-64979D01*
X83426Y-64979D01*
X83454Y-64970D01*
X83473Y-64951D01*
X83483Y-64932D01*
X83492Y-64895D01*
X83492Y-64867D01*
X83483Y-64829D01*
X83473Y-64810D01*
X83454Y-64792D01*
X83426Y-64782D01*
X83407Y-64782D01*
X83379Y-64792D01*
X83370Y-64801D01*
X83182Y-64979D02*
X83295Y-64979D01*
X83239Y-64979D02*
X83239Y-64782D01*
X83257Y-64810D01*
X83276Y-64829D01*
X83295Y-64839D01*
X83060Y-64782D02*
X83042Y-64782D01*
X83023Y-64792D01*
X83013Y-64801D01*
X83004Y-64820D01*
X82995Y-64857D01*
X82995Y-64904D01*
X83004Y-64942D01*
X83013Y-64960D01*
X83023Y-64970D01*
X83042Y-64979D01*
X83060Y-64979D01*
X83079Y-64970D01*
X83089Y-64960D01*
X83098Y-64942D01*
X83107Y-64904D01*
X83107Y-64857D01*
X83098Y-64820D01*
X83089Y-64801D01*
X83079Y-64792D01*
X83060Y-64782D01*
X82920Y-64801D02*
X82910Y-64792D01*
X82892Y-64782D01*
X82845Y-64782D01*
X82826Y-64792D01*
X82816Y-64801D01*
X82807Y-64820D01*
X82807Y-64839D01*
X82816Y-64867D01*
X82929Y-64979D01*
X82807Y-64979D01*
G54D17*
X86601Y-59886D02*
X86610Y-59896D01*
X86635Y-59905D01*
X86652Y-59905D01*
X86678Y-59896D01*
X86695Y-59877D01*
X86704Y-59858D01*
X86712Y-59820D01*
X86712Y-59791D01*
X86704Y-59753D01*
X86695Y-59734D01*
X86678Y-59715D01*
X86652Y-59705D01*
X86635Y-59705D01*
X86610Y-59715D01*
X86601Y-59725D01*
X86430Y-59905D02*
X86532Y-59905D01*
X86481Y-59905D02*
X86481Y-59705D01*
X86498Y-59734D01*
X86515Y-59753D01*
X86532Y-59763D01*
X86318Y-59705D02*
X86301Y-59705D01*
X86284Y-59715D01*
X86275Y-59725D01*
X86267Y-59744D01*
X86258Y-59782D01*
X86258Y-59829D01*
X86267Y-59867D01*
X86275Y-59886D01*
X86284Y-59896D01*
X86301Y-59905D01*
X86318Y-59905D01*
X86335Y-59896D01*
X86344Y-59886D01*
X86352Y-59867D01*
X86361Y-59829D01*
X86361Y-59782D01*
X86352Y-59744D01*
X86344Y-59725D01*
X86335Y-59715D01*
X86318Y-59705D01*
X86198Y-59705D02*
X86078Y-59705D01*
X86155Y-59905D01*
G54D14*
X82105Y-63815D02*
X82040Y-63775D01*
X82105Y-63747D02*
X81967Y-63747D01*
X81967Y-63792D01*
X81974Y-63804D01*
X81981Y-63810D01*
X81994Y-63815D01*
X82013Y-63815D01*
X82027Y-63810D01*
X82033Y-63804D01*
X82040Y-63792D01*
X82040Y-63747D01*
X82105Y-63930D02*
X82105Y-63861D01*
X82105Y-63895D02*
X81967Y-63895D01*
X81987Y-63884D01*
X82000Y-63872D01*
X82007Y-63861D01*
X81967Y-64004D02*
X81967Y-64015D01*
X81974Y-64027D01*
X81981Y-64032D01*
X81994Y-64038D01*
X82020Y-64044D01*
X82053Y-64044D01*
X82079Y-64038D01*
X82092Y-64032D01*
X82099Y-64027D01*
X82105Y-64015D01*
X82105Y-64004D01*
X82099Y-63992D01*
X82092Y-63987D01*
X82079Y-63981D01*
X82053Y-63975D01*
X82020Y-63975D01*
X81994Y-63981D01*
X81981Y-63987D01*
X81974Y-63992D01*
X81967Y-64004D01*
X81967Y-64147D02*
X81967Y-64124D01*
X81974Y-64112D01*
X81981Y-64107D01*
X82000Y-64095D01*
X82027Y-64090D01*
X82079Y-64090D01*
X82092Y-64095D01*
X82099Y-64101D01*
X82105Y-64112D01*
X82105Y-64135D01*
X82099Y-64147D01*
X82092Y-64152D01*
X82079Y-64158D01*
X82046Y-64158D01*
X82033Y-64152D01*
X82027Y-64147D01*
X82020Y-64135D01*
X82020Y-64112D01*
X82027Y-64101D01*
X82033Y-64095D01*
X82046Y-64090D01*
X83659Y-61880D02*
X83699Y-61815D01*
X83727Y-61880D02*
X83727Y-61742D01*
X83682Y-61742D01*
X83670Y-61749D01*
X83665Y-61756D01*
X83659Y-61769D01*
X83659Y-61788D01*
X83665Y-61802D01*
X83670Y-61808D01*
X83682Y-61815D01*
X83727Y-61815D01*
X83545Y-61880D02*
X83613Y-61880D01*
X83579Y-61880D02*
X83579Y-61742D01*
X83590Y-61762D01*
X83602Y-61775D01*
X83613Y-61782D01*
X83430Y-61880D02*
X83499Y-61880D01*
X83465Y-61880D02*
X83465Y-61742D01*
X83476Y-61762D01*
X83487Y-61775D01*
X83499Y-61782D01*
X83390Y-61742D02*
X83316Y-61742D01*
X83356Y-61795D01*
X83339Y-61795D01*
X83327Y-61802D01*
X83322Y-61808D01*
X83316Y-61821D01*
X83316Y-61854D01*
X83322Y-61867D01*
X83327Y-61874D01*
X83339Y-61880D01*
X83373Y-61880D01*
X83385Y-61874D01*
X83390Y-61867D01*
X85980Y-61865D02*
X85915Y-61825D01*
X85980Y-61797D02*
X85842Y-61797D01*
X85842Y-61842D01*
X85849Y-61854D01*
X85856Y-61860D01*
X85869Y-61865D01*
X85888Y-61865D01*
X85902Y-61860D01*
X85908Y-61854D01*
X85915Y-61842D01*
X85915Y-61797D01*
X85980Y-61980D02*
X85980Y-61911D01*
X85980Y-61945D02*
X85842Y-61945D01*
X85862Y-61934D01*
X85875Y-61922D01*
X85882Y-61911D01*
X85980Y-62094D02*
X85980Y-62025D01*
X85980Y-62060D02*
X85842Y-62060D01*
X85862Y-62048D01*
X85875Y-62037D01*
X85882Y-62025D01*
X85842Y-62202D02*
X85842Y-62145D01*
X85908Y-62140D01*
X85902Y-62145D01*
X85895Y-62157D01*
X85895Y-62185D01*
X85902Y-62197D01*
X85908Y-62202D01*
X85921Y-62208D01*
X85954Y-62208D01*
X85967Y-62202D01*
X85974Y-62197D01*
X85980Y-62185D01*
X85980Y-62157D01*
X85974Y-62145D01*
X85967Y-62140D01*
X81967Y-59565D02*
X81974Y-59560D01*
X81980Y-59542D01*
X81980Y-59531D01*
X81974Y-59514D01*
X81961Y-59502D01*
X81948Y-59497D01*
X81921Y-59491D01*
X81902Y-59491D01*
X81875Y-59497D01*
X81862Y-59502D01*
X81849Y-59514D01*
X81842Y-59531D01*
X81842Y-59542D01*
X81849Y-59560D01*
X81856Y-59565D01*
X81980Y-59680D02*
X81980Y-59611D01*
X81980Y-59645D02*
X81842Y-59645D01*
X81862Y-59634D01*
X81875Y-59622D01*
X81882Y-59611D01*
X81842Y-59754D02*
X81842Y-59765D01*
X81849Y-59777D01*
X81856Y-59782D01*
X81869Y-59788D01*
X81895Y-59794D01*
X81928Y-59794D01*
X81954Y-59788D01*
X81967Y-59782D01*
X81974Y-59777D01*
X81980Y-59765D01*
X81980Y-59754D01*
X81974Y-59742D01*
X81967Y-59737D01*
X81954Y-59731D01*
X81928Y-59725D01*
X81895Y-59725D01*
X81869Y-59731D01*
X81856Y-59737D01*
X81849Y-59742D01*
X81842Y-59754D01*
X81980Y-59851D02*
X81980Y-59874D01*
X81974Y-59885D01*
X81967Y-59891D01*
X81948Y-59902D01*
X81921Y-59908D01*
X81869Y-59908D01*
X81856Y-59902D01*
X81849Y-59897D01*
X81842Y-59885D01*
X81842Y-59862D01*
X81849Y-59851D01*
X81856Y-59845D01*
X81869Y-59840D01*
X81902Y-59840D01*
X81915Y-59845D01*
X81921Y-59851D01*
X81928Y-59862D01*
X81928Y-59885D01*
X81921Y-59897D01*
X81915Y-59902D01*
X81902Y-59908D01*
X81905Y-63815D02*
X81840Y-63775D01*
X81905Y-63747D02*
X81767Y-63747D01*
X81767Y-63792D01*
X81774Y-63804D01*
X81781Y-63810D01*
X81794Y-63815D01*
X81813Y-63815D01*
X81827Y-63810D01*
X81833Y-63804D01*
X81840Y-63792D01*
X81840Y-63747D01*
X81905Y-63930D02*
X81905Y-63861D01*
X81905Y-63895D02*
X81767Y-63895D01*
X81787Y-63884D01*
X81800Y-63872D01*
X81807Y-63861D01*
X81767Y-64004D02*
X81767Y-64015D01*
X81774Y-64027D01*
X81781Y-64032D01*
X81794Y-64038D01*
X81820Y-64044D01*
X81853Y-64044D01*
X81879Y-64038D01*
X81892Y-64032D01*
X81899Y-64027D01*
X81905Y-64015D01*
X81905Y-64004D01*
X81899Y-63992D01*
X81892Y-63987D01*
X81879Y-63981D01*
X81853Y-63975D01*
X81820Y-63975D01*
X81794Y-63981D01*
X81781Y-63987D01*
X81774Y-63992D01*
X81767Y-64004D01*
X81813Y-64147D02*
X81905Y-64147D01*
X81761Y-64118D02*
X81859Y-64090D01*
X81859Y-64164D01*
X82209Y-58580D02*
X82249Y-58515D01*
X82277Y-58580D02*
X82277Y-58442D01*
X82232Y-58442D01*
X82220Y-58449D01*
X82215Y-58456D01*
X82209Y-58469D01*
X82209Y-58488D01*
X82215Y-58502D01*
X82220Y-58508D01*
X82232Y-58515D01*
X82277Y-58515D01*
X82095Y-58580D02*
X82163Y-58580D01*
X82129Y-58580D02*
X82129Y-58442D01*
X82140Y-58462D01*
X82152Y-58475D01*
X82163Y-58482D01*
X82020Y-58442D02*
X82009Y-58442D01*
X81997Y-58449D01*
X81992Y-58456D01*
X81986Y-58469D01*
X81980Y-58495D01*
X81980Y-58528D01*
X81986Y-58554D01*
X81992Y-58567D01*
X81997Y-58574D01*
X82009Y-58580D01*
X82020Y-58580D01*
X82032Y-58574D01*
X82037Y-58567D01*
X82043Y-58554D01*
X82049Y-58528D01*
X82049Y-58495D01*
X82043Y-58469D01*
X82037Y-58456D01*
X82032Y-58449D01*
X82020Y-58442D01*
X81866Y-58580D02*
X81935Y-58580D01*
X81900Y-58580D02*
X81900Y-58442D01*
X81912Y-58462D01*
X81923Y-58475D01*
X81935Y-58482D01*
X81980Y-60340D02*
X81915Y-60300D01*
X81980Y-60272D02*
X81842Y-60272D01*
X81842Y-60317D01*
X81849Y-60329D01*
X81856Y-60335D01*
X81869Y-60340D01*
X81888Y-60340D01*
X81902Y-60335D01*
X81908Y-60329D01*
X81915Y-60317D01*
X81915Y-60272D01*
X81980Y-60455D02*
X81980Y-60386D01*
X81980Y-60420D02*
X81842Y-60420D01*
X81862Y-60409D01*
X81875Y-60397D01*
X81882Y-60386D01*
X81980Y-60569D02*
X81980Y-60500D01*
X81980Y-60535D02*
X81842Y-60535D01*
X81862Y-60523D01*
X81875Y-60512D01*
X81882Y-60500D01*
X81842Y-60643D02*
X81842Y-60655D01*
X81849Y-60666D01*
X81856Y-60672D01*
X81869Y-60677D01*
X81895Y-60683D01*
X81928Y-60683D01*
X81954Y-60677D01*
X81967Y-60672D01*
X81974Y-60666D01*
X81980Y-60655D01*
X81980Y-60643D01*
X81974Y-60632D01*
X81967Y-60626D01*
X81954Y-60620D01*
X81928Y-60615D01*
X81895Y-60615D01*
X81869Y-60620D01*
X81856Y-60626D01*
X81849Y-60632D01*
X81842Y-60643D01*
X85705Y-64065D02*
X85640Y-64025D01*
X85705Y-63997D02*
X85567Y-63997D01*
X85567Y-64042D01*
X85574Y-64054D01*
X85581Y-64060D01*
X85594Y-64065D01*
X85613Y-64065D01*
X85627Y-64060D01*
X85633Y-64054D01*
X85640Y-64042D01*
X85640Y-63997D01*
X85705Y-64180D02*
X85705Y-64111D01*
X85705Y-64145D02*
X85567Y-64145D01*
X85587Y-64134D01*
X85600Y-64122D01*
X85607Y-64111D01*
X85567Y-64254D02*
X85567Y-64265D01*
X85574Y-64277D01*
X85581Y-64282D01*
X85594Y-64288D01*
X85620Y-64294D01*
X85653Y-64294D01*
X85679Y-64288D01*
X85692Y-64282D01*
X85699Y-64277D01*
X85705Y-64265D01*
X85705Y-64254D01*
X85699Y-64242D01*
X85692Y-64237D01*
X85679Y-64231D01*
X85653Y-64225D01*
X85620Y-64225D01*
X85594Y-64231D01*
X85581Y-64237D01*
X85574Y-64242D01*
X85567Y-64254D01*
X85567Y-64334D02*
X85567Y-64414D01*
X85705Y-64362D01*
X85430Y-57765D02*
X85365Y-57725D01*
X85430Y-57697D02*
X85292Y-57697D01*
X85292Y-57742D01*
X85299Y-57754D01*
X85306Y-57760D01*
X85319Y-57765D01*
X85338Y-57765D01*
X85352Y-57760D01*
X85358Y-57754D01*
X85365Y-57742D01*
X85365Y-57697D01*
X85430Y-57880D02*
X85430Y-57811D01*
X85430Y-57845D02*
X85292Y-57845D01*
X85312Y-57834D01*
X85325Y-57822D01*
X85332Y-57811D01*
X85292Y-57954D02*
X85292Y-57965D01*
X85299Y-57977D01*
X85306Y-57982D01*
X85319Y-57988D01*
X85345Y-57994D01*
X85378Y-57994D01*
X85404Y-57988D01*
X85417Y-57982D01*
X85424Y-57977D01*
X85430Y-57965D01*
X85430Y-57954D01*
X85424Y-57942D01*
X85417Y-57937D01*
X85404Y-57931D01*
X85378Y-57925D01*
X85345Y-57925D01*
X85319Y-57931D01*
X85306Y-57937D01*
X85299Y-57942D01*
X85292Y-57954D01*
X85430Y-58051D02*
X85430Y-58074D01*
X85424Y-58085D01*
X85417Y-58091D01*
X85398Y-58102D01*
X85371Y-58108D01*
X85319Y-58108D01*
X85306Y-58102D01*
X85299Y-58097D01*
X85292Y-58085D01*
X85292Y-58062D01*
X85299Y-58051D01*
X85306Y-58045D01*
X85319Y-58040D01*
X85352Y-58040D01*
X85365Y-58045D01*
X85371Y-58051D01*
X85378Y-58062D01*
X85378Y-58085D01*
X85371Y-58097D01*
X85365Y-58102D01*
X85352Y-58108D01*
X86442Y-60465D02*
X86449Y-60460D01*
X86455Y-60442D01*
X86455Y-60431D01*
X86449Y-60414D01*
X86436Y-60402D01*
X86423Y-60397D01*
X86396Y-60391D01*
X86377Y-60391D01*
X86350Y-60397D01*
X86337Y-60402D01*
X86324Y-60414D01*
X86317Y-60431D01*
X86317Y-60442D01*
X86324Y-60460D01*
X86331Y-60465D01*
X86455Y-60580D02*
X86455Y-60511D01*
X86455Y-60545D02*
X86317Y-60545D01*
X86337Y-60534D01*
X86350Y-60522D01*
X86357Y-60511D01*
X86455Y-60694D02*
X86455Y-60625D01*
X86455Y-60660D02*
X86317Y-60660D01*
X86337Y-60648D01*
X86350Y-60637D01*
X86357Y-60625D01*
X86317Y-60768D02*
X86317Y-60780D01*
X86324Y-60791D01*
X86331Y-60797D01*
X86344Y-60802D01*
X86370Y-60808D01*
X86403Y-60808D01*
X86429Y-60802D01*
X86442Y-60797D01*
X86449Y-60791D01*
X86455Y-60780D01*
X86455Y-60768D01*
X86449Y-60757D01*
X86442Y-60751D01*
X86429Y-60745D01*
X86403Y-60740D01*
X86370Y-60740D01*
X86344Y-60745D01*
X86331Y-60751D01*
X86324Y-60757D01*
X86317Y-60768D01*
X86455Y-60965D02*
X86390Y-60925D01*
X86455Y-60897D02*
X86317Y-60897D01*
X86317Y-60942D01*
X86324Y-60954D01*
X86331Y-60960D01*
X86344Y-60965D01*
X86363Y-60965D01*
X86377Y-60960D01*
X86383Y-60954D01*
X86390Y-60942D01*
X86390Y-60897D01*
X86455Y-61080D02*
X86455Y-61011D01*
X86455Y-61045D02*
X86317Y-61045D01*
X86337Y-61034D01*
X86350Y-61022D01*
X86357Y-61011D01*
X86455Y-61194D02*
X86455Y-61125D01*
X86455Y-61160D02*
X86317Y-61160D01*
X86337Y-61148D01*
X86350Y-61137D01*
X86357Y-61125D01*
X86331Y-61240D02*
X86324Y-61245D01*
X86317Y-61257D01*
X86317Y-61285D01*
X86324Y-61297D01*
X86331Y-61302D01*
X86344Y-61308D01*
X86357Y-61308D01*
X86377Y-61302D01*
X86455Y-61234D01*
X86455Y-61308D01*
X85459Y-58342D02*
X85465Y-58349D01*
X85482Y-58355D01*
X85493Y-58355D01*
X85510Y-58349D01*
X85522Y-58336D01*
X85527Y-58323D01*
X85533Y-58296D01*
X85533Y-58277D01*
X85527Y-58250D01*
X85522Y-58237D01*
X85510Y-58224D01*
X85493Y-58217D01*
X85482Y-58217D01*
X85465Y-58224D01*
X85459Y-58231D01*
X85345Y-58355D02*
X85413Y-58355D01*
X85379Y-58355D02*
X85379Y-58217D01*
X85390Y-58237D01*
X85402Y-58250D01*
X85413Y-58257D01*
X85270Y-58217D02*
X85259Y-58217D01*
X85247Y-58224D01*
X85242Y-58231D01*
X85236Y-58244D01*
X85230Y-58270D01*
X85230Y-58303D01*
X85236Y-58329D01*
X85242Y-58342D01*
X85247Y-58349D01*
X85259Y-58355D01*
X85270Y-58355D01*
X85282Y-58349D01*
X85287Y-58342D01*
X85293Y-58329D01*
X85299Y-58303D01*
X85299Y-58270D01*
X85293Y-58244D01*
X85287Y-58231D01*
X85282Y-58224D01*
X85270Y-58217D01*
X85162Y-58277D02*
X85173Y-58270D01*
X85179Y-58263D01*
X85185Y-58250D01*
X85185Y-58244D01*
X85179Y-58231D01*
X85173Y-58224D01*
X85162Y-58217D01*
X85139Y-58217D01*
X85127Y-58224D01*
X85122Y-58231D01*
X85116Y-58244D01*
X85116Y-58250D01*
X85122Y-58263D01*
X85127Y-58270D01*
X85139Y-58277D01*
X85162Y-58277D01*
X85173Y-58283D01*
X85179Y-58290D01*
X85185Y-58303D01*
X85185Y-58329D01*
X85179Y-58342D01*
X85173Y-58349D01*
X85162Y-58355D01*
X85139Y-58355D01*
X85127Y-58349D01*
X85122Y-58342D01*
X85116Y-58329D01*
X85116Y-58303D01*
X85122Y-58290D01*
X85127Y-58283D01*
X85139Y-58277D01*
X81980Y-61240D02*
X81915Y-61200D01*
X81980Y-61172D02*
X81842Y-61172D01*
X81842Y-61217D01*
X81849Y-61229D01*
X81856Y-61235D01*
X81869Y-61240D01*
X81888Y-61240D01*
X81902Y-61235D01*
X81908Y-61229D01*
X81915Y-61217D01*
X81915Y-61172D01*
X81980Y-61355D02*
X81980Y-61286D01*
X81980Y-61320D02*
X81842Y-61320D01*
X81862Y-61309D01*
X81875Y-61297D01*
X81882Y-61286D01*
X81980Y-61469D02*
X81980Y-61400D01*
X81980Y-61435D02*
X81842Y-61435D01*
X81862Y-61423D01*
X81875Y-61412D01*
X81882Y-61400D01*
X81980Y-61583D02*
X81980Y-61515D01*
X81980Y-61549D02*
X81842Y-61549D01*
X81862Y-61537D01*
X81875Y-61526D01*
X81882Y-61515D01*
X82234Y-58930D02*
X82274Y-58865D01*
X82302Y-58930D02*
X82302Y-58792D01*
X82257Y-58792D01*
X82245Y-58799D01*
X82240Y-58806D01*
X82234Y-58819D01*
X82234Y-58838D01*
X82240Y-58852D01*
X82245Y-58858D01*
X82257Y-58865D01*
X82302Y-58865D01*
X82120Y-58930D02*
X82188Y-58930D01*
X82154Y-58930D02*
X82154Y-58792D01*
X82165Y-58812D01*
X82177Y-58825D01*
X82188Y-58832D01*
X82045Y-58792D02*
X82034Y-58792D01*
X82022Y-58799D01*
X82017Y-58806D01*
X82011Y-58819D01*
X82005Y-58845D01*
X82005Y-58878D01*
X82011Y-58904D01*
X82017Y-58917D01*
X82022Y-58924D01*
X82034Y-58930D01*
X82045Y-58930D01*
X82057Y-58924D01*
X82062Y-58917D01*
X82068Y-58904D01*
X82074Y-58878D01*
X82074Y-58845D01*
X82068Y-58819D01*
X82062Y-58806D01*
X82057Y-58799D01*
X82045Y-58792D01*
X81937Y-58852D02*
X81948Y-58845D01*
X81954Y-58838D01*
X81960Y-58825D01*
X81960Y-58819D01*
X81954Y-58806D01*
X81948Y-58799D01*
X81937Y-58792D01*
X81914Y-58792D01*
X81902Y-58799D01*
X81897Y-58806D01*
X81891Y-58819D01*
X81891Y-58825D01*
X81897Y-58838D01*
X81902Y-58845D01*
X81914Y-58852D01*
X81937Y-58852D01*
X81948Y-58858D01*
X81954Y-58865D01*
X81960Y-58878D01*
X81960Y-58904D01*
X81954Y-58917D01*
X81948Y-58924D01*
X81937Y-58930D01*
X81914Y-58930D01*
X81902Y-58924D01*
X81897Y-58917D01*
X81891Y-58904D01*
X81891Y-58878D01*
X81897Y-58865D01*
X81902Y-58858D01*
X81914Y-58852D01*
X81534Y-58580D02*
X81574Y-58515D01*
X81602Y-58580D02*
X81602Y-58442D01*
X81557Y-58442D01*
X81545Y-58449D01*
X81540Y-58456D01*
X81534Y-58469D01*
X81534Y-58488D01*
X81540Y-58502D01*
X81545Y-58508D01*
X81557Y-58515D01*
X81602Y-58515D01*
X81420Y-58580D02*
X81488Y-58580D01*
X81454Y-58580D02*
X81454Y-58442D01*
X81465Y-58462D01*
X81477Y-58475D01*
X81488Y-58482D01*
X81345Y-58442D02*
X81334Y-58442D01*
X81322Y-58449D01*
X81317Y-58456D01*
X81311Y-58469D01*
X81305Y-58495D01*
X81305Y-58528D01*
X81311Y-58554D01*
X81317Y-58567D01*
X81322Y-58574D01*
X81334Y-58580D01*
X81345Y-58580D01*
X81357Y-58574D01*
X81362Y-58567D01*
X81368Y-58554D01*
X81374Y-58528D01*
X81374Y-58495D01*
X81368Y-58469D01*
X81362Y-58456D01*
X81357Y-58449D01*
X81345Y-58442D01*
X81260Y-58456D02*
X81254Y-58449D01*
X81242Y-58442D01*
X81214Y-58442D01*
X81202Y-58449D01*
X81197Y-58456D01*
X81191Y-58469D01*
X81191Y-58482D01*
X81197Y-58502D01*
X81265Y-58580D01*
X81191Y-58580D01*
X85055Y-61865D02*
X84990Y-61825D01*
X85055Y-61797D02*
X84917Y-61797D01*
X84917Y-61842D01*
X84924Y-61854D01*
X84931Y-61860D01*
X84944Y-61865D01*
X84963Y-61865D01*
X84977Y-61860D01*
X84983Y-61854D01*
X84990Y-61842D01*
X84990Y-61797D01*
X85055Y-61980D02*
X85055Y-61911D01*
X85055Y-61945D02*
X84917Y-61945D01*
X84937Y-61934D01*
X84950Y-61922D01*
X84957Y-61911D01*
X85055Y-62094D02*
X85055Y-62025D01*
X85055Y-62060D02*
X84917Y-62060D01*
X84937Y-62048D01*
X84950Y-62037D01*
X84957Y-62025D01*
X84963Y-62197D02*
X85055Y-62197D01*
X84911Y-62168D02*
X85009Y-62140D01*
X85009Y-62214D01*
X79530Y-56615D02*
X79465Y-56575D01*
X79530Y-56547D02*
X79392Y-56547D01*
X79392Y-56592D01*
X79399Y-56604D01*
X79406Y-56610D01*
X79419Y-56615D01*
X79438Y-56615D01*
X79452Y-56610D01*
X79458Y-56604D01*
X79465Y-56592D01*
X79465Y-56547D01*
X79530Y-56730D02*
X79530Y-56661D01*
X79530Y-56695D02*
X79392Y-56695D01*
X79412Y-56684D01*
X79425Y-56672D01*
X79432Y-56661D01*
X79392Y-56804D02*
X79392Y-56815D01*
X79399Y-56827D01*
X79406Y-56832D01*
X79419Y-56838D01*
X79445Y-56844D01*
X79478Y-56844D01*
X79504Y-56838D01*
X79517Y-56832D01*
X79524Y-56827D01*
X79530Y-56815D01*
X79530Y-56804D01*
X79524Y-56792D01*
X79517Y-56787D01*
X79504Y-56781D01*
X79478Y-56775D01*
X79445Y-56775D01*
X79419Y-56781D01*
X79406Y-56787D01*
X79399Y-56792D01*
X79392Y-56804D01*
X79392Y-56884D02*
X79392Y-56958D01*
X79445Y-56918D01*
X79445Y-56935D01*
X79452Y-56947D01*
X79458Y-56952D01*
X79471Y-56958D01*
X79504Y-56958D01*
X79517Y-56952D01*
X79524Y-56947D01*
X79530Y-56935D01*
X79530Y-56901D01*
X79524Y-56890D01*
X79517Y-56884D01*
X83030Y-58265D02*
X82965Y-58225D01*
X83030Y-58197D02*
X82892Y-58197D01*
X82892Y-58242D01*
X82899Y-58254D01*
X82906Y-58260D01*
X82919Y-58265D01*
X82938Y-58265D01*
X82952Y-58260D01*
X82958Y-58254D01*
X82965Y-58242D01*
X82965Y-58197D01*
X83030Y-58380D02*
X83030Y-58311D01*
X83030Y-58345D02*
X82892Y-58345D01*
X82912Y-58334D01*
X82925Y-58322D01*
X82932Y-58311D01*
X82892Y-58454D02*
X82892Y-58465D01*
X82899Y-58477D01*
X82906Y-58482D01*
X82919Y-58488D01*
X82945Y-58494D01*
X82978Y-58494D01*
X83004Y-58488D01*
X83017Y-58482D01*
X83024Y-58477D01*
X83030Y-58465D01*
X83030Y-58454D01*
X83024Y-58442D01*
X83017Y-58437D01*
X83004Y-58431D01*
X82978Y-58425D01*
X82945Y-58425D01*
X82919Y-58431D01*
X82906Y-58437D01*
X82899Y-58442D01*
X82892Y-58454D01*
X82892Y-58602D02*
X82892Y-58545D01*
X82958Y-58540D01*
X82952Y-58545D01*
X82945Y-58557D01*
X82945Y-58585D01*
X82952Y-58597D01*
X82958Y-58602D01*
X82971Y-58608D01*
X83004Y-58608D01*
X83017Y-58602D01*
X83024Y-58597D01*
X83030Y-58585D01*
X83030Y-58557D01*
X83024Y-58545D01*
X83017Y-58540D01*
%LPC*%
G54D18*
X75800Y-56600D03*
X81100Y-64800D03*
X84200Y-61900D03*
X84700Y-58000D03*
X85400Y-57200D03*
X84700Y-61900D03*
X84200Y-58500D03*
X84700Y-58500D03*
G54D19*
X83583Y-63805D03*
X83583Y-63550D03*
X83583Y-63294D03*
X82716Y-63294D03*
X82716Y-63550D03*
X82716Y-63805D03*
G54D20*
X83995Y-57388D03*
X84585Y-57388D03*
X82814Y-57388D03*
G54D21*
X84290Y-56700D03*
X83109Y-56700D03*
G54D22*
X85018Y-56700D03*
X82381Y-56700D03*
G54D23*
X85700Y-61262D03*
X85200Y-61262D03*
X84700Y-61262D03*
X84200Y-61262D03*
X83700Y-61262D03*
X83200Y-61262D03*
X82700Y-61262D03*
X82700Y-59137D03*
X83200Y-59137D03*
X83700Y-59137D03*
X84200Y-59137D03*
X84700Y-59137D03*
X85200Y-59137D03*
X85700Y-59137D03*
G54D10*
G36*
X75578Y-57064D02*
X74164Y-58478D01*
X73457Y-57771D01*
X74871Y-56357D01*
X75578Y-57064D01*
X75578Y-57064D01*
G37*
G36*
X81942Y-63428D02*
X80528Y-64842D01*
X79821Y-64135D01*
X81235Y-62721D01*
X81942Y-63428D01*
X81942Y-63428D01*
G37*
G54D24*
X77700Y-60600D03*
G54D25*
X80600Y-57433D03*
X80975Y-56567D03*
X80225Y-56567D03*
X81700Y-56967D03*
X81325Y-57833D03*
X82075Y-57833D03*
G54D26*
X84450Y-64650D03*
X84450Y-63450D03*
G54D27*
X83525Y-62650D03*
X82775Y-62650D03*
X84075Y-62650D03*
X84825Y-62650D03*
X83525Y-64450D03*
X82775Y-64450D03*
G54D28*
X86400Y-59500D03*
X86400Y-60100D03*
G54D29*
X82200Y-64677D03*
X82200Y-64323D03*
G54D30*
X82773Y-61850D03*
X83127Y-61850D03*
G54D29*
X85700Y-62177D03*
X85700Y-61823D03*
X82200Y-59877D03*
X82200Y-59523D03*
X81700Y-64323D03*
X81700Y-64677D03*
G54D30*
X82277Y-58300D03*
X81923Y-58300D03*
G54D29*
X82200Y-60677D03*
X82200Y-60323D03*
X85400Y-64023D03*
X85400Y-64377D03*
X85150Y-58077D03*
X85150Y-57723D03*
G54D30*
X86577Y-60600D03*
X86223Y-60600D03*
X86223Y-61100D03*
X86577Y-61100D03*
X85477Y-58500D03*
X85123Y-58500D03*
G54D29*
X82200Y-61477D03*
X82200Y-61123D03*
G54D30*
X81923Y-59100D03*
X82277Y-59100D03*
X81577Y-58300D03*
X81223Y-58300D03*
G54D29*
X85200Y-62177D03*
X85200Y-61823D03*
X79700Y-56523D03*
X79700Y-56877D03*
X83200Y-58223D03*
X83200Y-58577D03*
M02*
