G04 (created by PCBNEW (2013-may-18)-stable) date Mon 02 Nov 2015 08:13:46 PM CST*
%MOIN*%
G04 Gerber Fmt 3.4, Leading zero omitted, Abs format*
%FSLAX34Y34*%
G01*
G70*
G90*
G04 APERTURE LIST*
%ADD10C,0.00590551*%
%ADD11C,0.03*%
%ADD12R,0.0393701X0.015748*%
%ADD13R,0.0275591X0.0590551*%
%ADD14C,0.0354331*%
%ADD15R,0.0354331X0.0590551*%
%ADD16R,0.023622X0.0590551*%
%ADD17C,0.7*%
%ADD18R,0.0315X0.0394*%
%ADD19R,0.1X0.05*%
%ADD20R,0.035X0.055*%
%ADD21R,0.045X0.025*%
%ADD22R,0.0236X0.0157*%
%ADD23R,0.0157X0.0236*%
G04 APERTURE END LIST*
G54D10*
G54D11*
X75800Y-56600D03*
X81100Y-64800D03*
X84200Y-61900D03*
X84700Y-58000D03*
X85400Y-57200D03*
X84700Y-61900D03*
X84200Y-58500D03*
X84700Y-58500D03*
G54D12*
X83583Y-63805D03*
X83583Y-63550D03*
X83583Y-63294D03*
X82716Y-63294D03*
X82716Y-63550D03*
X82716Y-63805D03*
G54D13*
X83995Y-57388D03*
X84585Y-57388D03*
X82814Y-57388D03*
G54D14*
X84290Y-56700D03*
X83109Y-56700D03*
G54D15*
X85018Y-56700D03*
X82381Y-56700D03*
G54D16*
X85700Y-61262D03*
X85200Y-61262D03*
X84700Y-61262D03*
X84200Y-61262D03*
X83700Y-61262D03*
X83200Y-61262D03*
X82700Y-61262D03*
X82700Y-59137D03*
X83200Y-59137D03*
X83700Y-59137D03*
X84200Y-59137D03*
X84700Y-59137D03*
X85200Y-59137D03*
X85700Y-59137D03*
G54D10*
G36*
X75578Y-57064D02*
X74164Y-58478D01*
X73457Y-57771D01*
X74871Y-56357D01*
X75578Y-57064D01*
X75578Y-57064D01*
G37*
G36*
X81942Y-63428D02*
X80528Y-64842D01*
X79821Y-64135D01*
X81235Y-62721D01*
X81942Y-63428D01*
X81942Y-63428D01*
G37*
G54D17*
X77700Y-60600D03*
G54D18*
X80600Y-57433D03*
X80975Y-56567D03*
X80225Y-56567D03*
X81700Y-56967D03*
X81325Y-57833D03*
X82075Y-57833D03*
G54D19*
X84450Y-64650D03*
X84450Y-63450D03*
G54D20*
X83525Y-62650D03*
X82775Y-62650D03*
X84075Y-62650D03*
X84825Y-62650D03*
X83525Y-64450D03*
X82775Y-64450D03*
G54D21*
X86400Y-59500D03*
X86400Y-60100D03*
G54D22*
X82200Y-64677D03*
X82200Y-64323D03*
G54D23*
X82773Y-61850D03*
X83127Y-61850D03*
G54D22*
X85700Y-62177D03*
X85700Y-61823D03*
X82200Y-59877D03*
X82200Y-59523D03*
X81700Y-64323D03*
X81700Y-64677D03*
G54D23*
X82277Y-58300D03*
X81923Y-58300D03*
G54D22*
X82200Y-60677D03*
X82200Y-60323D03*
X85400Y-64023D03*
X85400Y-64377D03*
X85150Y-58077D03*
X85150Y-57723D03*
G54D23*
X86577Y-60600D03*
X86223Y-60600D03*
X86223Y-61100D03*
X86577Y-61100D03*
X85477Y-58500D03*
X85123Y-58500D03*
G54D22*
X82200Y-61477D03*
X82200Y-61123D03*
G54D23*
X81923Y-59100D03*
X82277Y-59100D03*
X81577Y-58300D03*
X81223Y-58300D03*
G54D22*
X85200Y-62177D03*
X85200Y-61823D03*
X79700Y-56523D03*
X79700Y-56877D03*
X83200Y-58223D03*
X83200Y-58577D03*
M02*
