G04 (created by PCBNEW (2013-may-18)-stable) date Mon 02 Nov 2015 08:13:46 PM CST*
%MOIN*%
G04 Gerber Fmt 3.4, Leading zero omitted, Abs format*
%FSLAX34Y34*%
G01*
G70*
G90*
G04 APERTURE LIST*
%ADD10C,0.00590551*%
%ADD11C,0.0354331*%
%ADD12R,0.0314X0.0314*%
%ADD13C,0.12*%
%ADD14C,0.024*%
%ADD15C,0.008*%
%ADD16C,0.01*%
G04 APERTURE END LIST*
G54D10*
G54D11*
X84290Y-56700D03*
X83109Y-56700D03*
G54D10*
G36*
X83007Y-61221D02*
X83302Y-61328D01*
X83194Y-61624D01*
X82899Y-61516D01*
X83007Y-61221D01*
X83007Y-61221D01*
G37*
G36*
X82805Y-61775D02*
X83100Y-61883D01*
X82992Y-62178D01*
X82697Y-62071D01*
X82805Y-61775D01*
X82805Y-61775D01*
G37*
G36*
X79089Y-59854D02*
X79329Y-59652D01*
X79531Y-59893D01*
X79291Y-60095D01*
X79089Y-59854D01*
X79089Y-59854D01*
G37*
G36*
X79468Y-60306D02*
X79708Y-60104D01*
X79910Y-60345D01*
X79670Y-60547D01*
X79468Y-60306D01*
X79468Y-60306D01*
G37*
G36*
X76743Y-62766D02*
X76876Y-63051D01*
X76591Y-63183D01*
X76458Y-62899D01*
X76743Y-62766D01*
X76743Y-62766D01*
G37*
G36*
X76208Y-63016D02*
X76341Y-63300D01*
X76056Y-63433D01*
X75923Y-63148D01*
X76208Y-63016D01*
X76208Y-63016D01*
G37*
G36*
X76134Y-62277D02*
X75831Y-62195D01*
X75912Y-61892D01*
X76215Y-61973D01*
X76134Y-62277D01*
X76134Y-62277D01*
G37*
G36*
X76287Y-61707D02*
X75984Y-61626D01*
X76065Y-61322D01*
X76368Y-61404D01*
X76287Y-61707D01*
X76287Y-61707D01*
G37*
G36*
X77165Y-57722D02*
X77468Y-57804D01*
X77387Y-58107D01*
X77084Y-58026D01*
X77165Y-57722D01*
X77165Y-57722D01*
G37*
G36*
X77012Y-58292D02*
X77315Y-58373D01*
X77234Y-58677D01*
X76931Y-58595D01*
X77012Y-58292D01*
X77012Y-58292D01*
G37*
G36*
X76565Y-59622D02*
X76868Y-59704D01*
X76787Y-60007D01*
X76484Y-59926D01*
X76565Y-59622D01*
X76565Y-59622D01*
G37*
G36*
X76412Y-60192D02*
X76715Y-60273D01*
X76634Y-60577D01*
X76331Y-60495D01*
X76412Y-60192D01*
X76412Y-60192D01*
G37*
G36*
X78456Y-62233D02*
X78323Y-61948D01*
X78608Y-61816D01*
X78741Y-62100D01*
X78456Y-62233D01*
X78456Y-62233D01*
G37*
G36*
X78991Y-61983D02*
X78858Y-61699D01*
X79143Y-61566D01*
X79276Y-61851D01*
X78991Y-61983D01*
X78991Y-61983D01*
G37*
G36*
X79756Y-61633D02*
X79623Y-61348D01*
X79908Y-61216D01*
X80041Y-61500D01*
X79756Y-61633D01*
X79756Y-61633D01*
G37*
G36*
X80291Y-61383D02*
X80158Y-61099D01*
X80443Y-60966D01*
X80576Y-61251D01*
X80291Y-61383D01*
X80291Y-61383D01*
G37*
G36*
X86080Y-59889D02*
X86337Y-60069D01*
X86157Y-60327D01*
X85900Y-60146D01*
X86080Y-59889D01*
X86080Y-59889D01*
G37*
G36*
X85742Y-60372D02*
X85999Y-60553D01*
X85819Y-60810D01*
X85562Y-60630D01*
X85742Y-60372D01*
X85742Y-60372D01*
G37*
G36*
X82112Y-62638D02*
X82269Y-62909D01*
X81998Y-63066D01*
X81841Y-62795D01*
X82112Y-62638D01*
X82112Y-62638D01*
G37*
G36*
X81601Y-62933D02*
X81758Y-63204D01*
X81487Y-63361D01*
X81330Y-63090D01*
X81601Y-62933D01*
X81601Y-62933D01*
G37*
G36*
X77889Y-58454D02*
X78129Y-58252D01*
X78331Y-58493D01*
X78091Y-58695D01*
X77889Y-58454D01*
X77889Y-58454D01*
G37*
G36*
X78268Y-58906D02*
X78508Y-58704D01*
X78710Y-58945D01*
X78470Y-59147D01*
X78268Y-58906D01*
X78268Y-58906D01*
G37*
G54D12*
X79805Y-63400D03*
X80395Y-63400D03*
G54D10*
G36*
X78130Y-63009D02*
X78287Y-62738D01*
X78558Y-62895D01*
X78401Y-63166D01*
X78130Y-63009D01*
X78130Y-63009D01*
G37*
G36*
X78641Y-63304D02*
X78798Y-63033D01*
X79069Y-63190D01*
X78912Y-63461D01*
X78641Y-63304D01*
X78641Y-63304D01*
G37*
G36*
X80836Y-59004D02*
X80863Y-59317D01*
X80551Y-59344D01*
X80523Y-59031D01*
X80836Y-59004D01*
X80836Y-59004D01*
G37*
G36*
X80248Y-59055D02*
X80276Y-59368D01*
X79963Y-59395D01*
X79936Y-59082D01*
X80248Y-59055D01*
X80248Y-59055D01*
G37*
G36*
X83402Y-60571D02*
X83107Y-60678D01*
X82999Y-60383D01*
X83294Y-60275D01*
X83402Y-60571D01*
X83402Y-60571D01*
G37*
G36*
X83200Y-60016D02*
X82905Y-60124D01*
X82797Y-59828D01*
X83092Y-59721D01*
X83200Y-60016D01*
X83200Y-60016D01*
G37*
G36*
X77809Y-60869D02*
X77538Y-60712D01*
X77695Y-60441D01*
X77966Y-60598D01*
X77809Y-60869D01*
X77809Y-60869D01*
G37*
G36*
X78104Y-60358D02*
X77833Y-60201D01*
X77990Y-59930D01*
X78261Y-60087D01*
X78104Y-60358D01*
X78104Y-60358D01*
G37*
G36*
X77902Y-62471D02*
X77607Y-62578D01*
X77499Y-62283D01*
X77794Y-62175D01*
X77902Y-62471D01*
X77902Y-62471D01*
G37*
G36*
X77700Y-61916D02*
X77405Y-62024D01*
X77297Y-61728D01*
X77592Y-61621D01*
X77700Y-61916D01*
X77700Y-61916D01*
G37*
G36*
X84439Y-59069D02*
X84619Y-58812D01*
X84877Y-58992D01*
X84696Y-59249D01*
X84439Y-59069D01*
X84439Y-59069D01*
G37*
G36*
X84922Y-59407D02*
X85103Y-59150D01*
X85360Y-59330D01*
X85180Y-59587D01*
X84922Y-59407D01*
X84922Y-59407D01*
G37*
G36*
X84919Y-62110D02*
X84662Y-61930D01*
X84842Y-61672D01*
X85099Y-61853D01*
X84919Y-62110D01*
X84919Y-62110D01*
G37*
G36*
X85257Y-61627D02*
X85000Y-61446D01*
X85180Y-61189D01*
X85437Y-61369D01*
X85257Y-61627D01*
X85257Y-61627D01*
G37*
G36*
X83969Y-63460D02*
X83712Y-63280D01*
X83892Y-63022D01*
X84149Y-63203D01*
X83969Y-63460D01*
X83969Y-63460D01*
G37*
G36*
X84307Y-62977D02*
X84050Y-62796D01*
X84230Y-62539D01*
X84487Y-62719D01*
X84307Y-62977D01*
X84307Y-62977D01*
G37*
G36*
X82330Y-58439D02*
X82587Y-58619D01*
X82407Y-58877D01*
X82150Y-58696D01*
X82330Y-58439D01*
X82330Y-58439D01*
G37*
G36*
X81992Y-58922D02*
X82249Y-59103D01*
X82069Y-59360D01*
X81812Y-59180D01*
X81992Y-58922D01*
X81992Y-58922D01*
G37*
G36*
X83860Y-58330D02*
X83680Y-58587D01*
X83422Y-58407D01*
X83603Y-58150D01*
X83860Y-58330D01*
X83860Y-58330D01*
G37*
G36*
X83377Y-57992D02*
X83196Y-58249D01*
X82939Y-58069D01*
X83119Y-57812D01*
X83377Y-57992D01*
X83377Y-57992D01*
G37*
G36*
X81169Y-60660D02*
X80912Y-60480D01*
X81092Y-60222D01*
X81349Y-60403D01*
X81169Y-60660D01*
X81169Y-60660D01*
G37*
G36*
X81507Y-60177D02*
X81250Y-59996D01*
X81430Y-59739D01*
X81687Y-59919D01*
X81507Y-60177D01*
X81507Y-60177D01*
G37*
G36*
X82060Y-61730D02*
X81880Y-61987D01*
X81622Y-61807D01*
X81803Y-61550D01*
X82060Y-61730D01*
X82060Y-61730D01*
G37*
G36*
X81577Y-61392D02*
X81396Y-61649D01*
X81139Y-61469D01*
X81319Y-61212D01*
X81577Y-61392D01*
X81577Y-61392D01*
G37*
G54D13*
X82250Y-60800D03*
G54D14*
X82250Y-63950D03*
X84100Y-64000D03*
X81850Y-60950D03*
X85800Y-59850D03*
X86550Y-61450D03*
X82100Y-57250D03*
X79350Y-56400D03*
X83950Y-58100D03*
X80800Y-57950D03*
X77900Y-56450D03*
X81300Y-64400D03*
X84450Y-62250D03*
X78900Y-57800D03*
X81700Y-57400D03*
X85650Y-63600D03*
X85550Y-57600D03*
X83700Y-56675D03*
X85300Y-63300D03*
X78650Y-64275D03*
X78750Y-56975D03*
X81025Y-57050D03*
X83850Y-59700D03*
X83325Y-57575D03*
X84425Y-59950D03*
X86850Y-60275D03*
X87400Y-60975D03*
X86450Y-61925D03*
X79550Y-64700D03*
X73900Y-59000D03*
X83700Y-62050D03*
X83450Y-59850D03*
X84050Y-60450D03*
X85450Y-62500D03*
X86050Y-61500D03*
X81450Y-62100D03*
X82350Y-61850D03*
X78200Y-56700D03*
X81350Y-59400D03*
X81150Y-62400D03*
X82650Y-58100D03*
G54D15*
X84050Y-63950D02*
X82250Y-63950D01*
X84100Y-64000D02*
X84050Y-63950D01*
X82000Y-60800D02*
X82250Y-60800D01*
X81850Y-60950D02*
X82000Y-60800D01*
X85800Y-59850D02*
X86000Y-59650D01*
X86000Y-59650D02*
X86200Y-59650D01*
X86200Y-59650D02*
X86550Y-60000D01*
X86550Y-60000D02*
X86550Y-61450D01*
X79000Y-56700D02*
X78575Y-56700D01*
X78110Y-57164D02*
X78110Y-57589D01*
X78575Y-56700D02*
X78110Y-57164D01*
X83641Y-58369D02*
X83641Y-58133D01*
X82175Y-57325D02*
X82100Y-57250D01*
X83550Y-57325D02*
X82175Y-57325D01*
X83700Y-57475D02*
X83550Y-57325D01*
X83700Y-58075D02*
X83700Y-57475D01*
X83641Y-58133D02*
X83700Y-58075D01*
X83200Y-60477D02*
X83422Y-60477D01*
X84658Y-59241D02*
X84658Y-59030D01*
X83422Y-60477D02*
X84658Y-59241D01*
X78110Y-58474D02*
X78110Y-57589D01*
X79000Y-56700D02*
X81550Y-56700D01*
X81550Y-56700D02*
X82100Y-57250D01*
X83200Y-60477D02*
X83200Y-61322D01*
X83200Y-61322D02*
X83100Y-61422D01*
X84658Y-59030D02*
X84303Y-59030D01*
X84303Y-59030D02*
X83641Y-58369D01*
X77276Y-57915D02*
X77551Y-57915D01*
X77551Y-57915D02*
X78110Y-58474D01*
X81850Y-56400D02*
X79350Y-56400D01*
X82600Y-57150D02*
X81850Y-56400D01*
X83700Y-57150D02*
X82600Y-57150D01*
X83950Y-57400D02*
X83700Y-57150D01*
X83950Y-58100D02*
X83950Y-57400D01*
X78675Y-63875D02*
X81825Y-63875D01*
X82458Y-63241D02*
X83930Y-63241D01*
X81825Y-63875D02*
X82458Y-63241D01*
X78675Y-63875D02*
X78550Y-63750D01*
X80950Y-60750D02*
X80950Y-60800D01*
X80950Y-60800D02*
X80950Y-60750D01*
X80450Y-60250D02*
X80950Y-60750D01*
X80450Y-59600D02*
X80450Y-60250D01*
X80450Y-59600D02*
X80350Y-58850D01*
X80800Y-57950D02*
X80350Y-58400D01*
X80350Y-58400D02*
X80350Y-58850D01*
X80950Y-60750D02*
X80950Y-61600D01*
X81841Y-61769D02*
X81530Y-61769D01*
X81530Y-61769D02*
X81500Y-61800D01*
X81500Y-61800D02*
X81150Y-61800D01*
X81150Y-61800D02*
X80950Y-61600D01*
X78344Y-63544D02*
X78344Y-62952D01*
X78550Y-63750D02*
X78344Y-63544D01*
X78675Y-63875D02*
X78600Y-63800D01*
X78600Y-63800D02*
X78550Y-63750D01*
X78344Y-62952D02*
X78397Y-62952D01*
X81841Y-62258D02*
X81841Y-61769D01*
X81250Y-62850D02*
X81841Y-62258D01*
X78500Y-62850D02*
X80850Y-62850D01*
X80850Y-62850D02*
X81250Y-62850D01*
X78397Y-62952D02*
X78500Y-62850D01*
X78344Y-62952D02*
X78276Y-62952D01*
X78276Y-62952D02*
X77700Y-62377D01*
X77700Y-62377D02*
X78180Y-62377D01*
X78180Y-62377D02*
X78532Y-62024D01*
X76667Y-62975D02*
X77102Y-62975D01*
X77102Y-62975D02*
X77700Y-62377D01*
X81300Y-64400D02*
X79414Y-64400D01*
X76789Y-64539D02*
X76650Y-64400D01*
X79275Y-64539D02*
X76789Y-64539D01*
X79414Y-64400D02*
X79275Y-64539D01*
X77900Y-56450D02*
X77900Y-56500D01*
X77900Y-56500D02*
X75450Y-58950D01*
X75450Y-63200D02*
X75450Y-58950D01*
X76650Y-64400D02*
X75450Y-63200D01*
X84300Y-64400D02*
X81300Y-64400D01*
X84700Y-64000D02*
X84300Y-64400D01*
X84700Y-62500D02*
X84700Y-64000D01*
X84450Y-62250D02*
X84700Y-62500D01*
X79300Y-57400D02*
X78900Y-57800D01*
X80950Y-57400D02*
X79300Y-57400D01*
X81700Y-57400D02*
X80950Y-57400D01*
X85650Y-58600D02*
X85550Y-58500D01*
X85650Y-58600D02*
X85700Y-58650D01*
X85650Y-62800D02*
X85650Y-63600D01*
X86150Y-62300D02*
X85650Y-62800D01*
X86500Y-62300D02*
X86150Y-62300D01*
X87100Y-61700D02*
X86500Y-62300D01*
X87100Y-60050D02*
X87100Y-61700D01*
X85700Y-58650D02*
X87100Y-60050D01*
X85550Y-58500D02*
X85550Y-57600D01*
X83250Y-59050D02*
X82425Y-59050D01*
X82425Y-59050D02*
X82000Y-58750D01*
X83700Y-62050D02*
X83275Y-61825D01*
X83275Y-61825D02*
X82750Y-61600D01*
X83850Y-59700D02*
X83675Y-59975D01*
X83675Y-59975D02*
X83475Y-60175D01*
X80075Y-63700D02*
X79250Y-63700D01*
X79250Y-63700D02*
X79250Y-63550D01*
X84350Y-63175D02*
X83875Y-62825D01*
X83700Y-62650D02*
X83875Y-62825D01*
X83700Y-62650D02*
X83700Y-62050D01*
X83700Y-62050D02*
X83375Y-62050D01*
X80100Y-63675D02*
X80100Y-63100D01*
X80075Y-63700D02*
X80100Y-63675D01*
X81725Y-63700D02*
X80075Y-63700D01*
X83375Y-62050D02*
X81725Y-63700D01*
X84250Y-64700D02*
X85300Y-63650D01*
X85300Y-63650D02*
X85300Y-63300D01*
X84250Y-64700D02*
X79550Y-64700D01*
X77633Y-60254D02*
X77575Y-58675D01*
X77475Y-58275D02*
X76925Y-58125D01*
X77575Y-58675D02*
X77475Y-58275D01*
X78979Y-60927D02*
X78125Y-60525D01*
X78125Y-60525D02*
X77633Y-60254D01*
X77633Y-60254D02*
X77625Y-60250D01*
X78675Y-61600D02*
X78979Y-60927D01*
X78979Y-60927D02*
X79275Y-60275D01*
X79275Y-60275D02*
X79725Y-59900D01*
X77925Y-61975D02*
X78675Y-61600D01*
X77375Y-62175D02*
X77925Y-61975D01*
X76322Y-62471D02*
X77375Y-62175D01*
X78675Y-61600D02*
X78950Y-62225D01*
X76275Y-62825D02*
X76322Y-62471D01*
X76322Y-62471D02*
X76400Y-61900D01*
X78650Y-64275D02*
X77450Y-64275D01*
X77450Y-64275D02*
X76525Y-63350D01*
X76275Y-62825D02*
X76525Y-63350D01*
X76400Y-61900D02*
X75800Y-61700D01*
X78750Y-56975D02*
X80950Y-56975D01*
X80950Y-56975D02*
X81025Y-57050D01*
X83525Y-58000D02*
X83525Y-57775D01*
X83250Y-59100D02*
X83250Y-59050D01*
X83250Y-59050D02*
X83250Y-58425D01*
X83850Y-59700D02*
X83250Y-59100D01*
X83525Y-58000D02*
X83250Y-58425D01*
X83525Y-57775D02*
X83325Y-57575D01*
X84425Y-59950D02*
X84200Y-59950D01*
X83700Y-60450D02*
X83700Y-60500D01*
X84200Y-59950D02*
X83700Y-60450D01*
X86850Y-60275D02*
X86850Y-61525D01*
X87400Y-60975D02*
X87375Y-60975D01*
X86850Y-61525D02*
X86450Y-61925D01*
X76500Y-64700D02*
X79550Y-64700D01*
X75100Y-63300D02*
X76500Y-64700D01*
X75100Y-60200D02*
X75100Y-63300D01*
X73900Y-59000D02*
X75100Y-60200D01*
X83700Y-62050D02*
X83700Y-60500D01*
X83700Y-62050D02*
X83700Y-62000D01*
X83200Y-59550D02*
X81750Y-59550D01*
X81750Y-59550D02*
X81686Y-59486D01*
X85350Y-61850D02*
X84850Y-61500D01*
X83200Y-59550D02*
X83450Y-59800D01*
X83450Y-59800D02*
X83450Y-59850D01*
X84050Y-60450D02*
X84850Y-61250D01*
X84850Y-61250D02*
X84850Y-61500D01*
X85450Y-62500D02*
X85450Y-61950D01*
X85450Y-61950D02*
X85350Y-61850D01*
X81469Y-59958D02*
X81469Y-59703D01*
X81469Y-59703D02*
X81686Y-59486D01*
X81686Y-59486D02*
X82030Y-59141D01*
X82369Y-58658D02*
X82530Y-58658D01*
X82530Y-58658D02*
X83158Y-58030D01*
X85891Y-60591D02*
X85780Y-60591D01*
X86050Y-60750D02*
X85891Y-60591D01*
X86050Y-61500D02*
X86050Y-60750D01*
X85219Y-61408D02*
X85219Y-61153D01*
X85219Y-61153D02*
X85780Y-60591D01*
X84269Y-62758D02*
X84269Y-62519D01*
X84458Y-61891D02*
X84880Y-61891D01*
X84200Y-62150D02*
X84458Y-61891D01*
X84200Y-62450D02*
X84200Y-62150D01*
X84269Y-62519D02*
X84200Y-62450D01*
X81358Y-61430D02*
X81358Y-60669D01*
X81358Y-60669D02*
X81130Y-60441D01*
X77752Y-60655D02*
X77752Y-61569D01*
X77752Y-61569D02*
X77499Y-61822D01*
X80750Y-61750D02*
X80750Y-60850D01*
X81450Y-62100D02*
X81100Y-62100D01*
X81100Y-62100D02*
X80750Y-61750D01*
X80106Y-60206D02*
X80106Y-59225D01*
X80750Y-60850D02*
X80106Y-60206D01*
X78550Y-58500D02*
X78100Y-58850D01*
X78047Y-58902D02*
X78100Y-58850D01*
X78047Y-60144D02*
X78047Y-58902D01*
X79275Y-59225D02*
X78550Y-58500D01*
X79275Y-59225D02*
X80106Y-59225D01*
X81550Y-60350D02*
X81100Y-60050D01*
X81977Y-59922D02*
X81550Y-60350D01*
X82999Y-59922D02*
X81977Y-59922D01*
X80693Y-59643D02*
X81100Y-60050D01*
X80693Y-59643D02*
X80693Y-59174D01*
X81544Y-62805D02*
X81544Y-63147D01*
X82050Y-62300D02*
X81544Y-62805D01*
X82050Y-62150D02*
X82050Y-62300D01*
X82350Y-61850D02*
X82050Y-62150D01*
X80395Y-63400D02*
X81292Y-63400D01*
X81292Y-63400D02*
X81544Y-63147D01*
X78855Y-63247D02*
X79652Y-63247D01*
X79652Y-63247D02*
X79805Y-63400D01*
X78200Y-56700D02*
X77950Y-56700D01*
X77950Y-56700D02*
X76300Y-58350D01*
X76300Y-60161D02*
X76523Y-60384D01*
X76300Y-58350D02*
X76300Y-60161D01*
X76523Y-60384D02*
X76523Y-61167D01*
X76523Y-61167D02*
X76176Y-61515D01*
X76023Y-62084D02*
X76023Y-63115D01*
X76023Y-63115D02*
X76132Y-63224D01*
X77123Y-58484D02*
X77123Y-59367D01*
X77123Y-59367D02*
X76676Y-59815D01*
X82650Y-58100D02*
X81725Y-58100D01*
X81350Y-58475D02*
X81350Y-59400D01*
X81725Y-58100D02*
X81350Y-58475D01*
X80550Y-61357D02*
X80367Y-61175D01*
X81150Y-62400D02*
X80550Y-61800D01*
X80550Y-61800D02*
X80550Y-61357D01*
X79689Y-60325D02*
X79689Y-60497D01*
X79689Y-60497D02*
X80367Y-61175D01*
X79067Y-61775D02*
X79481Y-61775D01*
X79481Y-61775D02*
X79832Y-61424D01*
X86119Y-60108D02*
X85658Y-60108D01*
X85141Y-59591D02*
X85141Y-59369D01*
X85658Y-60108D02*
X85141Y-59591D01*
X82055Y-62852D02*
X82055Y-62820D01*
X82055Y-62820D02*
X82899Y-61977D01*
X78489Y-58925D02*
X78489Y-59053D01*
X78489Y-59053D02*
X79310Y-59874D01*
G54D10*
G36*
X76333Y-61089D02*
X76215Y-61207D01*
X76075Y-61170D01*
X76016Y-61177D01*
X75964Y-61207D01*
X75928Y-61255D01*
X75912Y-61312D01*
X75831Y-61615D01*
X75839Y-61675D01*
X75868Y-61726D01*
X75891Y-61744D01*
X75863Y-61747D01*
X75811Y-61777D01*
X75775Y-61824D01*
X75760Y-61882D01*
X75678Y-62185D01*
X75686Y-62244D01*
X75716Y-62296D01*
X75763Y-62333D01*
X75821Y-62348D01*
X75833Y-62351D01*
X75833Y-63025D01*
X75793Y-63069D01*
X75772Y-63125D01*
X75775Y-63184D01*
X75800Y-63239D01*
X75837Y-63319D01*
X75640Y-63121D01*
X75640Y-59028D01*
X76110Y-58558D01*
X76110Y-60161D01*
X76124Y-60234D01*
X76165Y-60295D01*
X76216Y-60346D01*
X76178Y-60485D01*
X76186Y-60544D01*
X76216Y-60596D01*
X76263Y-60633D01*
X76321Y-60648D01*
X76333Y-60651D01*
X76333Y-61089D01*
X76333Y-61089D01*
G37*
G54D16*
X76333Y-61089D02*
X76215Y-61207D01*
X76075Y-61170D01*
X76016Y-61177D01*
X75964Y-61207D01*
X75928Y-61255D01*
X75912Y-61312D01*
X75831Y-61615D01*
X75839Y-61675D01*
X75868Y-61726D01*
X75891Y-61744D01*
X75863Y-61747D01*
X75811Y-61777D01*
X75775Y-61824D01*
X75760Y-61882D01*
X75678Y-62185D01*
X75686Y-62244D01*
X75716Y-62296D01*
X75763Y-62333D01*
X75821Y-62348D01*
X75833Y-62351D01*
X75833Y-63025D01*
X75793Y-63069D01*
X75772Y-63125D01*
X75775Y-63184D01*
X75800Y-63239D01*
X75837Y-63319D01*
X75640Y-63121D01*
X75640Y-59028D01*
X76110Y-58558D01*
X76110Y-60161D01*
X76124Y-60234D01*
X76165Y-60295D01*
X76216Y-60346D01*
X76178Y-60485D01*
X76186Y-60544D01*
X76216Y-60596D01*
X76263Y-60633D01*
X76321Y-60648D01*
X76333Y-60651D01*
X76333Y-61089D01*
G54D10*
G36*
X76991Y-58144D02*
X76963Y-58147D01*
X76911Y-58177D01*
X76875Y-58224D01*
X76860Y-58282D01*
X76778Y-58585D01*
X76786Y-58644D01*
X76816Y-58696D01*
X76863Y-58733D01*
X76921Y-58748D01*
X76933Y-58751D01*
X76933Y-59289D01*
X76715Y-59507D01*
X76575Y-59470D01*
X76516Y-59477D01*
X76490Y-59493D01*
X76490Y-58428D01*
X76941Y-57976D01*
X76931Y-58015D01*
X76939Y-58075D01*
X76968Y-58126D01*
X76991Y-58144D01*
X76991Y-58144D01*
G37*
G54D16*
X76991Y-58144D02*
X76963Y-58147D01*
X76911Y-58177D01*
X76875Y-58224D01*
X76860Y-58282D01*
X76778Y-58585D01*
X76786Y-58644D01*
X76816Y-58696D01*
X76863Y-58733D01*
X76921Y-58748D01*
X76933Y-58751D01*
X76933Y-59289D01*
X76715Y-59507D01*
X76575Y-59470D01*
X76516Y-59477D01*
X76490Y-59493D01*
X76490Y-58428D01*
X76941Y-57976D01*
X76931Y-58015D01*
X76939Y-58075D01*
X76968Y-58126D01*
X76991Y-58144D01*
G54D10*
G36*
X77936Y-58744D02*
X77913Y-58768D01*
X77871Y-58829D01*
X77857Y-58902D01*
X77857Y-59859D01*
X77845Y-59880D01*
X77688Y-60152D01*
X77680Y-60211D01*
X77695Y-60269D01*
X77713Y-60292D01*
X77685Y-60288D01*
X77627Y-60303D01*
X77580Y-60340D01*
X77550Y-60391D01*
X77393Y-60663D01*
X77385Y-60722D01*
X77400Y-60780D01*
X77437Y-60827D01*
X77488Y-60857D01*
X77562Y-60900D01*
X77562Y-61473D01*
X77513Y-61490D01*
X77218Y-61598D01*
X77174Y-61638D01*
X77149Y-61692D01*
X77146Y-61752D01*
X77167Y-61808D01*
X77274Y-62103D01*
X77314Y-62147D01*
X77368Y-62172D01*
X77397Y-62173D01*
X77376Y-62192D01*
X77351Y-62246D01*
X77348Y-62306D01*
X77368Y-62362D01*
X77389Y-62419D01*
X77024Y-62785D01*
X76917Y-62785D01*
X76866Y-62676D01*
X76822Y-62636D01*
X76766Y-62615D01*
X76707Y-62618D01*
X76652Y-62643D01*
X76368Y-62775D01*
X76328Y-62819D01*
X76307Y-62875D01*
X76308Y-62904D01*
X76288Y-62885D01*
X76231Y-62864D01*
X76213Y-62865D01*
X76213Y-62404D01*
X76235Y-62392D01*
X76271Y-62344D01*
X76287Y-62287D01*
X76368Y-61984D01*
X76360Y-61924D01*
X76331Y-61873D01*
X76308Y-61855D01*
X76336Y-61852D01*
X76388Y-61822D01*
X76424Y-61775D01*
X76439Y-61717D01*
X76512Y-61447D01*
X76657Y-61302D01*
X76657Y-61302D01*
X76657Y-61302D01*
X76699Y-61240D01*
X76699Y-61240D01*
X76711Y-61179D01*
X76713Y-61167D01*
X76713Y-61167D01*
X76713Y-61167D01*
X76713Y-60704D01*
X76735Y-60692D01*
X76771Y-60644D01*
X76787Y-60587D01*
X76868Y-60284D01*
X76860Y-60224D01*
X76831Y-60173D01*
X76808Y-60155D01*
X76836Y-60152D01*
X76888Y-60122D01*
X76924Y-60075D01*
X76939Y-60017D01*
X77012Y-59747D01*
X77257Y-59502D01*
X77299Y-59440D01*
X77313Y-59367D01*
X77313Y-58804D01*
X77335Y-58792D01*
X77371Y-58744D01*
X77387Y-58687D01*
X77468Y-58384D01*
X77460Y-58324D01*
X77431Y-58273D01*
X77408Y-58255D01*
X77436Y-58252D01*
X77488Y-58222D01*
X77524Y-58175D01*
X77528Y-58160D01*
X77755Y-58387D01*
X77742Y-58411D01*
X77737Y-58471D01*
X77755Y-58528D01*
X77793Y-58573D01*
X77936Y-58744D01*
X77936Y-58744D01*
G37*
G54D16*
X77936Y-58744D02*
X77913Y-58768D01*
X77871Y-58829D01*
X77857Y-58902D01*
X77857Y-59859D01*
X77845Y-59880D01*
X77688Y-60152D01*
X77680Y-60211D01*
X77695Y-60269D01*
X77713Y-60292D01*
X77685Y-60288D01*
X77627Y-60303D01*
X77580Y-60340D01*
X77550Y-60391D01*
X77393Y-60663D01*
X77385Y-60722D01*
X77400Y-60780D01*
X77437Y-60827D01*
X77488Y-60857D01*
X77562Y-60900D01*
X77562Y-61473D01*
X77513Y-61490D01*
X77218Y-61598D01*
X77174Y-61638D01*
X77149Y-61692D01*
X77146Y-61752D01*
X77167Y-61808D01*
X77274Y-62103D01*
X77314Y-62147D01*
X77368Y-62172D01*
X77397Y-62173D01*
X77376Y-62192D01*
X77351Y-62246D01*
X77348Y-62306D01*
X77368Y-62362D01*
X77389Y-62419D01*
X77024Y-62785D01*
X76917Y-62785D01*
X76866Y-62676D01*
X76822Y-62636D01*
X76766Y-62615D01*
X76707Y-62618D01*
X76652Y-62643D01*
X76368Y-62775D01*
X76328Y-62819D01*
X76307Y-62875D01*
X76308Y-62904D01*
X76288Y-62885D01*
X76231Y-62864D01*
X76213Y-62865D01*
X76213Y-62404D01*
X76235Y-62392D01*
X76271Y-62344D01*
X76287Y-62287D01*
X76368Y-61984D01*
X76360Y-61924D01*
X76331Y-61873D01*
X76308Y-61855D01*
X76336Y-61852D01*
X76388Y-61822D01*
X76424Y-61775D01*
X76439Y-61717D01*
X76512Y-61447D01*
X76657Y-61302D01*
X76657Y-61302D01*
X76657Y-61302D01*
X76699Y-61240D01*
X76699Y-61240D01*
X76711Y-61179D01*
X76713Y-61167D01*
X76713Y-61167D01*
X76713Y-61167D01*
X76713Y-60704D01*
X76735Y-60692D01*
X76771Y-60644D01*
X76787Y-60587D01*
X76868Y-60284D01*
X76860Y-60224D01*
X76831Y-60173D01*
X76808Y-60155D01*
X76836Y-60152D01*
X76888Y-60122D01*
X76924Y-60075D01*
X76939Y-60017D01*
X77012Y-59747D01*
X77257Y-59502D01*
X77299Y-59440D01*
X77313Y-59367D01*
X77313Y-58804D01*
X77335Y-58792D01*
X77371Y-58744D01*
X77387Y-58687D01*
X77468Y-58384D01*
X77460Y-58324D01*
X77431Y-58273D01*
X77408Y-58255D01*
X77436Y-58252D01*
X77488Y-58222D01*
X77524Y-58175D01*
X77528Y-58160D01*
X77755Y-58387D01*
X77742Y-58411D01*
X77737Y-58471D01*
X77755Y-58528D01*
X77793Y-58573D01*
X77936Y-58744D01*
G54D10*
G36*
X79565Y-63685D02*
X78753Y-63685D01*
X78734Y-63665D01*
X78734Y-63665D01*
X78684Y-63615D01*
X78684Y-63615D01*
X78534Y-63465D01*
X78534Y-63412D01*
X78540Y-63419D01*
X78591Y-63449D01*
X78863Y-63606D01*
X78922Y-63614D01*
X78980Y-63599D01*
X79027Y-63562D01*
X79057Y-63511D01*
X79100Y-63437D01*
X79497Y-63437D01*
X79497Y-63586D01*
X79520Y-63641D01*
X79562Y-63684D01*
X79565Y-63685D01*
X79565Y-63685D01*
G37*
G54D16*
X79565Y-63685D02*
X78753Y-63685D01*
X78734Y-63665D01*
X78734Y-63665D01*
X78684Y-63615D01*
X78684Y-63615D01*
X78534Y-63465D01*
X78534Y-63412D01*
X78540Y-63419D01*
X78591Y-63449D01*
X78863Y-63606D01*
X78922Y-63614D01*
X78980Y-63599D01*
X79027Y-63562D01*
X79057Y-63511D01*
X79100Y-63437D01*
X79497Y-63437D01*
X79497Y-63586D01*
X79520Y-63641D01*
X79562Y-63684D01*
X79565Y-63685D01*
G54D10*
G36*
X79916Y-60118D02*
X79804Y-59985D01*
X79751Y-59958D01*
X79692Y-59952D01*
X79665Y-59961D01*
X79678Y-59936D01*
X79683Y-59876D01*
X79665Y-59819D01*
X79627Y-59774D01*
X79425Y-59533D01*
X79372Y-59506D01*
X79313Y-59500D01*
X79256Y-59518D01*
X79238Y-59533D01*
X78784Y-59079D01*
X78825Y-59044D01*
X79141Y-59360D01*
X79141Y-59360D01*
X79203Y-59401D01*
X79275Y-59415D01*
X79814Y-59415D01*
X79816Y-59438D01*
X79844Y-59491D01*
X79889Y-59529D01*
X79916Y-59538D01*
X79916Y-60118D01*
X79916Y-60118D01*
G37*
G54D16*
X79916Y-60118D02*
X79804Y-59985D01*
X79751Y-59958D01*
X79692Y-59952D01*
X79665Y-59961D01*
X79678Y-59936D01*
X79683Y-59876D01*
X79665Y-59819D01*
X79627Y-59774D01*
X79425Y-59533D01*
X79372Y-59506D01*
X79313Y-59500D01*
X79256Y-59518D01*
X79238Y-59533D01*
X78784Y-59079D01*
X78825Y-59044D01*
X79141Y-59360D01*
X79141Y-59360D01*
X79203Y-59401D01*
X79275Y-59415D01*
X79814Y-59415D01*
X79816Y-59438D01*
X79844Y-59491D01*
X79889Y-59529D01*
X79916Y-59538D01*
X79916Y-60118D01*
G54D10*
G36*
X80008Y-61104D02*
X79988Y-61085D01*
X79931Y-61064D01*
X79872Y-61067D01*
X79818Y-61092D01*
X79533Y-61225D01*
X79493Y-61269D01*
X79472Y-61325D01*
X79475Y-61384D01*
X79500Y-61439D01*
X79516Y-61472D01*
X79403Y-61585D01*
X79317Y-61585D01*
X79266Y-61476D01*
X79222Y-61436D01*
X79166Y-61415D01*
X79107Y-61418D01*
X79052Y-61443D01*
X78768Y-61575D01*
X78728Y-61619D01*
X78707Y-61675D01*
X78708Y-61704D01*
X78688Y-61685D01*
X78631Y-61664D01*
X78572Y-61667D01*
X78518Y-61692D01*
X78233Y-61825D01*
X78193Y-61869D01*
X78172Y-61925D01*
X78175Y-61984D01*
X78200Y-62039D01*
X78216Y-62072D01*
X78101Y-62187D01*
X77958Y-62187D01*
X77925Y-62096D01*
X77885Y-62052D01*
X77831Y-62027D01*
X77802Y-62026D01*
X77823Y-62007D01*
X77848Y-61953D01*
X77851Y-61893D01*
X77831Y-61837D01*
X77810Y-61780D01*
X77886Y-61703D01*
X77886Y-61703D01*
X77886Y-61703D01*
X77928Y-61642D01*
X77942Y-61569D01*
X77942Y-60940D01*
X77954Y-60919D01*
X78111Y-60647D01*
X78119Y-60588D01*
X78104Y-60530D01*
X78086Y-60507D01*
X78114Y-60511D01*
X78172Y-60496D01*
X78219Y-60459D01*
X78249Y-60408D01*
X78406Y-60136D01*
X78414Y-60077D01*
X78399Y-60019D01*
X78362Y-59972D01*
X78311Y-59942D01*
X78237Y-59899D01*
X78237Y-59103D01*
X78374Y-59266D01*
X78427Y-59293D01*
X78464Y-59297D01*
X78955Y-59787D01*
X78942Y-59811D01*
X78937Y-59871D01*
X78955Y-59928D01*
X78993Y-59973D01*
X79195Y-60214D01*
X79248Y-60241D01*
X79307Y-60247D01*
X79334Y-60238D01*
X79321Y-60263D01*
X79316Y-60323D01*
X79334Y-60380D01*
X79372Y-60425D01*
X79574Y-60666D01*
X79606Y-60682D01*
X80007Y-61084D01*
X80008Y-61104D01*
X80008Y-61104D01*
G37*
G54D16*
X80008Y-61104D02*
X79988Y-61085D01*
X79931Y-61064D01*
X79872Y-61067D01*
X79818Y-61092D01*
X79533Y-61225D01*
X79493Y-61269D01*
X79472Y-61325D01*
X79475Y-61384D01*
X79500Y-61439D01*
X79516Y-61472D01*
X79403Y-61585D01*
X79317Y-61585D01*
X79266Y-61476D01*
X79222Y-61436D01*
X79166Y-61415D01*
X79107Y-61418D01*
X79052Y-61443D01*
X78768Y-61575D01*
X78728Y-61619D01*
X78707Y-61675D01*
X78708Y-61704D01*
X78688Y-61685D01*
X78631Y-61664D01*
X78572Y-61667D01*
X78518Y-61692D01*
X78233Y-61825D01*
X78193Y-61869D01*
X78172Y-61925D01*
X78175Y-61984D01*
X78200Y-62039D01*
X78216Y-62072D01*
X78101Y-62187D01*
X77958Y-62187D01*
X77925Y-62096D01*
X77885Y-62052D01*
X77831Y-62027D01*
X77802Y-62026D01*
X77823Y-62007D01*
X77848Y-61953D01*
X77851Y-61893D01*
X77831Y-61837D01*
X77810Y-61780D01*
X77886Y-61703D01*
X77886Y-61703D01*
X77886Y-61703D01*
X77928Y-61642D01*
X77942Y-61569D01*
X77942Y-60940D01*
X77954Y-60919D01*
X78111Y-60647D01*
X78119Y-60588D01*
X78104Y-60530D01*
X78086Y-60507D01*
X78114Y-60511D01*
X78172Y-60496D01*
X78219Y-60459D01*
X78249Y-60408D01*
X78406Y-60136D01*
X78414Y-60077D01*
X78399Y-60019D01*
X78362Y-59972D01*
X78311Y-59942D01*
X78237Y-59899D01*
X78237Y-59103D01*
X78374Y-59266D01*
X78427Y-59293D01*
X78464Y-59297D01*
X78955Y-59787D01*
X78942Y-59811D01*
X78937Y-59871D01*
X78955Y-59928D01*
X78993Y-59973D01*
X79195Y-60214D01*
X79248Y-60241D01*
X79307Y-60247D01*
X79334Y-60238D01*
X79321Y-60263D01*
X79316Y-60323D01*
X79334Y-60380D01*
X79372Y-60425D01*
X79574Y-60666D01*
X79606Y-60682D01*
X80007Y-61084D01*
X80008Y-61104D01*
G54D10*
G36*
X80155Y-63685D02*
X80045Y-63685D01*
X80046Y-63684D01*
X80089Y-63642D01*
X80099Y-63615D01*
X80110Y-63641D01*
X80152Y-63684D01*
X80155Y-63685D01*
X80155Y-63685D01*
G37*
G54D16*
X80155Y-63685D02*
X80045Y-63685D01*
X80046Y-63684D01*
X80089Y-63642D01*
X80099Y-63615D01*
X80110Y-63641D01*
X80152Y-63684D01*
X80155Y-63685D01*
G54D10*
G36*
X81072Y-62660D02*
X80850Y-62660D01*
X78500Y-62660D01*
X78464Y-62667D01*
X78336Y-62593D01*
X78277Y-62585D01*
X78219Y-62600D01*
X78204Y-62612D01*
X78159Y-62567D01*
X78180Y-62567D01*
X78252Y-62552D01*
X78314Y-62511D01*
X78441Y-62384D01*
X78492Y-62381D01*
X78547Y-62356D01*
X78831Y-62224D01*
X78871Y-62180D01*
X78892Y-62124D01*
X78891Y-62095D01*
X78911Y-62114D01*
X78968Y-62135D01*
X79027Y-62132D01*
X79081Y-62107D01*
X79366Y-61974D01*
X79374Y-61965D01*
X79481Y-61965D01*
X79554Y-61950D01*
X79616Y-61909D01*
X79741Y-61784D01*
X79792Y-61781D01*
X79847Y-61756D01*
X80131Y-61624D01*
X80171Y-61580D01*
X80192Y-61524D01*
X80191Y-61495D01*
X80211Y-61514D01*
X80268Y-61535D01*
X80327Y-61532D01*
X80360Y-61517D01*
X80360Y-61800D01*
X80374Y-61872D01*
X80415Y-61934D01*
X80880Y-62398D01*
X80879Y-62453D01*
X80920Y-62552D01*
X80996Y-62628D01*
X81072Y-62660D01*
X81072Y-62660D01*
G37*
G54D16*
X81072Y-62660D02*
X80850Y-62660D01*
X78500Y-62660D01*
X78464Y-62667D01*
X78336Y-62593D01*
X78277Y-62585D01*
X78219Y-62600D01*
X78204Y-62612D01*
X78159Y-62567D01*
X78180Y-62567D01*
X78252Y-62552D01*
X78314Y-62511D01*
X78441Y-62384D01*
X78492Y-62381D01*
X78547Y-62356D01*
X78831Y-62224D01*
X78871Y-62180D01*
X78892Y-62124D01*
X78891Y-62095D01*
X78911Y-62114D01*
X78968Y-62135D01*
X79027Y-62132D01*
X79081Y-62107D01*
X79366Y-61974D01*
X79374Y-61965D01*
X79481Y-61965D01*
X79554Y-61950D01*
X79616Y-61909D01*
X79741Y-61784D01*
X79792Y-61781D01*
X79847Y-61756D01*
X80131Y-61624D01*
X80171Y-61580D01*
X80192Y-61524D01*
X80191Y-61495D01*
X80211Y-61514D01*
X80268Y-61535D01*
X80327Y-61532D01*
X80360Y-61517D01*
X80360Y-61800D01*
X80374Y-61872D01*
X80415Y-61934D01*
X80880Y-62398D01*
X80879Y-62453D01*
X80920Y-62552D01*
X80996Y-62628D01*
X81072Y-62660D01*
G54D10*
G36*
X81221Y-63201D02*
X81213Y-63210D01*
X80700Y-63210D01*
X80679Y-63158D01*
X80637Y-63115D01*
X80581Y-63093D01*
X80522Y-63092D01*
X80208Y-63092D01*
X80153Y-63115D01*
X80110Y-63157D01*
X80100Y-63184D01*
X80089Y-63158D01*
X80047Y-63115D01*
X79991Y-63093D01*
X79932Y-63092D01*
X79756Y-63092D01*
X79725Y-63071D01*
X79652Y-63057D01*
X79140Y-63057D01*
X79119Y-63045D01*
X79110Y-63040D01*
X80850Y-63040D01*
X81188Y-63040D01*
X81177Y-63079D01*
X81185Y-63139D01*
X81214Y-63190D01*
X81221Y-63201D01*
X81221Y-63201D01*
G37*
G54D16*
X81221Y-63201D02*
X81213Y-63210D01*
X80700Y-63210D01*
X80679Y-63158D01*
X80637Y-63115D01*
X80581Y-63093D01*
X80522Y-63092D01*
X80208Y-63092D01*
X80153Y-63115D01*
X80110Y-63157D01*
X80100Y-63184D01*
X80089Y-63158D01*
X80047Y-63115D01*
X79991Y-63093D01*
X79932Y-63092D01*
X79756Y-63092D01*
X79725Y-63071D01*
X79652Y-63057D01*
X79140Y-63057D01*
X79119Y-63045D01*
X79110Y-63040D01*
X80850Y-63040D01*
X81188Y-63040D01*
X81177Y-63079D01*
X81185Y-63139D01*
X81214Y-63190D01*
X81221Y-63201D01*
G54D10*
G36*
X82172Y-64210D02*
X81491Y-64210D01*
X81453Y-64171D01*
X81353Y-64130D01*
X81246Y-64129D01*
X81147Y-64170D01*
X81108Y-64210D01*
X79414Y-64210D01*
X79342Y-64224D01*
X79280Y-64265D01*
X79280Y-64265D01*
X79196Y-64349D01*
X76868Y-64349D01*
X76784Y-64265D01*
X76784Y-64265D01*
X76098Y-63579D01*
X76147Y-63556D01*
X76431Y-63424D01*
X76471Y-63380D01*
X76492Y-63324D01*
X76491Y-63295D01*
X76511Y-63314D01*
X76568Y-63335D01*
X76627Y-63332D01*
X76681Y-63307D01*
X76966Y-63174D01*
X76974Y-63165D01*
X77102Y-63165D01*
X77175Y-63150D01*
X77237Y-63109D01*
X77617Y-62729D01*
X77630Y-62729D01*
X77686Y-62709D01*
X77743Y-62688D01*
X77996Y-62941D01*
X77985Y-62960D01*
X77977Y-63019D01*
X77992Y-63077D01*
X78029Y-63124D01*
X78080Y-63154D01*
X78154Y-63197D01*
X78154Y-63544D01*
X78168Y-63617D01*
X78210Y-63678D01*
X78415Y-63884D01*
X78415Y-63884D01*
X78465Y-63934D01*
X78465Y-63934D01*
X78540Y-64009D01*
X78540Y-64009D01*
X78602Y-64050D01*
X78662Y-64062D01*
X78674Y-64065D01*
X78674Y-64064D01*
X78675Y-64065D01*
X81825Y-64065D01*
X81897Y-64050D01*
X81959Y-64009D01*
X81979Y-63988D01*
X81979Y-64003D01*
X82020Y-64102D01*
X82096Y-64178D01*
X82172Y-64210D01*
X82172Y-64210D01*
G37*
G54D16*
X82172Y-64210D02*
X81491Y-64210D01*
X81453Y-64171D01*
X81353Y-64130D01*
X81246Y-64129D01*
X81147Y-64170D01*
X81108Y-64210D01*
X79414Y-64210D01*
X79342Y-64224D01*
X79280Y-64265D01*
X79280Y-64265D01*
X79196Y-64349D01*
X76868Y-64349D01*
X76784Y-64265D01*
X76784Y-64265D01*
X76098Y-63579D01*
X76147Y-63556D01*
X76431Y-63424D01*
X76471Y-63380D01*
X76492Y-63324D01*
X76491Y-63295D01*
X76511Y-63314D01*
X76568Y-63335D01*
X76627Y-63332D01*
X76681Y-63307D01*
X76966Y-63174D01*
X76974Y-63165D01*
X77102Y-63165D01*
X77175Y-63150D01*
X77237Y-63109D01*
X77617Y-62729D01*
X77630Y-62729D01*
X77686Y-62709D01*
X77743Y-62688D01*
X77996Y-62941D01*
X77985Y-62960D01*
X77977Y-63019D01*
X77992Y-63077D01*
X78029Y-63124D01*
X78080Y-63154D01*
X78154Y-63197D01*
X78154Y-63544D01*
X78168Y-63617D01*
X78210Y-63678D01*
X78415Y-63884D01*
X78415Y-63884D01*
X78465Y-63934D01*
X78465Y-63934D01*
X78540Y-64009D01*
X78540Y-64009D01*
X78602Y-64050D01*
X78662Y-64062D01*
X78674Y-64065D01*
X78674Y-64064D01*
X78675Y-64065D01*
X81825Y-64065D01*
X81897Y-64050D01*
X81959Y-64009D01*
X81979Y-63988D01*
X81979Y-64003D01*
X82020Y-64102D01*
X82096Y-64178D01*
X82172Y-64210D01*
G54D10*
G36*
X82315Y-58290D02*
X82275Y-58297D01*
X82224Y-58329D01*
X82190Y-58377D01*
X82010Y-58635D01*
X81997Y-58693D01*
X82007Y-58752D01*
X82023Y-58776D01*
X81995Y-58770D01*
X81936Y-58780D01*
X81886Y-58812D01*
X81852Y-58861D01*
X81672Y-59118D01*
X81659Y-59176D01*
X81669Y-59234D01*
X81601Y-59302D01*
X81579Y-59247D01*
X81540Y-59208D01*
X81540Y-58553D01*
X81803Y-58290D01*
X82315Y-58290D01*
X82315Y-58290D01*
G37*
G54D16*
X82315Y-58290D02*
X82275Y-58297D01*
X82224Y-58329D01*
X82190Y-58377D01*
X82010Y-58635D01*
X81997Y-58693D01*
X82007Y-58752D01*
X82023Y-58776D01*
X81995Y-58770D01*
X81936Y-58780D01*
X81886Y-58812D01*
X81852Y-58861D01*
X81672Y-59118D01*
X81659Y-59176D01*
X81669Y-59234D01*
X81601Y-59302D01*
X81579Y-59247D01*
X81540Y-59208D01*
X81540Y-58553D01*
X81803Y-58290D01*
X82315Y-58290D01*
G54D10*
G36*
X82823Y-61287D02*
X82748Y-61493D01*
X82751Y-61552D01*
X82776Y-61606D01*
X82797Y-61626D01*
X82769Y-61627D01*
X82714Y-61652D01*
X82674Y-61696D01*
X82654Y-61752D01*
X82620Y-61846D01*
X82620Y-61796D01*
X82579Y-61697D01*
X82503Y-61621D01*
X82403Y-61580D01*
X82296Y-61579D01*
X82197Y-61620D01*
X82179Y-61638D01*
X82170Y-61624D01*
X82122Y-61590D01*
X82010Y-61512D01*
X82100Y-61549D01*
X82398Y-61550D01*
X82674Y-61436D01*
X82823Y-61287D01*
X82823Y-61287D01*
G37*
G54D16*
X82823Y-61287D02*
X82748Y-61493D01*
X82751Y-61552D01*
X82776Y-61606D01*
X82797Y-61626D01*
X82769Y-61627D01*
X82714Y-61652D01*
X82674Y-61696D01*
X82654Y-61752D01*
X82620Y-61846D01*
X82620Y-61796D01*
X82579Y-61697D01*
X82503Y-61621D01*
X82403Y-61580D01*
X82296Y-61579D01*
X82197Y-61620D01*
X82179Y-61638D01*
X82170Y-61624D01*
X82122Y-61590D01*
X82010Y-61512D01*
X82100Y-61549D01*
X82398Y-61550D01*
X82674Y-61436D01*
X82823Y-61287D01*
G54D10*
G36*
X83510Y-57921D02*
X83487Y-57886D01*
X83438Y-57852D01*
X83181Y-57672D01*
X83123Y-57659D01*
X83064Y-57669D01*
X83014Y-57701D01*
X82979Y-57750D01*
X82857Y-57925D01*
X82803Y-57871D01*
X82703Y-57830D01*
X82596Y-57829D01*
X82497Y-57870D01*
X82458Y-57910D01*
X81725Y-57910D01*
X81652Y-57924D01*
X81590Y-57965D01*
X81590Y-57965D01*
X81215Y-58340D01*
X81174Y-58402D01*
X81160Y-58475D01*
X81160Y-59208D01*
X81121Y-59246D01*
X81080Y-59346D01*
X81079Y-59453D01*
X81120Y-59552D01*
X81196Y-59628D01*
X81286Y-59666D01*
X81281Y-59690D01*
X81169Y-59850D01*
X80883Y-59565D01*
X80883Y-59465D01*
X80906Y-59463D01*
X80959Y-59436D01*
X80997Y-59390D01*
X81015Y-59333D01*
X81010Y-59274D01*
X80983Y-58961D01*
X80955Y-58908D01*
X80910Y-58870D01*
X80853Y-58852D01*
X80793Y-58857D01*
X80545Y-58879D01*
X80540Y-58837D01*
X80540Y-58478D01*
X80798Y-58219D01*
X80853Y-58220D01*
X80952Y-58179D01*
X81028Y-58103D01*
X81069Y-58003D01*
X81070Y-57896D01*
X81029Y-57797D01*
X80953Y-57721D01*
X80853Y-57680D01*
X80746Y-57679D01*
X80647Y-57720D01*
X80571Y-57796D01*
X80530Y-57896D01*
X80529Y-57951D01*
X80215Y-58265D01*
X80174Y-58327D01*
X80160Y-58400D01*
X80160Y-58850D01*
X80162Y-58862D01*
X80161Y-58875D01*
X80166Y-58912D01*
X79893Y-58936D01*
X79840Y-58963D01*
X79802Y-59009D01*
X79793Y-59035D01*
X79354Y-59035D01*
X78684Y-58365D01*
X78663Y-58351D01*
X78643Y-58334D01*
X78632Y-58330D01*
X78622Y-58324D01*
X78598Y-58319D01*
X78573Y-58311D01*
X78560Y-58312D01*
X78550Y-58310D01*
X78526Y-58314D01*
X78499Y-58316D01*
X78488Y-58322D01*
X78477Y-58324D01*
X78457Y-58337D01*
X78433Y-58349D01*
X78417Y-58362D01*
X78300Y-58222D01*
X78300Y-57589D01*
X78300Y-57243D01*
X78653Y-56890D01*
X79000Y-56890D01*
X81471Y-56890D01*
X81711Y-57130D01*
X81646Y-57129D01*
X81547Y-57170D01*
X81508Y-57210D01*
X80950Y-57210D01*
X79300Y-57210D01*
X79299Y-57210D01*
X79285Y-57212D01*
X79227Y-57224D01*
X79165Y-57265D01*
X79165Y-57265D01*
X78901Y-57530D01*
X78846Y-57529D01*
X78747Y-57570D01*
X78671Y-57646D01*
X78630Y-57746D01*
X78629Y-57853D01*
X78670Y-57952D01*
X78746Y-58028D01*
X78846Y-58069D01*
X78953Y-58070D01*
X79052Y-58029D01*
X79128Y-57953D01*
X79169Y-57853D01*
X79170Y-57798D01*
X79378Y-57590D01*
X80950Y-57590D01*
X81508Y-57590D01*
X81546Y-57628D01*
X81646Y-57669D01*
X81753Y-57670D01*
X81852Y-57629D01*
X81928Y-57553D01*
X81957Y-57483D01*
X82046Y-57519D01*
X82153Y-57520D01*
X82168Y-57513D01*
X82175Y-57515D01*
X83471Y-57515D01*
X83510Y-57553D01*
X83510Y-57921D01*
X83510Y-57921D01*
G37*
G54D16*
X83510Y-57921D02*
X83487Y-57886D01*
X83438Y-57852D01*
X83181Y-57672D01*
X83123Y-57659D01*
X83064Y-57669D01*
X83014Y-57701D01*
X82979Y-57750D01*
X82857Y-57925D01*
X82803Y-57871D01*
X82703Y-57830D01*
X82596Y-57829D01*
X82497Y-57870D01*
X82458Y-57910D01*
X81725Y-57910D01*
X81652Y-57924D01*
X81590Y-57965D01*
X81590Y-57965D01*
X81215Y-58340D01*
X81174Y-58402D01*
X81160Y-58475D01*
X81160Y-59208D01*
X81121Y-59246D01*
X81080Y-59346D01*
X81079Y-59453D01*
X81120Y-59552D01*
X81196Y-59628D01*
X81286Y-59666D01*
X81281Y-59690D01*
X81169Y-59850D01*
X80883Y-59565D01*
X80883Y-59465D01*
X80906Y-59463D01*
X80959Y-59436D01*
X80997Y-59390D01*
X81015Y-59333D01*
X81010Y-59274D01*
X80983Y-58961D01*
X80955Y-58908D01*
X80910Y-58870D01*
X80853Y-58852D01*
X80793Y-58857D01*
X80545Y-58879D01*
X80540Y-58837D01*
X80540Y-58478D01*
X80798Y-58219D01*
X80853Y-58220D01*
X80952Y-58179D01*
X81028Y-58103D01*
X81069Y-58003D01*
X81070Y-57896D01*
X81029Y-57797D01*
X80953Y-57721D01*
X80853Y-57680D01*
X80746Y-57679D01*
X80647Y-57720D01*
X80571Y-57796D01*
X80530Y-57896D01*
X80529Y-57951D01*
X80215Y-58265D01*
X80174Y-58327D01*
X80160Y-58400D01*
X80160Y-58850D01*
X80162Y-58862D01*
X80161Y-58875D01*
X80166Y-58912D01*
X79893Y-58936D01*
X79840Y-58963D01*
X79802Y-59009D01*
X79793Y-59035D01*
X79354Y-59035D01*
X78684Y-58365D01*
X78663Y-58351D01*
X78643Y-58334D01*
X78632Y-58330D01*
X78622Y-58324D01*
X78598Y-58319D01*
X78573Y-58311D01*
X78560Y-58312D01*
X78550Y-58310D01*
X78526Y-58314D01*
X78499Y-58316D01*
X78488Y-58322D01*
X78477Y-58324D01*
X78457Y-58337D01*
X78433Y-58349D01*
X78417Y-58362D01*
X78300Y-58222D01*
X78300Y-57589D01*
X78300Y-57243D01*
X78653Y-56890D01*
X79000Y-56890D01*
X81471Y-56890D01*
X81711Y-57130D01*
X81646Y-57129D01*
X81547Y-57170D01*
X81508Y-57210D01*
X80950Y-57210D01*
X79300Y-57210D01*
X79299Y-57210D01*
X79285Y-57212D01*
X79227Y-57224D01*
X79165Y-57265D01*
X79165Y-57265D01*
X78901Y-57530D01*
X78846Y-57529D01*
X78747Y-57570D01*
X78671Y-57646D01*
X78630Y-57746D01*
X78629Y-57853D01*
X78670Y-57952D01*
X78746Y-58028D01*
X78846Y-58069D01*
X78953Y-58070D01*
X79052Y-58029D01*
X79128Y-57953D01*
X79169Y-57853D01*
X79170Y-57798D01*
X79378Y-57590D01*
X80950Y-57590D01*
X81508Y-57590D01*
X81546Y-57628D01*
X81646Y-57669D01*
X81753Y-57670D01*
X81852Y-57629D01*
X81928Y-57553D01*
X81957Y-57483D01*
X82046Y-57519D01*
X82153Y-57520D01*
X82168Y-57513D01*
X82175Y-57515D01*
X83471Y-57515D01*
X83510Y-57553D01*
X83510Y-57921D01*
G54D10*
G36*
X84403Y-59227D02*
X83714Y-59916D01*
X83719Y-59903D01*
X83720Y-59796D01*
X83679Y-59697D01*
X83603Y-59621D01*
X83503Y-59580D01*
X83498Y-59580D01*
X83334Y-59415D01*
X83272Y-59374D01*
X83200Y-59360D01*
X82252Y-59360D01*
X82389Y-59164D01*
X82402Y-59106D01*
X82392Y-59047D01*
X82376Y-59023D01*
X82404Y-59029D01*
X82463Y-59019D01*
X82513Y-58987D01*
X82547Y-58938D01*
X82636Y-58811D01*
X82665Y-58792D01*
X83095Y-58361D01*
X83135Y-58389D01*
X83193Y-58402D01*
X83252Y-58392D01*
X83276Y-58376D01*
X83270Y-58404D01*
X83280Y-58463D01*
X83312Y-58513D01*
X83361Y-58547D01*
X83618Y-58727D01*
X83676Y-58740D01*
X83734Y-58730D01*
X84168Y-59165D01*
X84230Y-59206D01*
X84303Y-59220D01*
X84394Y-59220D01*
X84403Y-59227D01*
X84403Y-59227D01*
G37*
G54D16*
X84403Y-59227D02*
X83714Y-59916D01*
X83719Y-59903D01*
X83720Y-59796D01*
X83679Y-59697D01*
X83603Y-59621D01*
X83503Y-59580D01*
X83498Y-59580D01*
X83334Y-59415D01*
X83272Y-59374D01*
X83200Y-59360D01*
X82252Y-59360D01*
X82389Y-59164D01*
X82402Y-59106D01*
X82392Y-59047D01*
X82376Y-59023D01*
X82404Y-59029D01*
X82463Y-59019D01*
X82513Y-58987D01*
X82547Y-58938D01*
X82636Y-58811D01*
X82665Y-58792D01*
X83095Y-58361D01*
X83135Y-58389D01*
X83193Y-58402D01*
X83252Y-58392D01*
X83276Y-58376D01*
X83270Y-58404D01*
X83280Y-58463D01*
X83312Y-58513D01*
X83361Y-58547D01*
X83618Y-58727D01*
X83676Y-58740D01*
X83734Y-58730D01*
X84168Y-59165D01*
X84230Y-59206D01*
X84303Y-59220D01*
X84394Y-59220D01*
X84403Y-59227D01*
G54D10*
G36*
X84510Y-63921D02*
X84364Y-64066D01*
X84369Y-64053D01*
X84370Y-63946D01*
X84329Y-63847D01*
X84253Y-63771D01*
X84153Y-63730D01*
X84046Y-63729D01*
X83973Y-63760D01*
X82441Y-63760D01*
X82403Y-63721D01*
X82303Y-63680D01*
X82288Y-63680D01*
X82537Y-63431D01*
X83666Y-63431D01*
X83907Y-63600D01*
X83965Y-63613D01*
X84024Y-63602D01*
X84075Y-63570D01*
X84109Y-63522D01*
X84289Y-63264D01*
X84302Y-63206D01*
X84292Y-63147D01*
X84276Y-63123D01*
X84304Y-63129D01*
X84363Y-63119D01*
X84413Y-63087D01*
X84447Y-63038D01*
X84510Y-62949D01*
X84510Y-63921D01*
X84510Y-63921D01*
G37*
G54D16*
X84510Y-63921D02*
X84364Y-64066D01*
X84369Y-64053D01*
X84370Y-63946D01*
X84329Y-63847D01*
X84253Y-63771D01*
X84153Y-63730D01*
X84046Y-63729D01*
X83973Y-63760D01*
X82441Y-63760D01*
X82403Y-63721D01*
X82303Y-63680D01*
X82288Y-63680D01*
X82537Y-63431D01*
X83666Y-63431D01*
X83907Y-63600D01*
X83965Y-63613D01*
X84024Y-63602D01*
X84075Y-63570D01*
X84109Y-63522D01*
X84289Y-63264D01*
X84302Y-63206D01*
X84292Y-63147D01*
X84276Y-63123D01*
X84304Y-63129D01*
X84363Y-63119D01*
X84413Y-63087D01*
X84447Y-63038D01*
X84510Y-62949D01*
X84510Y-63921D01*
G54D10*
G36*
X84700Y-61613D02*
X84639Y-61701D01*
X84458Y-61701D01*
X84385Y-61716D01*
X84323Y-61757D01*
X84323Y-61757D01*
X84065Y-62015D01*
X84024Y-62077D01*
X84010Y-62150D01*
X84010Y-62450D01*
X84024Y-62522D01*
X84041Y-62548D01*
X83910Y-62735D01*
X83897Y-62793D01*
X83907Y-62852D01*
X83923Y-62876D01*
X83895Y-62870D01*
X83836Y-62880D01*
X83786Y-62912D01*
X83752Y-62961D01*
X83689Y-63051D01*
X82458Y-63051D01*
X82385Y-63066D01*
X82323Y-63107D01*
X81746Y-63685D01*
X80635Y-63685D01*
X80636Y-63684D01*
X80679Y-63642D01*
X80700Y-63590D01*
X81292Y-63590D01*
X81364Y-63575D01*
X81426Y-63534D01*
X81452Y-63508D01*
X81476Y-63514D01*
X81536Y-63506D01*
X81587Y-63477D01*
X81859Y-63320D01*
X81896Y-63272D01*
X81911Y-63215D01*
X81907Y-63186D01*
X81930Y-63204D01*
X81987Y-63219D01*
X82047Y-63211D01*
X82098Y-63182D01*
X82370Y-63025D01*
X82407Y-62977D01*
X82422Y-62920D01*
X82414Y-62860D01*
X82385Y-62809D01*
X82366Y-62778D01*
X82856Y-62288D01*
X82969Y-62329D01*
X83029Y-62327D01*
X83083Y-62301D01*
X83123Y-62257D01*
X83144Y-62201D01*
X83251Y-61906D01*
X83248Y-61847D01*
X83223Y-61793D01*
X83202Y-61773D01*
X83230Y-61772D01*
X83285Y-61747D01*
X83325Y-61703D01*
X83345Y-61647D01*
X83453Y-61352D01*
X83450Y-61292D01*
X83425Y-61238D01*
X83390Y-61206D01*
X83390Y-60734D01*
X83481Y-60701D01*
X83525Y-60661D01*
X83544Y-60619D01*
X83557Y-60611D01*
X83785Y-60383D01*
X83780Y-60396D01*
X83779Y-60503D01*
X83820Y-60602D01*
X83896Y-60678D01*
X83996Y-60719D01*
X84051Y-60720D01*
X84660Y-61328D01*
X84660Y-61500D01*
X84663Y-61516D01*
X84662Y-61532D01*
X84670Y-61552D01*
X84674Y-61572D01*
X84683Y-61586D01*
X84689Y-61602D01*
X84700Y-61613D01*
X84700Y-61613D01*
G37*
G54D16*
X84700Y-61613D02*
X84639Y-61701D01*
X84458Y-61701D01*
X84385Y-61716D01*
X84323Y-61757D01*
X84323Y-61757D01*
X84065Y-62015D01*
X84024Y-62077D01*
X84010Y-62150D01*
X84010Y-62450D01*
X84024Y-62522D01*
X84041Y-62548D01*
X83910Y-62735D01*
X83897Y-62793D01*
X83907Y-62852D01*
X83923Y-62876D01*
X83895Y-62870D01*
X83836Y-62880D01*
X83786Y-62912D01*
X83752Y-62961D01*
X83689Y-63051D01*
X82458Y-63051D01*
X82385Y-63066D01*
X82323Y-63107D01*
X81746Y-63685D01*
X80635Y-63685D01*
X80636Y-63684D01*
X80679Y-63642D01*
X80700Y-63590D01*
X81292Y-63590D01*
X81364Y-63575D01*
X81426Y-63534D01*
X81452Y-63508D01*
X81476Y-63514D01*
X81536Y-63506D01*
X81587Y-63477D01*
X81859Y-63320D01*
X81896Y-63272D01*
X81911Y-63215D01*
X81907Y-63186D01*
X81930Y-63204D01*
X81987Y-63219D01*
X82047Y-63211D01*
X82098Y-63182D01*
X82370Y-63025D01*
X82407Y-62977D01*
X82422Y-62920D01*
X82414Y-62860D01*
X82385Y-62809D01*
X82366Y-62778D01*
X82856Y-62288D01*
X82969Y-62329D01*
X83029Y-62327D01*
X83083Y-62301D01*
X83123Y-62257D01*
X83144Y-62201D01*
X83251Y-61906D01*
X83248Y-61847D01*
X83223Y-61793D01*
X83202Y-61773D01*
X83230Y-61772D01*
X83285Y-61747D01*
X83325Y-61703D01*
X83345Y-61647D01*
X83453Y-61352D01*
X83450Y-61292D01*
X83425Y-61238D01*
X83390Y-61206D01*
X83390Y-60734D01*
X83481Y-60701D01*
X83525Y-60661D01*
X83544Y-60619D01*
X83557Y-60611D01*
X83785Y-60383D01*
X83780Y-60396D01*
X83779Y-60503D01*
X83820Y-60602D01*
X83896Y-60678D01*
X83996Y-60719D01*
X84051Y-60720D01*
X84660Y-61328D01*
X84660Y-61500D01*
X84663Y-61516D01*
X84662Y-61532D01*
X84670Y-61552D01*
X84674Y-61572D01*
X84683Y-61586D01*
X84689Y-61602D01*
X84700Y-61613D01*
G54D10*
G36*
X85617Y-60290D02*
X85602Y-60311D01*
X85422Y-60568D01*
X85409Y-60626D01*
X85419Y-60684D01*
X85084Y-61018D01*
X85043Y-61080D01*
X85031Y-61140D01*
X85016Y-61163D01*
X84984Y-61115D01*
X84984Y-61115D01*
X84319Y-60451D01*
X84320Y-60396D01*
X84279Y-60297D01*
X84203Y-60221D01*
X84103Y-60180D01*
X83996Y-60179D01*
X83983Y-60185D01*
X84771Y-59396D01*
X84770Y-59404D01*
X84780Y-59463D01*
X84812Y-59513D01*
X84861Y-59547D01*
X84956Y-59614D01*
X84966Y-59664D01*
X85007Y-59726D01*
X85523Y-60242D01*
X85523Y-60242D01*
X85585Y-60283D01*
X85617Y-60290D01*
X85617Y-60290D01*
G37*
G54D16*
X85617Y-60290D02*
X85602Y-60311D01*
X85422Y-60568D01*
X85409Y-60626D01*
X85419Y-60684D01*
X85084Y-61018D01*
X85043Y-61080D01*
X85031Y-61140D01*
X85016Y-61163D01*
X84984Y-61115D01*
X84984Y-61115D01*
X84319Y-60451D01*
X84320Y-60396D01*
X84279Y-60297D01*
X84203Y-60221D01*
X84103Y-60180D01*
X83996Y-60179D01*
X83983Y-60185D01*
X84771Y-59396D01*
X84770Y-59404D01*
X84780Y-59463D01*
X84812Y-59513D01*
X84861Y-59547D01*
X84956Y-59614D01*
X84966Y-59664D01*
X85007Y-59726D01*
X85523Y-60242D01*
X85523Y-60242D01*
X85585Y-60283D01*
X85617Y-60290D01*
G54D10*
G36*
X86104Y-63634D02*
X86093Y-63757D01*
X86045Y-63870D01*
X85948Y-64064D01*
X85945Y-64073D01*
X85940Y-64081D01*
X85860Y-64301D01*
X85860Y-64304D01*
X85858Y-64306D01*
X85820Y-64421D01*
X85800Y-64472D01*
X85685Y-64558D01*
X85566Y-64626D01*
X85319Y-64721D01*
X85318Y-64722D01*
X85316Y-64722D01*
X85116Y-64802D01*
X85104Y-64810D01*
X85089Y-64816D01*
X85076Y-64828D01*
X85061Y-64838D01*
X85053Y-64850D01*
X85041Y-64861D01*
X84941Y-65001D01*
X84933Y-65019D01*
X84923Y-65035D01*
X84920Y-65048D01*
X84914Y-65061D01*
X84914Y-65081D01*
X84910Y-65100D01*
X84910Y-65180D01*
X84916Y-65209D01*
X84921Y-65239D01*
X84975Y-65383D01*
X84990Y-65473D01*
X84990Y-65509D01*
X84980Y-65520D01*
X84974Y-65528D01*
X84967Y-65533D01*
X84952Y-65552D01*
X84870Y-65470D01*
X84738Y-65282D01*
X84733Y-65277D01*
X84730Y-65271D01*
X84630Y-65151D01*
X84611Y-65135D01*
X84594Y-65118D01*
X84474Y-65038D01*
X84468Y-65036D01*
X84464Y-65032D01*
X84324Y-64952D01*
X84313Y-64949D01*
X84304Y-64943D01*
X84282Y-64938D01*
X84261Y-64931D01*
X84250Y-64932D01*
X84240Y-64930D01*
X75039Y-64930D01*
X75038Y-64929D01*
X75031Y-64903D01*
X74971Y-64784D01*
X74961Y-64770D01*
X74952Y-64753D01*
X74898Y-64686D01*
X74892Y-64657D01*
X74907Y-64568D01*
X74906Y-64542D01*
X74908Y-64517D01*
X74905Y-64509D01*
X74905Y-64501D01*
X74895Y-64479D01*
X74886Y-64454D01*
X74881Y-64448D01*
X74878Y-64441D01*
X74861Y-64425D01*
X74843Y-64404D01*
X74835Y-64400D01*
X74829Y-64396D01*
X74809Y-64388D01*
X74783Y-64375D01*
X74354Y-64261D01*
X74782Y-62869D01*
X74784Y-62845D01*
X74789Y-62820D01*
X74789Y-62700D01*
X74789Y-62600D01*
X74789Y-62520D01*
X74788Y-62514D01*
X74789Y-62507D01*
X74781Y-62481D01*
X74776Y-62455D01*
X74773Y-62450D01*
X74771Y-62444D01*
X74751Y-62404D01*
X74745Y-62395D01*
X74741Y-62385D01*
X74725Y-62369D01*
X74711Y-62351D01*
X74701Y-62346D01*
X74694Y-62338D01*
X74673Y-62330D01*
X74653Y-62318D01*
X74643Y-62317D01*
X74633Y-62313D01*
X74628Y-62312D01*
X74629Y-62307D01*
X74621Y-62280D01*
X74616Y-62255D01*
X74613Y-62250D01*
X74611Y-62243D01*
X74571Y-62164D01*
X74555Y-62142D01*
X74539Y-62120D01*
X74534Y-62116D01*
X74531Y-62111D01*
X74507Y-62098D01*
X74484Y-62083D01*
X74478Y-62082D01*
X74473Y-62078D01*
X74446Y-62075D01*
X74420Y-62070D01*
X74427Y-62008D01*
X74465Y-61836D01*
X74465Y-61818D01*
X74469Y-61800D01*
X74469Y-61620D01*
X74469Y-61440D01*
X74463Y-61408D01*
X74457Y-61376D01*
X74377Y-61176D01*
X74374Y-61171D01*
X74371Y-61163D01*
X74151Y-60724D01*
X74146Y-60717D01*
X74143Y-60710D01*
X74043Y-60550D01*
X74035Y-60540D01*
X74028Y-60529D01*
X73918Y-60401D01*
X73857Y-60292D01*
X73789Y-60056D01*
X73789Y-59880D01*
X73785Y-59858D01*
X73784Y-59838D01*
X73727Y-59611D01*
X73708Y-59404D01*
X73707Y-59400D01*
X73707Y-59394D01*
X73697Y-59367D01*
X73690Y-59341D01*
X73687Y-59337D01*
X73685Y-59332D01*
X73625Y-59232D01*
X73610Y-59216D01*
X73598Y-59198D01*
X73588Y-59192D01*
X73580Y-59183D01*
X73561Y-59174D01*
X73543Y-59162D01*
X73475Y-59135D01*
X73442Y-59102D01*
X73315Y-58812D01*
X73309Y-58803D01*
X73305Y-58792D01*
X73245Y-58692D01*
X73239Y-58686D01*
X73235Y-58678D01*
X73209Y-58643D01*
X73209Y-58634D01*
X73247Y-58546D01*
X73373Y-58384D01*
X73376Y-58378D01*
X73381Y-58374D01*
X73390Y-58350D01*
X73403Y-58325D01*
X73404Y-58318D01*
X73406Y-58313D01*
X73426Y-58213D01*
X73426Y-58202D01*
X73429Y-58191D01*
X73448Y-57904D01*
X73485Y-57736D01*
X73486Y-57712D01*
X73489Y-57686D01*
X73469Y-57426D01*
X73466Y-57416D01*
X73466Y-57406D01*
X73426Y-57206D01*
X73422Y-57198D01*
X73421Y-57189D01*
X73410Y-57168D01*
X73401Y-57145D01*
X73394Y-57139D01*
X73390Y-57131D01*
X73290Y-57011D01*
X73271Y-56995D01*
X73269Y-56994D01*
X73269Y-56847D01*
X73287Y-56648D01*
X73304Y-56581D01*
X73304Y-56576D01*
X73306Y-56572D01*
X73306Y-56543D01*
X73307Y-56514D01*
X73306Y-56511D01*
X73306Y-56506D01*
X73286Y-56406D01*
X73280Y-56391D01*
X73276Y-56375D01*
X73273Y-56369D01*
X77640Y-56369D01*
X77630Y-56396D01*
X77629Y-56501D01*
X75315Y-58815D01*
X75274Y-58877D01*
X75260Y-58950D01*
X75260Y-63200D01*
X75274Y-63272D01*
X75315Y-63334D01*
X76515Y-64534D01*
X76515Y-64534D01*
X76655Y-64674D01*
X76655Y-64674D01*
X76717Y-64715D01*
X76789Y-64729D01*
X79275Y-64729D01*
X79347Y-64715D01*
X79409Y-64674D01*
X79493Y-64590D01*
X81108Y-64590D01*
X81146Y-64628D01*
X81246Y-64669D01*
X81353Y-64670D01*
X81452Y-64629D01*
X81491Y-64590D01*
X84300Y-64590D01*
X84372Y-64575D01*
X84434Y-64534D01*
X84834Y-64134D01*
X84834Y-64134D01*
X84834Y-64134D01*
X84875Y-64072D01*
X84875Y-64072D01*
X84887Y-64014D01*
X84890Y-64000D01*
X84889Y-64000D01*
X84890Y-64000D01*
X84890Y-62500D01*
X84875Y-62427D01*
X84834Y-62365D01*
X84834Y-62365D01*
X84719Y-62251D01*
X84720Y-62196D01*
X84695Y-62136D01*
X84857Y-62250D01*
X84915Y-62263D01*
X84974Y-62252D01*
X85025Y-62220D01*
X85059Y-62172D01*
X85197Y-61975D01*
X85227Y-61996D01*
X85260Y-62028D01*
X85260Y-62308D01*
X85221Y-62346D01*
X85180Y-62446D01*
X85179Y-62553D01*
X85220Y-62652D01*
X85296Y-62728D01*
X85396Y-62769D01*
X85465Y-62770D01*
X85460Y-62800D01*
X85460Y-63408D01*
X85421Y-63446D01*
X85380Y-63546D01*
X85379Y-63653D01*
X85420Y-63752D01*
X85496Y-63828D01*
X85596Y-63869D01*
X85703Y-63870D01*
X85802Y-63829D01*
X85878Y-63753D01*
X85919Y-63653D01*
X85920Y-63546D01*
X85899Y-63497D01*
X85917Y-63510D01*
X85938Y-63528D01*
X85941Y-63529D01*
X85944Y-63531D01*
X86072Y-63596D01*
X86104Y-63634D01*
X86104Y-63634D01*
G37*
G54D16*
X86104Y-63634D02*
X86093Y-63757D01*
X86045Y-63870D01*
X85948Y-64064D01*
X85945Y-64073D01*
X85940Y-64081D01*
X85860Y-64301D01*
X85860Y-64304D01*
X85858Y-64306D01*
X85820Y-64421D01*
X85800Y-64472D01*
X85685Y-64558D01*
X85566Y-64626D01*
X85319Y-64721D01*
X85318Y-64722D01*
X85316Y-64722D01*
X85116Y-64802D01*
X85104Y-64810D01*
X85089Y-64816D01*
X85076Y-64828D01*
X85061Y-64838D01*
X85053Y-64850D01*
X85041Y-64861D01*
X84941Y-65001D01*
X84933Y-65019D01*
X84923Y-65035D01*
X84920Y-65048D01*
X84914Y-65061D01*
X84914Y-65081D01*
X84910Y-65100D01*
X84910Y-65180D01*
X84916Y-65209D01*
X84921Y-65239D01*
X84975Y-65383D01*
X84990Y-65473D01*
X84990Y-65509D01*
X84980Y-65520D01*
X84974Y-65528D01*
X84967Y-65533D01*
X84952Y-65552D01*
X84870Y-65470D01*
X84738Y-65282D01*
X84733Y-65277D01*
X84730Y-65271D01*
X84630Y-65151D01*
X84611Y-65135D01*
X84594Y-65118D01*
X84474Y-65038D01*
X84468Y-65036D01*
X84464Y-65032D01*
X84324Y-64952D01*
X84313Y-64949D01*
X84304Y-64943D01*
X84282Y-64938D01*
X84261Y-64931D01*
X84250Y-64932D01*
X84240Y-64930D01*
X75039Y-64930D01*
X75038Y-64929D01*
X75031Y-64903D01*
X74971Y-64784D01*
X74961Y-64770D01*
X74952Y-64753D01*
X74898Y-64686D01*
X74892Y-64657D01*
X74907Y-64568D01*
X74906Y-64542D01*
X74908Y-64517D01*
X74905Y-64509D01*
X74905Y-64501D01*
X74895Y-64479D01*
X74886Y-64454D01*
X74881Y-64448D01*
X74878Y-64441D01*
X74861Y-64425D01*
X74843Y-64404D01*
X74835Y-64400D01*
X74829Y-64396D01*
X74809Y-64388D01*
X74783Y-64375D01*
X74354Y-64261D01*
X74782Y-62869D01*
X74784Y-62845D01*
X74789Y-62820D01*
X74789Y-62700D01*
X74789Y-62600D01*
X74789Y-62520D01*
X74788Y-62514D01*
X74789Y-62507D01*
X74781Y-62481D01*
X74776Y-62455D01*
X74773Y-62450D01*
X74771Y-62444D01*
X74751Y-62404D01*
X74745Y-62395D01*
X74741Y-62385D01*
X74725Y-62369D01*
X74711Y-62351D01*
X74701Y-62346D01*
X74694Y-62338D01*
X74673Y-62330D01*
X74653Y-62318D01*
X74643Y-62317D01*
X74633Y-62313D01*
X74628Y-62312D01*
X74629Y-62307D01*
X74621Y-62280D01*
X74616Y-62255D01*
X74613Y-62250D01*
X74611Y-62243D01*
X74571Y-62164D01*
X74555Y-62142D01*
X74539Y-62120D01*
X74534Y-62116D01*
X74531Y-62111D01*
X74507Y-62098D01*
X74484Y-62083D01*
X74478Y-62082D01*
X74473Y-62078D01*
X74446Y-62075D01*
X74420Y-62070D01*
X74427Y-62008D01*
X74465Y-61836D01*
X74465Y-61818D01*
X74469Y-61800D01*
X74469Y-61620D01*
X74469Y-61440D01*
X74463Y-61408D01*
X74457Y-61376D01*
X74377Y-61176D01*
X74374Y-61171D01*
X74371Y-61163D01*
X74151Y-60724D01*
X74146Y-60717D01*
X74143Y-60710D01*
X74043Y-60550D01*
X74035Y-60540D01*
X74028Y-60529D01*
X73918Y-60401D01*
X73857Y-60292D01*
X73789Y-60056D01*
X73789Y-59880D01*
X73785Y-59858D01*
X73784Y-59838D01*
X73727Y-59611D01*
X73708Y-59404D01*
X73707Y-59400D01*
X73707Y-59394D01*
X73697Y-59367D01*
X73690Y-59341D01*
X73687Y-59337D01*
X73685Y-59332D01*
X73625Y-59232D01*
X73610Y-59216D01*
X73598Y-59198D01*
X73588Y-59192D01*
X73580Y-59183D01*
X73561Y-59174D01*
X73543Y-59162D01*
X73475Y-59135D01*
X73442Y-59102D01*
X73315Y-58812D01*
X73309Y-58803D01*
X73305Y-58792D01*
X73245Y-58692D01*
X73239Y-58686D01*
X73235Y-58678D01*
X73209Y-58643D01*
X73209Y-58634D01*
X73247Y-58546D01*
X73373Y-58384D01*
X73376Y-58378D01*
X73381Y-58374D01*
X73390Y-58350D01*
X73403Y-58325D01*
X73404Y-58318D01*
X73406Y-58313D01*
X73426Y-58213D01*
X73426Y-58202D01*
X73429Y-58191D01*
X73448Y-57904D01*
X73485Y-57736D01*
X73486Y-57712D01*
X73489Y-57686D01*
X73469Y-57426D01*
X73466Y-57416D01*
X73466Y-57406D01*
X73426Y-57206D01*
X73422Y-57198D01*
X73421Y-57189D01*
X73410Y-57168D01*
X73401Y-57145D01*
X73394Y-57139D01*
X73390Y-57131D01*
X73290Y-57011D01*
X73271Y-56995D01*
X73269Y-56994D01*
X73269Y-56847D01*
X73287Y-56648D01*
X73304Y-56581D01*
X73304Y-56576D01*
X73306Y-56572D01*
X73306Y-56543D01*
X73307Y-56514D01*
X73306Y-56511D01*
X73306Y-56506D01*
X73286Y-56406D01*
X73280Y-56391D01*
X73276Y-56375D01*
X73273Y-56369D01*
X77640Y-56369D01*
X77630Y-56396D01*
X77629Y-56501D01*
X75315Y-58815D01*
X75274Y-58877D01*
X75260Y-58950D01*
X75260Y-63200D01*
X75274Y-63272D01*
X75315Y-63334D01*
X76515Y-64534D01*
X76515Y-64534D01*
X76655Y-64674D01*
X76655Y-64674D01*
X76717Y-64715D01*
X76789Y-64729D01*
X79275Y-64729D01*
X79347Y-64715D01*
X79409Y-64674D01*
X79493Y-64590D01*
X81108Y-64590D01*
X81146Y-64628D01*
X81246Y-64669D01*
X81353Y-64670D01*
X81452Y-64629D01*
X81491Y-64590D01*
X84300Y-64590D01*
X84372Y-64575D01*
X84434Y-64534D01*
X84834Y-64134D01*
X84834Y-64134D01*
X84834Y-64134D01*
X84875Y-64072D01*
X84875Y-64072D01*
X84887Y-64014D01*
X84890Y-64000D01*
X84889Y-64000D01*
X84890Y-64000D01*
X84890Y-62500D01*
X84875Y-62427D01*
X84834Y-62365D01*
X84834Y-62365D01*
X84719Y-62251D01*
X84720Y-62196D01*
X84695Y-62136D01*
X84857Y-62250D01*
X84915Y-62263D01*
X84974Y-62252D01*
X85025Y-62220D01*
X85059Y-62172D01*
X85197Y-61975D01*
X85227Y-61996D01*
X85260Y-62028D01*
X85260Y-62308D01*
X85221Y-62346D01*
X85180Y-62446D01*
X85179Y-62553D01*
X85220Y-62652D01*
X85296Y-62728D01*
X85396Y-62769D01*
X85465Y-62770D01*
X85460Y-62800D01*
X85460Y-63408D01*
X85421Y-63446D01*
X85380Y-63546D01*
X85379Y-63653D01*
X85420Y-63752D01*
X85496Y-63828D01*
X85596Y-63869D01*
X85703Y-63870D01*
X85802Y-63829D01*
X85878Y-63753D01*
X85919Y-63653D01*
X85920Y-63546D01*
X85899Y-63497D01*
X85917Y-63510D01*
X85938Y-63528D01*
X85941Y-63529D01*
X85944Y-63531D01*
X86072Y-63596D01*
X86104Y-63634D01*
G54D10*
G36*
X86251Y-59470D02*
X86200Y-59460D01*
X86000Y-59460D01*
X85927Y-59474D01*
X85865Y-59515D01*
X85865Y-59515D01*
X85801Y-59580D01*
X85746Y-59579D01*
X85647Y-59620D01*
X85571Y-59696D01*
X85554Y-59736D01*
X85381Y-59562D01*
X85500Y-59392D01*
X85513Y-59334D01*
X85502Y-59275D01*
X85470Y-59224D01*
X85422Y-59190D01*
X85164Y-59010D01*
X85106Y-58997D01*
X85047Y-59007D01*
X85023Y-59023D01*
X85029Y-58995D01*
X85019Y-58936D01*
X84987Y-58886D01*
X84938Y-58852D01*
X84681Y-58672D01*
X84623Y-58659D01*
X84617Y-58660D01*
X84617Y-56635D01*
X84568Y-56514D01*
X84476Y-56422D01*
X84355Y-56372D01*
X84225Y-56372D01*
X84105Y-56422D01*
X84013Y-56514D01*
X83963Y-56634D01*
X83963Y-56764D01*
X84013Y-56885D01*
X84104Y-56977D01*
X84225Y-57027D01*
X84355Y-57027D01*
X84475Y-56977D01*
X84567Y-56885D01*
X84617Y-56765D01*
X84617Y-56635D01*
X84617Y-58660D01*
X84564Y-58669D01*
X84514Y-58701D01*
X84479Y-58750D01*
X84416Y-58840D01*
X84381Y-58840D01*
X83972Y-58431D01*
X84000Y-58392D01*
X84005Y-58369D01*
X84102Y-58329D01*
X84178Y-58253D01*
X84219Y-58153D01*
X84220Y-58046D01*
X84179Y-57947D01*
X84140Y-57908D01*
X84140Y-57400D01*
X84125Y-57327D01*
X84084Y-57265D01*
X84084Y-57265D01*
X83834Y-57015D01*
X83772Y-56974D01*
X83700Y-56960D01*
X83312Y-56960D01*
X83386Y-56885D01*
X83436Y-56765D01*
X83436Y-56635D01*
X83386Y-56514D01*
X83295Y-56422D01*
X83174Y-56372D01*
X83044Y-56372D01*
X82924Y-56422D01*
X82832Y-56514D01*
X82782Y-56634D01*
X82782Y-56764D01*
X82831Y-56885D01*
X82906Y-56960D01*
X82678Y-56960D01*
X82088Y-56369D01*
X85277Y-56369D01*
X85286Y-56396D01*
X85310Y-56499D01*
X85310Y-56620D01*
X85314Y-56640D01*
X85315Y-56661D01*
X85355Y-56821D01*
X85361Y-56834D01*
X85364Y-56849D01*
X85445Y-57028D01*
X85451Y-57038D01*
X85456Y-57049D01*
X85556Y-57209D01*
X85565Y-57219D01*
X85572Y-57231D01*
X85689Y-57365D01*
X85603Y-57330D01*
X85496Y-57329D01*
X85397Y-57370D01*
X85321Y-57446D01*
X85280Y-57546D01*
X85279Y-57653D01*
X85320Y-57752D01*
X85360Y-57791D01*
X85360Y-58500D01*
X85374Y-58572D01*
X85415Y-58634D01*
X85515Y-58734D01*
X85565Y-58784D01*
X86251Y-59470D01*
X86251Y-59470D01*
G37*
G54D16*
X86251Y-59470D02*
X86200Y-59460D01*
X86000Y-59460D01*
X85927Y-59474D01*
X85865Y-59515D01*
X85865Y-59515D01*
X85801Y-59580D01*
X85746Y-59579D01*
X85647Y-59620D01*
X85571Y-59696D01*
X85554Y-59736D01*
X85381Y-59562D01*
X85500Y-59392D01*
X85513Y-59334D01*
X85502Y-59275D01*
X85470Y-59224D01*
X85422Y-59190D01*
X85164Y-59010D01*
X85106Y-58997D01*
X85047Y-59007D01*
X85023Y-59023D01*
X85029Y-58995D01*
X85019Y-58936D01*
X84987Y-58886D01*
X84938Y-58852D01*
X84681Y-58672D01*
X84623Y-58659D01*
X84617Y-58660D01*
X84617Y-56635D01*
X84568Y-56514D01*
X84476Y-56422D01*
X84355Y-56372D01*
X84225Y-56372D01*
X84105Y-56422D01*
X84013Y-56514D01*
X83963Y-56634D01*
X83963Y-56764D01*
X84013Y-56885D01*
X84104Y-56977D01*
X84225Y-57027D01*
X84355Y-57027D01*
X84475Y-56977D01*
X84567Y-56885D01*
X84617Y-56765D01*
X84617Y-56635D01*
X84617Y-58660D01*
X84564Y-58669D01*
X84514Y-58701D01*
X84479Y-58750D01*
X84416Y-58840D01*
X84381Y-58840D01*
X83972Y-58431D01*
X84000Y-58392D01*
X84005Y-58369D01*
X84102Y-58329D01*
X84178Y-58253D01*
X84219Y-58153D01*
X84220Y-58046D01*
X84179Y-57947D01*
X84140Y-57908D01*
X84140Y-57400D01*
X84125Y-57327D01*
X84084Y-57265D01*
X84084Y-57265D01*
X83834Y-57015D01*
X83772Y-56974D01*
X83700Y-56960D01*
X83312Y-56960D01*
X83386Y-56885D01*
X83436Y-56765D01*
X83436Y-56635D01*
X83386Y-56514D01*
X83295Y-56422D01*
X83174Y-56372D01*
X83044Y-56372D01*
X82924Y-56422D01*
X82832Y-56514D01*
X82782Y-56634D01*
X82782Y-56764D01*
X82831Y-56885D01*
X82906Y-56960D01*
X82678Y-56960D01*
X82088Y-56369D01*
X85277Y-56369D01*
X85286Y-56396D01*
X85310Y-56499D01*
X85310Y-56620D01*
X85314Y-56640D01*
X85315Y-56661D01*
X85355Y-56821D01*
X85361Y-56834D01*
X85364Y-56849D01*
X85445Y-57028D01*
X85451Y-57038D01*
X85456Y-57049D01*
X85556Y-57209D01*
X85565Y-57219D01*
X85572Y-57231D01*
X85689Y-57365D01*
X85603Y-57330D01*
X85496Y-57329D01*
X85397Y-57370D01*
X85321Y-57446D01*
X85280Y-57546D01*
X85279Y-57653D01*
X85320Y-57752D01*
X85360Y-57791D01*
X85360Y-58500D01*
X85374Y-58572D01*
X85415Y-58634D01*
X85515Y-58734D01*
X85565Y-58784D01*
X86251Y-59470D01*
G54D10*
G36*
X86910Y-61621D02*
X86421Y-62110D01*
X86150Y-62110D01*
X86077Y-62124D01*
X86015Y-62165D01*
X85720Y-62461D01*
X85720Y-62446D01*
X85679Y-62347D01*
X85640Y-62308D01*
X85640Y-61950D01*
X85625Y-61877D01*
X85584Y-61815D01*
X85484Y-61715D01*
X85470Y-61706D01*
X85458Y-61694D01*
X85415Y-61663D01*
X85577Y-61431D01*
X85590Y-61373D01*
X85580Y-61314D01*
X85548Y-61264D01*
X85499Y-61229D01*
X85447Y-61193D01*
X85718Y-60922D01*
X85757Y-60950D01*
X85815Y-60963D01*
X85860Y-60955D01*
X85860Y-61308D01*
X85821Y-61346D01*
X85780Y-61446D01*
X85779Y-61553D01*
X85820Y-61652D01*
X85896Y-61728D01*
X85996Y-61769D01*
X86103Y-61770D01*
X86202Y-61729D01*
X86278Y-61653D01*
X86310Y-61577D01*
X86320Y-61602D01*
X86396Y-61678D01*
X86496Y-61719D01*
X86603Y-61720D01*
X86702Y-61679D01*
X86778Y-61603D01*
X86819Y-61503D01*
X86820Y-61396D01*
X86779Y-61297D01*
X86740Y-61258D01*
X86740Y-60000D01*
X86739Y-59999D01*
X86740Y-59999D01*
X86737Y-59987D01*
X86729Y-59948D01*
X86910Y-60128D01*
X86910Y-61621D01*
X86910Y-61621D01*
G37*
G54D16*
X86910Y-61621D02*
X86421Y-62110D01*
X86150Y-62110D01*
X86077Y-62124D01*
X86015Y-62165D01*
X85720Y-62461D01*
X85720Y-62446D01*
X85679Y-62347D01*
X85640Y-62308D01*
X85640Y-61950D01*
X85625Y-61877D01*
X85584Y-61815D01*
X85484Y-61715D01*
X85470Y-61706D01*
X85458Y-61694D01*
X85415Y-61663D01*
X85577Y-61431D01*
X85590Y-61373D01*
X85580Y-61314D01*
X85548Y-61264D01*
X85499Y-61229D01*
X85447Y-61193D01*
X85718Y-60922D01*
X85757Y-60950D01*
X85815Y-60963D01*
X85860Y-60955D01*
X85860Y-61308D01*
X85821Y-61346D01*
X85780Y-61446D01*
X85779Y-61553D01*
X85820Y-61652D01*
X85896Y-61728D01*
X85996Y-61769D01*
X86103Y-61770D01*
X86202Y-61729D01*
X86278Y-61653D01*
X86310Y-61577D01*
X86320Y-61602D01*
X86396Y-61678D01*
X86496Y-61719D01*
X86603Y-61720D01*
X86702Y-61679D01*
X86778Y-61603D01*
X86819Y-61503D01*
X86820Y-61396D01*
X86779Y-61297D01*
X86740Y-61258D01*
X86740Y-60000D01*
X86739Y-59999D01*
X86740Y-59999D01*
X86737Y-59987D01*
X86729Y-59948D01*
X86910Y-60128D01*
X86910Y-61621D01*
G54D10*
G36*
X87810Y-60835D02*
X87782Y-60935D01*
X87671Y-61138D01*
X87667Y-61148D01*
X87662Y-61156D01*
X87622Y-61256D01*
X87616Y-61288D01*
X87610Y-61320D01*
X87610Y-61466D01*
X87598Y-61536D01*
X87551Y-61606D01*
X87429Y-61711D01*
X87413Y-61731D01*
X87396Y-61750D01*
X87296Y-61909D01*
X87199Y-62055D01*
X87077Y-62131D01*
X86942Y-62199D01*
X86848Y-62219D01*
X87234Y-61834D01*
X87234Y-61834D01*
X87234Y-61834D01*
X87275Y-61772D01*
X87290Y-61700D01*
X87290Y-60083D01*
X87332Y-60111D01*
X87448Y-60228D01*
X87510Y-60321D01*
X87564Y-60446D01*
X87578Y-60467D01*
X87591Y-60490D01*
X87710Y-60629D01*
X87792Y-60728D01*
X87810Y-60772D01*
X87810Y-60835D01*
X87810Y-60835D01*
G37*
G54D16*
X87810Y-60835D02*
X87782Y-60935D01*
X87671Y-61138D01*
X87667Y-61148D01*
X87662Y-61156D01*
X87622Y-61256D01*
X87616Y-61288D01*
X87610Y-61320D01*
X87610Y-61466D01*
X87598Y-61536D01*
X87551Y-61606D01*
X87429Y-61711D01*
X87413Y-61731D01*
X87396Y-61750D01*
X87296Y-61909D01*
X87199Y-62055D01*
X87077Y-62131D01*
X86942Y-62199D01*
X86848Y-62219D01*
X87234Y-61834D01*
X87234Y-61834D01*
X87234Y-61834D01*
X87275Y-61772D01*
X87290Y-61700D01*
X87290Y-60083D01*
X87332Y-60111D01*
X87448Y-60228D01*
X87510Y-60321D01*
X87564Y-60446D01*
X87578Y-60467D01*
X87591Y-60490D01*
X87710Y-60629D01*
X87792Y-60728D01*
X87810Y-60772D01*
X87810Y-60835D01*
M02*
