G04 (created by PCBNEW (2013-may-18)-stable) date Mon 02 Nov 2015 08:05:35 PM CST*
%MOIN*%
G04 Gerber Fmt 3.4, Leading zero omitted, Abs format*
%FSLAX34Y34*%
G01*
G70*
G90*
G04 APERTURE LIST*
%ADD10C,0.00590551*%
%ADD11C,0.00393701*%
%ADD12C,0.0354331*%
%ADD13R,0.0314X0.0314*%
G04 APERTURE END LIST*
G54D10*
G54D11*
X73040Y-56360D02*
X73040Y-56200D01*
X73120Y-56440D02*
X73040Y-56360D01*
X73140Y-56540D02*
X73120Y-56440D01*
X73120Y-56620D02*
X73140Y-56540D01*
X73100Y-56840D02*
X73120Y-56620D01*
X73100Y-57080D02*
X73100Y-56840D01*
X73160Y-57120D02*
X73100Y-57080D01*
X73260Y-57240D02*
X73160Y-57120D01*
X73300Y-57440D02*
X73260Y-57240D01*
X73320Y-57700D02*
X73300Y-57440D01*
X73280Y-57880D02*
X73320Y-57700D01*
X73260Y-58180D02*
X73280Y-57880D01*
X73240Y-58280D02*
X73260Y-58180D01*
X73100Y-58460D02*
X73240Y-58280D01*
X73040Y-58600D02*
X73100Y-58460D01*
X73040Y-58700D02*
X73040Y-58600D01*
X73100Y-58780D02*
X73040Y-58700D01*
X73160Y-58880D02*
X73100Y-58780D01*
X73300Y-59200D02*
X73160Y-58880D01*
X73380Y-59280D02*
X73300Y-59200D01*
X73480Y-59320D02*
X73380Y-59280D01*
X73540Y-59420D02*
X73480Y-59320D01*
X73560Y-59640D02*
X73540Y-59420D01*
X73620Y-59880D02*
X73560Y-59640D01*
X73620Y-60080D02*
X73620Y-59880D01*
X73700Y-60360D02*
X73620Y-60080D01*
X73780Y-60500D02*
X73700Y-60360D01*
X73900Y-60640D02*
X73780Y-60500D01*
X74000Y-60800D02*
X73900Y-60640D01*
X74220Y-61240D02*
X74000Y-60800D01*
X74300Y-61440D02*
X74220Y-61240D01*
X74300Y-61620D02*
X74300Y-61440D01*
X74300Y-61800D02*
X74300Y-61620D01*
X74260Y-61980D02*
X74300Y-61800D01*
X74240Y-62160D02*
X74260Y-61980D01*
X74260Y-62240D02*
X74240Y-62160D01*
X74420Y-62240D02*
X74260Y-62240D01*
X74460Y-62320D02*
X74420Y-62240D01*
X74460Y-62420D02*
X74460Y-62320D01*
X74500Y-62460D02*
X74460Y-62420D01*
X74600Y-62480D02*
X74500Y-62460D01*
X74620Y-62520D02*
X74600Y-62480D01*
X74620Y-62600D02*
X74620Y-62520D01*
X74620Y-62700D02*
X74620Y-62600D01*
X74620Y-62820D02*
X74620Y-62700D01*
X74140Y-64380D02*
X74620Y-62820D01*
X74740Y-64540D02*
X74140Y-64380D01*
X74720Y-64660D02*
X74740Y-64540D01*
X74740Y-64760D02*
X74720Y-64660D01*
X74820Y-64860D02*
X74740Y-64760D01*
X74880Y-64980D02*
X74820Y-64860D01*
X74900Y-65100D02*
X74880Y-64980D01*
X84240Y-65100D02*
X74900Y-65100D01*
X84380Y-65180D02*
X84240Y-65100D01*
X84500Y-65260D02*
X84380Y-65180D01*
X84600Y-65380D02*
X84500Y-65260D01*
X84740Y-65580D02*
X84600Y-65380D01*
X84860Y-65700D02*
X84740Y-65580D01*
X84940Y-65760D02*
X84860Y-65700D01*
X85020Y-65740D02*
X84940Y-65760D01*
X85100Y-65640D02*
X85020Y-65740D01*
X85160Y-65580D02*
X85100Y-65640D01*
X85160Y-65460D02*
X85160Y-65580D01*
X85140Y-65340D02*
X85160Y-65460D01*
X85080Y-65180D02*
X85140Y-65340D01*
X85080Y-65100D02*
X85080Y-65180D01*
X85180Y-64960D02*
X85080Y-65100D01*
X85380Y-64880D02*
X85180Y-64960D01*
X85640Y-64780D02*
X85380Y-64880D01*
X85780Y-64700D02*
X85640Y-64780D01*
X85940Y-64580D02*
X85780Y-64700D01*
X85980Y-64480D02*
X85940Y-64580D01*
X86020Y-64360D02*
X85980Y-64480D01*
X86100Y-64140D02*
X86020Y-64360D01*
X86200Y-63940D02*
X86100Y-64140D01*
X86260Y-63800D02*
X86200Y-63940D01*
X86280Y-63580D02*
X86260Y-63800D01*
X86180Y-63460D02*
X86280Y-63580D01*
X86020Y-63380D02*
X86180Y-63460D01*
X85940Y-63280D02*
X86020Y-63380D01*
X85940Y-63140D02*
X85940Y-63280D01*
X86060Y-62900D02*
X85940Y-63140D01*
X86060Y-62720D02*
X86060Y-62900D01*
X86120Y-62580D02*
X86060Y-62720D01*
X86260Y-62520D02*
X86120Y-62580D01*
X86420Y-62500D02*
X86260Y-62520D01*
X86540Y-62500D02*
X86420Y-62500D01*
X86680Y-62460D02*
X86540Y-62500D01*
X86820Y-62400D02*
X86680Y-62460D01*
X87000Y-62360D02*
X86820Y-62400D01*
X87160Y-62280D02*
X87000Y-62360D01*
X87320Y-62180D02*
X87160Y-62280D01*
X87440Y-62000D02*
X87320Y-62180D01*
X87540Y-61840D02*
X87440Y-62000D01*
X87680Y-61720D02*
X87540Y-61840D01*
X87760Y-61600D02*
X87680Y-61720D01*
X87780Y-61480D02*
X87760Y-61600D01*
X87780Y-61320D02*
X87780Y-61480D01*
X87820Y-61220D02*
X87780Y-61320D01*
X87940Y-61000D02*
X87820Y-61220D01*
X87980Y-60860D02*
X87940Y-61000D01*
X87980Y-60740D02*
X87980Y-60860D01*
X87940Y-60640D02*
X87980Y-60740D01*
X87840Y-60520D02*
X87940Y-60640D01*
X87720Y-60380D02*
X87840Y-60520D01*
X87660Y-60240D02*
X87720Y-60380D01*
X87580Y-60120D02*
X87660Y-60240D01*
X87440Y-59980D02*
X87580Y-60120D01*
X87260Y-59860D02*
X87440Y-59980D01*
X87080Y-59740D02*
X87260Y-59860D01*
X86980Y-59620D02*
X87080Y-59740D01*
X86920Y-59500D02*
X86980Y-59620D01*
X86840Y-59320D02*
X86920Y-59500D01*
X86740Y-59100D02*
X86840Y-59320D01*
X86600Y-58880D02*
X86740Y-59100D01*
X86420Y-58740D02*
X86600Y-58880D01*
X86200Y-58700D02*
X86420Y-58740D01*
X86020Y-58680D02*
X86200Y-58700D01*
X85880Y-58600D02*
X86020Y-58680D01*
X85840Y-58480D02*
X85880Y-58600D01*
X85840Y-58320D02*
X85840Y-58480D01*
X85800Y-58100D02*
X85840Y-58320D01*
X85740Y-57960D02*
X85800Y-58100D01*
X85740Y-57880D02*
X85740Y-57960D01*
X85800Y-57680D02*
X85740Y-57880D01*
X85860Y-57540D02*
X85800Y-57680D01*
X85880Y-57400D02*
X85860Y-57540D01*
X85840Y-57280D02*
X85880Y-57400D01*
X85700Y-57120D02*
X85840Y-57280D01*
X85600Y-56960D02*
X85700Y-57120D01*
X85520Y-56780D02*
X85600Y-56960D01*
X85480Y-56620D02*
X85520Y-56780D01*
X85480Y-56480D02*
X85480Y-56620D01*
X85450Y-56350D02*
X85480Y-56480D01*
X85400Y-56200D02*
X85450Y-56350D01*
X73050Y-56200D02*
X85400Y-56200D01*
G54D12*
X84290Y-56700D03*
X83109Y-56700D03*
G54D10*
G36*
X83007Y-61221D02*
X83302Y-61328D01*
X83194Y-61624D01*
X82899Y-61516D01*
X83007Y-61221D01*
X83007Y-61221D01*
G37*
G36*
X82805Y-61775D02*
X83100Y-61883D01*
X82992Y-62178D01*
X82697Y-62071D01*
X82805Y-61775D01*
X82805Y-61775D01*
G37*
G36*
X79089Y-59854D02*
X79329Y-59652D01*
X79531Y-59893D01*
X79291Y-60095D01*
X79089Y-59854D01*
X79089Y-59854D01*
G37*
G36*
X79468Y-60306D02*
X79708Y-60104D01*
X79910Y-60345D01*
X79670Y-60547D01*
X79468Y-60306D01*
X79468Y-60306D01*
G37*
G36*
X76743Y-62766D02*
X76876Y-63051D01*
X76591Y-63183D01*
X76458Y-62899D01*
X76743Y-62766D01*
X76743Y-62766D01*
G37*
G36*
X76208Y-63016D02*
X76341Y-63300D01*
X76056Y-63433D01*
X75923Y-63148D01*
X76208Y-63016D01*
X76208Y-63016D01*
G37*
G36*
X76134Y-62277D02*
X75831Y-62195D01*
X75912Y-61892D01*
X76215Y-61973D01*
X76134Y-62277D01*
X76134Y-62277D01*
G37*
G36*
X76287Y-61707D02*
X75984Y-61626D01*
X76065Y-61322D01*
X76368Y-61404D01*
X76287Y-61707D01*
X76287Y-61707D01*
G37*
G36*
X77165Y-57722D02*
X77468Y-57804D01*
X77387Y-58107D01*
X77084Y-58026D01*
X77165Y-57722D01*
X77165Y-57722D01*
G37*
G36*
X77012Y-58292D02*
X77315Y-58373D01*
X77234Y-58677D01*
X76931Y-58595D01*
X77012Y-58292D01*
X77012Y-58292D01*
G37*
G36*
X76565Y-59622D02*
X76868Y-59704D01*
X76787Y-60007D01*
X76484Y-59926D01*
X76565Y-59622D01*
X76565Y-59622D01*
G37*
G36*
X76412Y-60192D02*
X76715Y-60273D01*
X76634Y-60577D01*
X76331Y-60495D01*
X76412Y-60192D01*
X76412Y-60192D01*
G37*
G36*
X78456Y-62233D02*
X78323Y-61948D01*
X78608Y-61816D01*
X78741Y-62100D01*
X78456Y-62233D01*
X78456Y-62233D01*
G37*
G36*
X78991Y-61983D02*
X78858Y-61699D01*
X79143Y-61566D01*
X79276Y-61851D01*
X78991Y-61983D01*
X78991Y-61983D01*
G37*
G36*
X79756Y-61633D02*
X79623Y-61348D01*
X79908Y-61216D01*
X80041Y-61500D01*
X79756Y-61633D01*
X79756Y-61633D01*
G37*
G36*
X80291Y-61383D02*
X80158Y-61099D01*
X80443Y-60966D01*
X80576Y-61251D01*
X80291Y-61383D01*
X80291Y-61383D01*
G37*
G36*
X86080Y-59889D02*
X86337Y-60069D01*
X86157Y-60327D01*
X85900Y-60146D01*
X86080Y-59889D01*
X86080Y-59889D01*
G37*
G36*
X85742Y-60372D02*
X85999Y-60553D01*
X85819Y-60810D01*
X85562Y-60630D01*
X85742Y-60372D01*
X85742Y-60372D01*
G37*
G36*
X82112Y-62638D02*
X82269Y-62909D01*
X81998Y-63066D01*
X81841Y-62795D01*
X82112Y-62638D01*
X82112Y-62638D01*
G37*
G36*
X81601Y-62933D02*
X81758Y-63204D01*
X81487Y-63361D01*
X81330Y-63090D01*
X81601Y-62933D01*
X81601Y-62933D01*
G37*
G36*
X77889Y-58454D02*
X78129Y-58252D01*
X78331Y-58493D01*
X78091Y-58695D01*
X77889Y-58454D01*
X77889Y-58454D01*
G37*
G36*
X78268Y-58906D02*
X78508Y-58704D01*
X78710Y-58945D01*
X78470Y-59147D01*
X78268Y-58906D01*
X78268Y-58906D01*
G37*
G54D13*
X79805Y-63400D03*
X80395Y-63400D03*
G54D10*
G36*
X78130Y-63009D02*
X78287Y-62738D01*
X78558Y-62895D01*
X78401Y-63166D01*
X78130Y-63009D01*
X78130Y-63009D01*
G37*
G36*
X78641Y-63304D02*
X78798Y-63033D01*
X79069Y-63190D01*
X78912Y-63461D01*
X78641Y-63304D01*
X78641Y-63304D01*
G37*
G36*
X80836Y-59004D02*
X80863Y-59317D01*
X80551Y-59344D01*
X80523Y-59031D01*
X80836Y-59004D01*
X80836Y-59004D01*
G37*
G36*
X80248Y-59055D02*
X80276Y-59368D01*
X79963Y-59395D01*
X79936Y-59082D01*
X80248Y-59055D01*
X80248Y-59055D01*
G37*
G36*
X83402Y-60571D02*
X83107Y-60678D01*
X82999Y-60383D01*
X83294Y-60275D01*
X83402Y-60571D01*
X83402Y-60571D01*
G37*
G36*
X83200Y-60016D02*
X82905Y-60124D01*
X82797Y-59828D01*
X83092Y-59721D01*
X83200Y-60016D01*
X83200Y-60016D01*
G37*
G36*
X77809Y-60869D02*
X77538Y-60712D01*
X77695Y-60441D01*
X77966Y-60598D01*
X77809Y-60869D01*
X77809Y-60869D01*
G37*
G36*
X78104Y-60358D02*
X77833Y-60201D01*
X77990Y-59930D01*
X78261Y-60087D01*
X78104Y-60358D01*
X78104Y-60358D01*
G37*
G36*
X77902Y-62471D02*
X77607Y-62578D01*
X77499Y-62283D01*
X77794Y-62175D01*
X77902Y-62471D01*
X77902Y-62471D01*
G37*
G36*
X77700Y-61916D02*
X77405Y-62024D01*
X77297Y-61728D01*
X77592Y-61621D01*
X77700Y-61916D01*
X77700Y-61916D01*
G37*
G36*
X84439Y-59069D02*
X84619Y-58812D01*
X84877Y-58992D01*
X84696Y-59249D01*
X84439Y-59069D01*
X84439Y-59069D01*
G37*
G36*
X84922Y-59407D02*
X85103Y-59150D01*
X85360Y-59330D01*
X85180Y-59587D01*
X84922Y-59407D01*
X84922Y-59407D01*
G37*
G36*
X84919Y-62110D02*
X84662Y-61930D01*
X84842Y-61672D01*
X85099Y-61853D01*
X84919Y-62110D01*
X84919Y-62110D01*
G37*
G36*
X85257Y-61627D02*
X85000Y-61446D01*
X85180Y-61189D01*
X85437Y-61369D01*
X85257Y-61627D01*
X85257Y-61627D01*
G37*
G36*
X83969Y-63460D02*
X83712Y-63280D01*
X83892Y-63022D01*
X84149Y-63203D01*
X83969Y-63460D01*
X83969Y-63460D01*
G37*
G36*
X84307Y-62977D02*
X84050Y-62796D01*
X84230Y-62539D01*
X84487Y-62719D01*
X84307Y-62977D01*
X84307Y-62977D01*
G37*
G36*
X82330Y-58439D02*
X82587Y-58619D01*
X82407Y-58877D01*
X82150Y-58696D01*
X82330Y-58439D01*
X82330Y-58439D01*
G37*
G36*
X81992Y-58922D02*
X82249Y-59103D01*
X82069Y-59360D01*
X81812Y-59180D01*
X81992Y-58922D01*
X81992Y-58922D01*
G37*
G36*
X83860Y-58330D02*
X83680Y-58587D01*
X83422Y-58407D01*
X83603Y-58150D01*
X83860Y-58330D01*
X83860Y-58330D01*
G37*
G36*
X83377Y-57992D02*
X83196Y-58249D01*
X82939Y-58069D01*
X83119Y-57812D01*
X83377Y-57992D01*
X83377Y-57992D01*
G37*
G36*
X81169Y-60660D02*
X80912Y-60480D01*
X81092Y-60222D01*
X81349Y-60403D01*
X81169Y-60660D01*
X81169Y-60660D01*
G37*
G36*
X81507Y-60177D02*
X81250Y-59996D01*
X81430Y-59739D01*
X81687Y-59919D01*
X81507Y-60177D01*
X81507Y-60177D01*
G37*
G36*
X82060Y-61730D02*
X81880Y-61987D01*
X81622Y-61807D01*
X81803Y-61550D01*
X82060Y-61730D01*
X82060Y-61730D01*
G37*
G36*
X81577Y-61392D02*
X81396Y-61649D01*
X81139Y-61469D01*
X81319Y-61212D01*
X81577Y-61392D01*
X81577Y-61392D01*
G37*
M02*
