G04 (created by PCBNEW (2013-may-18)-stable) date Mon 02 Nov 2015 08:05:35 PM CST*
%MOIN*%
G04 Gerber Fmt 3.4, Leading zero omitted, Abs format*
%FSLAX34Y34*%
G01*
G70*
G90*
G04 APERTURE LIST*
%ADD10C,0.00590551*%
%ADD11C,0.00393701*%
%ADD12C,0.03*%
%ADD13R,0.0393701X0.015748*%
%ADD14R,0.0275591X0.0590551*%
%ADD15C,0.0354331*%
%ADD16R,0.0354331X0.0590551*%
%ADD17R,0.023622X0.0590551*%
%ADD18C,0.7*%
%ADD19R,0.0315X0.0394*%
%ADD20R,0.1X0.05*%
%ADD21R,0.035X0.055*%
%ADD22R,0.045X0.025*%
%ADD23R,0.0236X0.0157*%
%ADD24R,0.0157X0.0236*%
G04 APERTURE END LIST*
G54D10*
G54D11*
X73040Y-56360D02*
X73040Y-56200D01*
X73120Y-56440D02*
X73040Y-56360D01*
X73140Y-56540D02*
X73120Y-56440D01*
X73120Y-56620D02*
X73140Y-56540D01*
X73100Y-56840D02*
X73120Y-56620D01*
X73100Y-57080D02*
X73100Y-56840D01*
X73160Y-57120D02*
X73100Y-57080D01*
X73260Y-57240D02*
X73160Y-57120D01*
X73300Y-57440D02*
X73260Y-57240D01*
X73320Y-57700D02*
X73300Y-57440D01*
X73280Y-57880D02*
X73320Y-57700D01*
X73260Y-58180D02*
X73280Y-57880D01*
X73240Y-58280D02*
X73260Y-58180D01*
X73100Y-58460D02*
X73240Y-58280D01*
X73040Y-58600D02*
X73100Y-58460D01*
X73040Y-58700D02*
X73040Y-58600D01*
X73100Y-58780D02*
X73040Y-58700D01*
X73160Y-58880D02*
X73100Y-58780D01*
X73300Y-59200D02*
X73160Y-58880D01*
X73380Y-59280D02*
X73300Y-59200D01*
X73480Y-59320D02*
X73380Y-59280D01*
X73540Y-59420D02*
X73480Y-59320D01*
X73560Y-59640D02*
X73540Y-59420D01*
X73620Y-59880D02*
X73560Y-59640D01*
X73620Y-60080D02*
X73620Y-59880D01*
X73700Y-60360D02*
X73620Y-60080D01*
X73780Y-60500D02*
X73700Y-60360D01*
X73900Y-60640D02*
X73780Y-60500D01*
X74000Y-60800D02*
X73900Y-60640D01*
X74220Y-61240D02*
X74000Y-60800D01*
X74300Y-61440D02*
X74220Y-61240D01*
X74300Y-61620D02*
X74300Y-61440D01*
X74300Y-61800D02*
X74300Y-61620D01*
X74260Y-61980D02*
X74300Y-61800D01*
X74240Y-62160D02*
X74260Y-61980D01*
X74260Y-62240D02*
X74240Y-62160D01*
X74420Y-62240D02*
X74260Y-62240D01*
X74460Y-62320D02*
X74420Y-62240D01*
X74460Y-62420D02*
X74460Y-62320D01*
X74500Y-62460D02*
X74460Y-62420D01*
X74600Y-62480D02*
X74500Y-62460D01*
X74620Y-62520D02*
X74600Y-62480D01*
X74620Y-62600D02*
X74620Y-62520D01*
X74620Y-62700D02*
X74620Y-62600D01*
X74620Y-62820D02*
X74620Y-62700D01*
X74140Y-64380D02*
X74620Y-62820D01*
X74740Y-64540D02*
X74140Y-64380D01*
X74720Y-64660D02*
X74740Y-64540D01*
X74740Y-64760D02*
X74720Y-64660D01*
X74820Y-64860D02*
X74740Y-64760D01*
X74880Y-64980D02*
X74820Y-64860D01*
X74900Y-65100D02*
X74880Y-64980D01*
X84240Y-65100D02*
X74900Y-65100D01*
X84380Y-65180D02*
X84240Y-65100D01*
X84500Y-65260D02*
X84380Y-65180D01*
X84600Y-65380D02*
X84500Y-65260D01*
X84740Y-65580D02*
X84600Y-65380D01*
X84860Y-65700D02*
X84740Y-65580D01*
X84940Y-65760D02*
X84860Y-65700D01*
X85020Y-65740D02*
X84940Y-65760D01*
X85100Y-65640D02*
X85020Y-65740D01*
X85160Y-65580D02*
X85100Y-65640D01*
X85160Y-65460D02*
X85160Y-65580D01*
X85140Y-65340D02*
X85160Y-65460D01*
X85080Y-65180D02*
X85140Y-65340D01*
X85080Y-65100D02*
X85080Y-65180D01*
X85180Y-64960D02*
X85080Y-65100D01*
X85380Y-64880D02*
X85180Y-64960D01*
X85640Y-64780D02*
X85380Y-64880D01*
X85780Y-64700D02*
X85640Y-64780D01*
X85940Y-64580D02*
X85780Y-64700D01*
X85980Y-64480D02*
X85940Y-64580D01*
X86020Y-64360D02*
X85980Y-64480D01*
X86100Y-64140D02*
X86020Y-64360D01*
X86200Y-63940D02*
X86100Y-64140D01*
X86260Y-63800D02*
X86200Y-63940D01*
X86280Y-63580D02*
X86260Y-63800D01*
X86180Y-63460D02*
X86280Y-63580D01*
X86020Y-63380D02*
X86180Y-63460D01*
X85940Y-63280D02*
X86020Y-63380D01*
X85940Y-63140D02*
X85940Y-63280D01*
X86060Y-62900D02*
X85940Y-63140D01*
X86060Y-62720D02*
X86060Y-62900D01*
X86120Y-62580D02*
X86060Y-62720D01*
X86260Y-62520D02*
X86120Y-62580D01*
X86420Y-62500D02*
X86260Y-62520D01*
X86540Y-62500D02*
X86420Y-62500D01*
X86680Y-62460D02*
X86540Y-62500D01*
X86820Y-62400D02*
X86680Y-62460D01*
X87000Y-62360D02*
X86820Y-62400D01*
X87160Y-62280D02*
X87000Y-62360D01*
X87320Y-62180D02*
X87160Y-62280D01*
X87440Y-62000D02*
X87320Y-62180D01*
X87540Y-61840D02*
X87440Y-62000D01*
X87680Y-61720D02*
X87540Y-61840D01*
X87760Y-61600D02*
X87680Y-61720D01*
X87780Y-61480D02*
X87760Y-61600D01*
X87780Y-61320D02*
X87780Y-61480D01*
X87820Y-61220D02*
X87780Y-61320D01*
X87940Y-61000D02*
X87820Y-61220D01*
X87980Y-60860D02*
X87940Y-61000D01*
X87980Y-60740D02*
X87980Y-60860D01*
X87940Y-60640D02*
X87980Y-60740D01*
X87840Y-60520D02*
X87940Y-60640D01*
X87720Y-60380D02*
X87840Y-60520D01*
X87660Y-60240D02*
X87720Y-60380D01*
X87580Y-60120D02*
X87660Y-60240D01*
X87440Y-59980D02*
X87580Y-60120D01*
X87260Y-59860D02*
X87440Y-59980D01*
X87080Y-59740D02*
X87260Y-59860D01*
X86980Y-59620D02*
X87080Y-59740D01*
X86920Y-59500D02*
X86980Y-59620D01*
X86840Y-59320D02*
X86920Y-59500D01*
X86740Y-59100D02*
X86840Y-59320D01*
X86600Y-58880D02*
X86740Y-59100D01*
X86420Y-58740D02*
X86600Y-58880D01*
X86200Y-58700D02*
X86420Y-58740D01*
X86020Y-58680D02*
X86200Y-58700D01*
X85880Y-58600D02*
X86020Y-58680D01*
X85840Y-58480D02*
X85880Y-58600D01*
X85840Y-58320D02*
X85840Y-58480D01*
X85800Y-58100D02*
X85840Y-58320D01*
X85740Y-57960D02*
X85800Y-58100D01*
X85740Y-57880D02*
X85740Y-57960D01*
X85800Y-57680D02*
X85740Y-57880D01*
X85860Y-57540D02*
X85800Y-57680D01*
X85880Y-57400D02*
X85860Y-57540D01*
X85840Y-57280D02*
X85880Y-57400D01*
X85700Y-57120D02*
X85840Y-57280D01*
X85600Y-56960D02*
X85700Y-57120D01*
X85520Y-56780D02*
X85600Y-56960D01*
X85480Y-56620D02*
X85520Y-56780D01*
X85480Y-56480D02*
X85480Y-56620D01*
X85450Y-56350D02*
X85480Y-56480D01*
X85400Y-56200D02*
X85450Y-56350D01*
X73050Y-56200D02*
X85400Y-56200D01*
G54D12*
X75800Y-56600D03*
X81100Y-64800D03*
X84200Y-61900D03*
X84700Y-58000D03*
X85400Y-57200D03*
X84700Y-61900D03*
X84200Y-58500D03*
X84700Y-58500D03*
G54D13*
X83583Y-63805D03*
X83583Y-63550D03*
X83583Y-63294D03*
X82716Y-63294D03*
X82716Y-63550D03*
X82716Y-63805D03*
G54D14*
X83995Y-57388D03*
X84585Y-57388D03*
X82814Y-57388D03*
G54D15*
X84290Y-56700D03*
X83109Y-56700D03*
G54D16*
X85018Y-56700D03*
X82381Y-56700D03*
G54D17*
X85700Y-61262D03*
X85200Y-61262D03*
X84700Y-61262D03*
X84200Y-61262D03*
X83700Y-61262D03*
X83200Y-61262D03*
X82700Y-61262D03*
X82700Y-59137D03*
X83200Y-59137D03*
X83700Y-59137D03*
X84200Y-59137D03*
X84700Y-59137D03*
X85200Y-59137D03*
X85700Y-59137D03*
G54D10*
G36*
X75578Y-57064D02*
X74164Y-58478D01*
X73457Y-57771D01*
X74871Y-56357D01*
X75578Y-57064D01*
X75578Y-57064D01*
G37*
G36*
X81942Y-63428D02*
X80528Y-64842D01*
X79821Y-64135D01*
X81235Y-62721D01*
X81942Y-63428D01*
X81942Y-63428D01*
G37*
G54D18*
X77700Y-60600D03*
G54D19*
X80600Y-57433D03*
X80975Y-56567D03*
X80225Y-56567D03*
X81700Y-56967D03*
X81325Y-57833D03*
X82075Y-57833D03*
G54D20*
X84450Y-64650D03*
X84450Y-63450D03*
G54D21*
X83525Y-62650D03*
X82775Y-62650D03*
X84075Y-62650D03*
X84825Y-62650D03*
X83525Y-64450D03*
X82775Y-64450D03*
G54D22*
X86400Y-59500D03*
X86400Y-60100D03*
G54D23*
X82200Y-64677D03*
X82200Y-64323D03*
G54D24*
X82773Y-61850D03*
X83127Y-61850D03*
G54D23*
X85700Y-62177D03*
X85700Y-61823D03*
X82200Y-59877D03*
X82200Y-59523D03*
X81700Y-64323D03*
X81700Y-64677D03*
G54D24*
X82277Y-58300D03*
X81923Y-58300D03*
G54D23*
X82200Y-60677D03*
X82200Y-60323D03*
X85400Y-64023D03*
X85400Y-64377D03*
X85150Y-58077D03*
X85150Y-57723D03*
G54D24*
X86577Y-60600D03*
X86223Y-60600D03*
X86223Y-61100D03*
X86577Y-61100D03*
X85477Y-58500D03*
X85123Y-58500D03*
G54D23*
X82200Y-61477D03*
X82200Y-61123D03*
G54D24*
X81923Y-59100D03*
X82277Y-59100D03*
X81577Y-58300D03*
X81223Y-58300D03*
G54D23*
X85200Y-62177D03*
X85200Y-61823D03*
X79700Y-56523D03*
X79700Y-56877D03*
X83200Y-58223D03*
X83200Y-58577D03*
M02*
