G04 (created by PCBNEW (2013-may-18)-stable) date Mon 02 Nov 2015 08:05:35 PM CST*
%MOIN*%
G04 Gerber Fmt 3.4, Leading zero omitted, Abs format*
%FSLAX34Y34*%
G01*
G70*
G90*
G04 APERTURE LIST*
%ADD10C,0.00590551*%
%ADD11C,0.00393701*%
%ADD12C,0.03*%
%ADD13R,0.0393701X0.015748*%
%ADD14R,0.0275591X0.0590551*%
%ADD15C,0.0354331*%
%ADD16R,0.0354331X0.0590551*%
%ADD17R,0.023622X0.0590551*%
%ADD18C,0.7*%
%ADD19R,0.0315X0.0394*%
%ADD20R,0.1X0.05*%
%ADD21R,0.035X0.055*%
%ADD22R,0.045X0.025*%
%ADD23R,0.0236X0.0157*%
%ADD24R,0.0157X0.0236*%
%ADD25C,0.024*%
%ADD26C,0.008*%
%ADD27C,0.01*%
G04 APERTURE END LIST*
G54D10*
G54D11*
X73040Y-56360D02*
X73040Y-56200D01*
X73120Y-56440D02*
X73040Y-56360D01*
X73140Y-56540D02*
X73120Y-56440D01*
X73120Y-56620D02*
X73140Y-56540D01*
X73100Y-56840D02*
X73120Y-56620D01*
X73100Y-57080D02*
X73100Y-56840D01*
X73160Y-57120D02*
X73100Y-57080D01*
X73260Y-57240D02*
X73160Y-57120D01*
X73300Y-57440D02*
X73260Y-57240D01*
X73320Y-57700D02*
X73300Y-57440D01*
X73280Y-57880D02*
X73320Y-57700D01*
X73260Y-58180D02*
X73280Y-57880D01*
X73240Y-58280D02*
X73260Y-58180D01*
X73100Y-58460D02*
X73240Y-58280D01*
X73040Y-58600D02*
X73100Y-58460D01*
X73040Y-58700D02*
X73040Y-58600D01*
X73100Y-58780D02*
X73040Y-58700D01*
X73160Y-58880D02*
X73100Y-58780D01*
X73300Y-59200D02*
X73160Y-58880D01*
X73380Y-59280D02*
X73300Y-59200D01*
X73480Y-59320D02*
X73380Y-59280D01*
X73540Y-59420D02*
X73480Y-59320D01*
X73560Y-59640D02*
X73540Y-59420D01*
X73620Y-59880D02*
X73560Y-59640D01*
X73620Y-60080D02*
X73620Y-59880D01*
X73700Y-60360D02*
X73620Y-60080D01*
X73780Y-60500D02*
X73700Y-60360D01*
X73900Y-60640D02*
X73780Y-60500D01*
X74000Y-60800D02*
X73900Y-60640D01*
X74220Y-61240D02*
X74000Y-60800D01*
X74300Y-61440D02*
X74220Y-61240D01*
X74300Y-61620D02*
X74300Y-61440D01*
X74300Y-61800D02*
X74300Y-61620D01*
X74260Y-61980D02*
X74300Y-61800D01*
X74240Y-62160D02*
X74260Y-61980D01*
X74260Y-62240D02*
X74240Y-62160D01*
X74420Y-62240D02*
X74260Y-62240D01*
X74460Y-62320D02*
X74420Y-62240D01*
X74460Y-62420D02*
X74460Y-62320D01*
X74500Y-62460D02*
X74460Y-62420D01*
X74600Y-62480D02*
X74500Y-62460D01*
X74620Y-62520D02*
X74600Y-62480D01*
X74620Y-62600D02*
X74620Y-62520D01*
X74620Y-62700D02*
X74620Y-62600D01*
X74620Y-62820D02*
X74620Y-62700D01*
X74140Y-64380D02*
X74620Y-62820D01*
X74740Y-64540D02*
X74140Y-64380D01*
X74720Y-64660D02*
X74740Y-64540D01*
X74740Y-64760D02*
X74720Y-64660D01*
X74820Y-64860D02*
X74740Y-64760D01*
X74880Y-64980D02*
X74820Y-64860D01*
X74900Y-65100D02*
X74880Y-64980D01*
X84240Y-65100D02*
X74900Y-65100D01*
X84380Y-65180D02*
X84240Y-65100D01*
X84500Y-65260D02*
X84380Y-65180D01*
X84600Y-65380D02*
X84500Y-65260D01*
X84740Y-65580D02*
X84600Y-65380D01*
X84860Y-65700D02*
X84740Y-65580D01*
X84940Y-65760D02*
X84860Y-65700D01*
X85020Y-65740D02*
X84940Y-65760D01*
X85100Y-65640D02*
X85020Y-65740D01*
X85160Y-65580D02*
X85100Y-65640D01*
X85160Y-65460D02*
X85160Y-65580D01*
X85140Y-65340D02*
X85160Y-65460D01*
X85080Y-65180D02*
X85140Y-65340D01*
X85080Y-65100D02*
X85080Y-65180D01*
X85180Y-64960D02*
X85080Y-65100D01*
X85380Y-64880D02*
X85180Y-64960D01*
X85640Y-64780D02*
X85380Y-64880D01*
X85780Y-64700D02*
X85640Y-64780D01*
X85940Y-64580D02*
X85780Y-64700D01*
X85980Y-64480D02*
X85940Y-64580D01*
X86020Y-64360D02*
X85980Y-64480D01*
X86100Y-64140D02*
X86020Y-64360D01*
X86200Y-63940D02*
X86100Y-64140D01*
X86260Y-63800D02*
X86200Y-63940D01*
X86280Y-63580D02*
X86260Y-63800D01*
X86180Y-63460D02*
X86280Y-63580D01*
X86020Y-63380D02*
X86180Y-63460D01*
X85940Y-63280D02*
X86020Y-63380D01*
X85940Y-63140D02*
X85940Y-63280D01*
X86060Y-62900D02*
X85940Y-63140D01*
X86060Y-62720D02*
X86060Y-62900D01*
X86120Y-62580D02*
X86060Y-62720D01*
X86260Y-62520D02*
X86120Y-62580D01*
X86420Y-62500D02*
X86260Y-62520D01*
X86540Y-62500D02*
X86420Y-62500D01*
X86680Y-62460D02*
X86540Y-62500D01*
X86820Y-62400D02*
X86680Y-62460D01*
X87000Y-62360D02*
X86820Y-62400D01*
X87160Y-62280D02*
X87000Y-62360D01*
X87320Y-62180D02*
X87160Y-62280D01*
X87440Y-62000D02*
X87320Y-62180D01*
X87540Y-61840D02*
X87440Y-62000D01*
X87680Y-61720D02*
X87540Y-61840D01*
X87760Y-61600D02*
X87680Y-61720D01*
X87780Y-61480D02*
X87760Y-61600D01*
X87780Y-61320D02*
X87780Y-61480D01*
X87820Y-61220D02*
X87780Y-61320D01*
X87940Y-61000D02*
X87820Y-61220D01*
X87980Y-60860D02*
X87940Y-61000D01*
X87980Y-60740D02*
X87980Y-60860D01*
X87940Y-60640D02*
X87980Y-60740D01*
X87840Y-60520D02*
X87940Y-60640D01*
X87720Y-60380D02*
X87840Y-60520D01*
X87660Y-60240D02*
X87720Y-60380D01*
X87580Y-60120D02*
X87660Y-60240D01*
X87440Y-59980D02*
X87580Y-60120D01*
X87260Y-59860D02*
X87440Y-59980D01*
X87080Y-59740D02*
X87260Y-59860D01*
X86980Y-59620D02*
X87080Y-59740D01*
X86920Y-59500D02*
X86980Y-59620D01*
X86840Y-59320D02*
X86920Y-59500D01*
X86740Y-59100D02*
X86840Y-59320D01*
X86600Y-58880D02*
X86740Y-59100D01*
X86420Y-58740D02*
X86600Y-58880D01*
X86200Y-58700D02*
X86420Y-58740D01*
X86020Y-58680D02*
X86200Y-58700D01*
X85880Y-58600D02*
X86020Y-58680D01*
X85840Y-58480D02*
X85880Y-58600D01*
X85840Y-58320D02*
X85840Y-58480D01*
X85800Y-58100D02*
X85840Y-58320D01*
X85740Y-57960D02*
X85800Y-58100D01*
X85740Y-57880D02*
X85740Y-57960D01*
X85800Y-57680D02*
X85740Y-57880D01*
X85860Y-57540D02*
X85800Y-57680D01*
X85880Y-57400D02*
X85860Y-57540D01*
X85840Y-57280D02*
X85880Y-57400D01*
X85700Y-57120D02*
X85840Y-57280D01*
X85600Y-56960D02*
X85700Y-57120D01*
X85520Y-56780D02*
X85600Y-56960D01*
X85480Y-56620D02*
X85520Y-56780D01*
X85480Y-56480D02*
X85480Y-56620D01*
X85450Y-56350D02*
X85480Y-56480D01*
X85400Y-56200D02*
X85450Y-56350D01*
X73050Y-56200D02*
X85400Y-56200D01*
G54D12*
X75800Y-56600D03*
X81100Y-64800D03*
X84200Y-61900D03*
X84700Y-58000D03*
X85400Y-57200D03*
X84700Y-61900D03*
X84200Y-58500D03*
X84700Y-58500D03*
G54D13*
X83583Y-63805D03*
X83583Y-63550D03*
X83583Y-63294D03*
X82716Y-63294D03*
X82716Y-63550D03*
X82716Y-63805D03*
G54D14*
X83995Y-57388D03*
X84585Y-57388D03*
X82814Y-57388D03*
G54D15*
X84290Y-56700D03*
X83109Y-56700D03*
G54D16*
X85018Y-56700D03*
X82381Y-56700D03*
G54D17*
X85700Y-61262D03*
X85200Y-61262D03*
X84700Y-61262D03*
X84200Y-61262D03*
X83700Y-61262D03*
X83200Y-61262D03*
X82700Y-61262D03*
X82700Y-59137D03*
X83200Y-59137D03*
X83700Y-59137D03*
X84200Y-59137D03*
X84700Y-59137D03*
X85200Y-59137D03*
X85700Y-59137D03*
G54D10*
G36*
X75578Y-57064D02*
X74164Y-58478D01*
X73457Y-57771D01*
X74871Y-56357D01*
X75578Y-57064D01*
X75578Y-57064D01*
G37*
G36*
X81942Y-63428D02*
X80528Y-64842D01*
X79821Y-64135D01*
X81235Y-62721D01*
X81942Y-63428D01*
X81942Y-63428D01*
G37*
G54D18*
X77700Y-60600D03*
G54D19*
X80600Y-57433D03*
X80975Y-56567D03*
X80225Y-56567D03*
X81700Y-56967D03*
X81325Y-57833D03*
X82075Y-57833D03*
G54D20*
X84450Y-64650D03*
X84450Y-63450D03*
G54D21*
X83525Y-62650D03*
X82775Y-62650D03*
X84075Y-62650D03*
X84825Y-62650D03*
X83525Y-64450D03*
X82775Y-64450D03*
G54D22*
X86400Y-59500D03*
X86400Y-60100D03*
G54D23*
X82200Y-64677D03*
X82200Y-64323D03*
G54D24*
X82773Y-61850D03*
X83127Y-61850D03*
G54D23*
X85700Y-62177D03*
X85700Y-61823D03*
X82200Y-59877D03*
X82200Y-59523D03*
X81700Y-64323D03*
X81700Y-64677D03*
G54D24*
X82277Y-58300D03*
X81923Y-58300D03*
G54D23*
X82200Y-60677D03*
X82200Y-60323D03*
X85400Y-64023D03*
X85400Y-64377D03*
X85150Y-58077D03*
X85150Y-57723D03*
G54D24*
X86577Y-60600D03*
X86223Y-60600D03*
X86223Y-61100D03*
X86577Y-61100D03*
X85477Y-58500D03*
X85123Y-58500D03*
G54D23*
X82200Y-61477D03*
X82200Y-61123D03*
G54D24*
X81923Y-59100D03*
X82277Y-59100D03*
X81577Y-58300D03*
X81223Y-58300D03*
G54D23*
X85200Y-62177D03*
X85200Y-61823D03*
X79700Y-56523D03*
X79700Y-56877D03*
X83200Y-58223D03*
X83200Y-58577D03*
G54D25*
X82250Y-63950D03*
X84100Y-64000D03*
X81850Y-60950D03*
X85800Y-59850D03*
X86550Y-61450D03*
X82100Y-57250D03*
X79350Y-56400D03*
X83950Y-58100D03*
X80800Y-57950D03*
X77900Y-56450D03*
X81300Y-64400D03*
X84450Y-62250D03*
X78900Y-57800D03*
X81700Y-57400D03*
X85650Y-63600D03*
X85550Y-57600D03*
X83700Y-56675D03*
X85300Y-63300D03*
X78650Y-64275D03*
X78750Y-56975D03*
X81025Y-57050D03*
X83850Y-59700D03*
X83325Y-57575D03*
X84425Y-59950D03*
X86850Y-60275D03*
X87400Y-60975D03*
X86450Y-61925D03*
X79550Y-64700D03*
X73900Y-59000D03*
X83700Y-62050D03*
X83450Y-59850D03*
X84050Y-60450D03*
X85450Y-62500D03*
X86050Y-61500D03*
X81450Y-62100D03*
X82350Y-61850D03*
X78200Y-56700D03*
X81350Y-59400D03*
X81150Y-62400D03*
X82650Y-58100D03*
G54D26*
X85200Y-61262D02*
X85200Y-61823D01*
X85700Y-61262D02*
X85700Y-61823D01*
X83525Y-64000D02*
X84100Y-64000D01*
X82394Y-63805D02*
X82716Y-63805D01*
X82250Y-63950D02*
X82394Y-63805D01*
X83525Y-64450D02*
X83525Y-64000D01*
X83525Y-64000D02*
X83525Y-63863D01*
X83525Y-63863D02*
X83583Y-63805D01*
X84450Y-64650D02*
X83725Y-64650D01*
X83725Y-64650D02*
X83525Y-64450D01*
X85400Y-64377D02*
X85400Y-64450D01*
X85200Y-64650D02*
X84450Y-64650D01*
X85400Y-64450D02*
X85200Y-64650D01*
X81950Y-60650D02*
X81950Y-60950D01*
X81900Y-60950D02*
X81850Y-60950D01*
X81950Y-60900D02*
X81900Y-60950D01*
X81950Y-60950D02*
X81950Y-60900D01*
X82200Y-60677D02*
X83027Y-60677D01*
X83200Y-60850D02*
X83200Y-61262D01*
X83027Y-60677D02*
X83200Y-60850D01*
X82200Y-60677D02*
X81977Y-60677D01*
X82023Y-59877D02*
X82200Y-59877D01*
X81950Y-59950D02*
X82023Y-59877D01*
X81950Y-60650D02*
X81950Y-59950D01*
X81977Y-60677D02*
X81950Y-60650D01*
X84200Y-59137D02*
X84200Y-58500D01*
X81577Y-58300D02*
X81577Y-58223D01*
X81967Y-57833D02*
X82075Y-57833D01*
X81577Y-58223D02*
X81967Y-57833D01*
X82075Y-57833D02*
X84033Y-57833D01*
X84033Y-57833D02*
X84700Y-58500D01*
X84700Y-59137D02*
X84700Y-58500D01*
X81325Y-57833D02*
X81325Y-56625D01*
X81267Y-56567D02*
X80975Y-56567D01*
X81325Y-56625D02*
X81267Y-56567D01*
X79700Y-56877D02*
X79927Y-56877D01*
X79927Y-56877D02*
X79950Y-56900D01*
X79950Y-56900D02*
X80500Y-56900D01*
X80500Y-56900D02*
X80833Y-56567D01*
X80833Y-56567D02*
X80975Y-56567D01*
X81223Y-58300D02*
X81223Y-58373D01*
X81923Y-58377D02*
X81923Y-58300D01*
X81750Y-58550D02*
X81923Y-58377D01*
X81400Y-58550D02*
X81750Y-58550D01*
X81223Y-58373D02*
X81400Y-58550D01*
X81223Y-58300D02*
X81223Y-57935D01*
X81223Y-57935D02*
X81325Y-57833D01*
X86400Y-59500D02*
X86400Y-59650D01*
X86925Y-61100D02*
X86577Y-61100D01*
X87125Y-60900D02*
X86925Y-61100D01*
X87125Y-60125D02*
X87125Y-60900D01*
X86825Y-59825D02*
X87125Y-60125D01*
X86575Y-59825D02*
X86825Y-59825D01*
X86400Y-59650D02*
X86575Y-59825D01*
X85477Y-58500D02*
X85477Y-58914D01*
X85477Y-58914D02*
X85700Y-59137D01*
X85150Y-58077D02*
X85277Y-58077D01*
X85477Y-58277D02*
X85477Y-58500D01*
X85277Y-58077D02*
X85477Y-58277D01*
X84733Y-60639D02*
X84950Y-60639D01*
X84573Y-60800D02*
X84733Y-60639D01*
X83400Y-60800D02*
X84573Y-60800D01*
X82923Y-60323D02*
X83400Y-60800D01*
X82200Y-60323D02*
X82923Y-60323D01*
X85150Y-60500D02*
X85800Y-59850D01*
X85010Y-60639D02*
X84950Y-60639D01*
X85150Y-60500D02*
X85010Y-60639D01*
X86550Y-61450D02*
X86577Y-61423D01*
X86577Y-61423D02*
X86577Y-61100D01*
X86400Y-59500D02*
X86062Y-59500D01*
X86062Y-59500D02*
X85700Y-59137D01*
X83200Y-59137D02*
X83200Y-58577D01*
X82700Y-59137D02*
X82314Y-59137D01*
X82314Y-59137D02*
X82277Y-59100D01*
X84200Y-61900D02*
X84200Y-61262D01*
X81817Y-56967D02*
X81700Y-56967D01*
X82100Y-57250D02*
X81817Y-56967D01*
X83700Y-59137D02*
X83700Y-58350D01*
X79473Y-56523D02*
X79700Y-56523D01*
X79350Y-56400D02*
X79473Y-56523D01*
X83700Y-58350D02*
X83950Y-58100D01*
X79700Y-56523D02*
X80181Y-56523D01*
X80181Y-56523D02*
X80225Y-56567D01*
X80600Y-57750D02*
X80800Y-57950D01*
X80600Y-57433D02*
X80600Y-57750D01*
X77900Y-56450D02*
X78850Y-56450D01*
X78850Y-56450D02*
X79550Y-57150D01*
X80300Y-57800D02*
X80800Y-58300D01*
X80800Y-58300D02*
X81250Y-58750D01*
X82277Y-58523D02*
X82277Y-58300D01*
X82050Y-58750D02*
X82277Y-58523D01*
X81250Y-58750D02*
X82050Y-58750D01*
X80300Y-57400D02*
X80300Y-57800D01*
X80050Y-57150D02*
X80300Y-57400D01*
X79550Y-57150D02*
X80050Y-57150D01*
X81100Y-64800D02*
X81150Y-64800D01*
X81150Y-64800D02*
X81300Y-64650D01*
X84075Y-62650D02*
X84075Y-62625D01*
X81327Y-64677D02*
X81700Y-64677D01*
X81300Y-64650D02*
X81327Y-64677D01*
X81300Y-64400D02*
X81300Y-64650D01*
X84075Y-62625D02*
X84450Y-62250D01*
X83525Y-62650D02*
X84075Y-62650D01*
X83583Y-63294D02*
X83583Y-62708D01*
X83583Y-62708D02*
X83525Y-62650D01*
X82814Y-57388D02*
X82411Y-57388D01*
X77700Y-59000D02*
X77700Y-60600D01*
X78900Y-57800D02*
X77700Y-59000D01*
X81800Y-57500D02*
X81700Y-57400D01*
X82300Y-57500D02*
X81800Y-57500D01*
X82411Y-57388D02*
X82300Y-57500D01*
X84585Y-57388D02*
X85211Y-57388D01*
X85211Y-57388D02*
X85400Y-57200D01*
X85400Y-63850D02*
X85400Y-64023D01*
X85650Y-63600D02*
X85400Y-63850D01*
X85427Y-57723D02*
X85550Y-57600D01*
X85150Y-57723D02*
X85427Y-57723D01*
X84700Y-58000D02*
X84750Y-58000D01*
X85027Y-57723D02*
X85150Y-57723D01*
X84750Y-58000D02*
X85027Y-57723D01*
X83995Y-57388D02*
X83995Y-57495D01*
X84500Y-58000D02*
X84700Y-58000D01*
X83995Y-57495D02*
X84500Y-58000D01*
X82200Y-61123D02*
X82560Y-61123D01*
X82560Y-61123D02*
X82700Y-61262D01*
X83700Y-61262D02*
X83700Y-61450D01*
X83300Y-61850D02*
X83127Y-61850D01*
X83700Y-61450D02*
X83300Y-61850D01*
X84700Y-61900D02*
X84700Y-61262D01*
X84700Y-61262D02*
X84700Y-60900D01*
X84700Y-60900D02*
X84800Y-60800D01*
X84800Y-60800D02*
X86223Y-60800D01*
X86223Y-60800D02*
X86200Y-60800D01*
X86200Y-60800D02*
X86223Y-60800D01*
X86223Y-61100D02*
X86223Y-60800D01*
X86223Y-60800D02*
X86223Y-60600D01*
X83325Y-57575D02*
X83325Y-57050D01*
X83325Y-57050D02*
X83700Y-56675D01*
X84825Y-62650D02*
X84825Y-62825D01*
X84825Y-62825D02*
X85300Y-63300D01*
X79075Y-64700D02*
X78650Y-64275D01*
X79550Y-64700D02*
X79075Y-64700D01*
X78725Y-56950D02*
X78750Y-56975D01*
X78525Y-56950D02*
X78725Y-56950D01*
X75800Y-56600D02*
X76175Y-56975D01*
X78025Y-56950D02*
X78525Y-56950D01*
X78525Y-56950D02*
X78550Y-56950D01*
X78000Y-56925D02*
X78025Y-56950D01*
X76125Y-56925D02*
X78000Y-56925D01*
X76175Y-56975D02*
X76125Y-56925D01*
X84425Y-59950D02*
X84100Y-59950D01*
X84100Y-59950D02*
X83850Y-59700D01*
X83325Y-57575D02*
X83325Y-57550D01*
X82200Y-59523D02*
X82423Y-59523D01*
X82500Y-59600D02*
X84200Y-59600D01*
X82423Y-59523D02*
X82500Y-59600D01*
X86650Y-60100D02*
X86825Y-60275D01*
X86825Y-60275D02*
X86850Y-60275D01*
X86400Y-60100D02*
X86650Y-60100D01*
X86450Y-61925D02*
X87400Y-60975D01*
X74518Y-57418D02*
X74518Y-57481D01*
X80468Y-63781D02*
X80881Y-63781D01*
X79550Y-64700D02*
X80468Y-63781D01*
X73900Y-58100D02*
X73900Y-59000D01*
X74518Y-57481D02*
X73900Y-58100D01*
X75800Y-56600D02*
X75336Y-56600D01*
X75336Y-56600D02*
X74518Y-57418D01*
X85123Y-58500D02*
X85123Y-59060D01*
X85123Y-59060D02*
X85200Y-59137D01*
X84425Y-59950D02*
X84200Y-59600D01*
X85200Y-59600D02*
X85900Y-59600D01*
X85900Y-59600D02*
X86400Y-60100D01*
X85200Y-59600D02*
X85200Y-59137D01*
X84200Y-59600D02*
X85200Y-59600D01*
X83700Y-62000D02*
X83700Y-62050D01*
X83150Y-62300D02*
X83450Y-62000D01*
X83450Y-62000D02*
X83700Y-62000D01*
X83150Y-62750D02*
X83150Y-62300D01*
X82716Y-63294D02*
X81369Y-63294D01*
X81369Y-63294D02*
X80881Y-63781D01*
X82200Y-64677D02*
X82548Y-64677D01*
X82548Y-64677D02*
X82775Y-64450D01*
X83150Y-63350D02*
X83150Y-62750D01*
X83050Y-62650D02*
X82775Y-62650D01*
X83150Y-62750D02*
X83050Y-62650D01*
X82775Y-64450D02*
X83000Y-64450D01*
X83094Y-63294D02*
X82716Y-63294D01*
X83150Y-63350D02*
X83094Y-63294D01*
X83150Y-64300D02*
X83150Y-63350D01*
X83000Y-64450D02*
X83150Y-64300D01*
X86577Y-60600D02*
X86577Y-60277D01*
X86577Y-60277D02*
X86400Y-60100D01*
X83450Y-59850D02*
X84050Y-60450D01*
X85700Y-62250D02*
X85450Y-62500D01*
X85700Y-62250D02*
X85700Y-62177D01*
X85200Y-62177D02*
X85200Y-62600D01*
X86050Y-62250D02*
X86050Y-61500D01*
X85550Y-62750D02*
X86050Y-62250D01*
X85350Y-62750D02*
X85550Y-62750D01*
X85200Y-62600D02*
X85350Y-62750D01*
X82750Y-61850D02*
X82500Y-62100D01*
X82500Y-62100D02*
X81450Y-62100D01*
X82773Y-61850D02*
X82750Y-61850D01*
X82200Y-61477D02*
X82200Y-61700D01*
X82200Y-61700D02*
X82350Y-61850D01*
X78200Y-56700D02*
X78850Y-56700D01*
X78850Y-56700D02*
X79460Y-57310D01*
X79550Y-57310D02*
X79460Y-57310D01*
X81923Y-59100D02*
X81373Y-59100D01*
X79910Y-57310D02*
X79550Y-57310D01*
X80100Y-57500D02*
X79910Y-57310D01*
X80100Y-57826D02*
X80100Y-57500D01*
X81373Y-59100D02*
X80100Y-57826D01*
X83200Y-58223D02*
X82773Y-58223D01*
X81350Y-59400D02*
X81350Y-61300D01*
X81350Y-61300D02*
X81350Y-61700D01*
X81350Y-61700D02*
X81150Y-61900D01*
X81150Y-61900D02*
X81150Y-62400D01*
X82773Y-58223D02*
X82650Y-58100D01*
X83583Y-63550D02*
X84350Y-63550D01*
X84350Y-63550D02*
X84450Y-63450D01*
X81950Y-64323D02*
X81950Y-63900D01*
X82300Y-63550D02*
X82716Y-63550D01*
X81950Y-63900D02*
X82300Y-63550D01*
X81700Y-64323D02*
X81950Y-64323D01*
X81950Y-64323D02*
X82200Y-64323D01*
G54D10*
G36*
X78098Y-56950D02*
X76977Y-56949D01*
X76205Y-57268D01*
X76006Y-57350D01*
X75635Y-57503D01*
X74968Y-58169D01*
X74968Y-58027D01*
X74968Y-57939D01*
X74518Y-57488D01*
X73713Y-58293D01*
X73713Y-58381D01*
X74022Y-58690D01*
X74114Y-58728D01*
X74213Y-58728D01*
X74305Y-58690D01*
X74376Y-58620D01*
X74968Y-58027D01*
X74968Y-58169D01*
X74607Y-58529D01*
X74050Y-59870D01*
X74050Y-60559D01*
X74043Y-60550D01*
X74035Y-60540D01*
X74028Y-60529D01*
X73918Y-60401D01*
X73857Y-60292D01*
X73789Y-60056D01*
X73789Y-59880D01*
X73785Y-59858D01*
X73784Y-59838D01*
X73727Y-59611D01*
X73708Y-59404D01*
X73707Y-59400D01*
X73707Y-59394D01*
X73697Y-59367D01*
X73690Y-59341D01*
X73687Y-59337D01*
X73685Y-59332D01*
X73625Y-59232D01*
X73610Y-59216D01*
X73598Y-59198D01*
X73588Y-59192D01*
X73580Y-59183D01*
X73561Y-59174D01*
X73543Y-59162D01*
X73475Y-59135D01*
X73442Y-59102D01*
X73315Y-58812D01*
X73309Y-58803D01*
X73305Y-58792D01*
X73245Y-58692D01*
X73239Y-58686D01*
X73235Y-58678D01*
X73209Y-58643D01*
X73209Y-58634D01*
X73247Y-58546D01*
X73373Y-58384D01*
X73376Y-58378D01*
X73381Y-58374D01*
X73390Y-58350D01*
X73403Y-58325D01*
X73404Y-58318D01*
X73406Y-58313D01*
X73426Y-58213D01*
X73426Y-58202D01*
X73429Y-58191D01*
X73435Y-58102D01*
X73554Y-58222D01*
X73642Y-58222D01*
X74447Y-57418D01*
X73996Y-56967D01*
X73908Y-56967D01*
X73466Y-57408D01*
X73466Y-57406D01*
X73426Y-57206D01*
X73422Y-57198D01*
X73421Y-57189D01*
X73410Y-57168D01*
X73401Y-57145D01*
X73394Y-57139D01*
X73390Y-57131D01*
X73290Y-57011D01*
X73271Y-56995D01*
X73269Y-56994D01*
X73269Y-56847D01*
X73287Y-56648D01*
X73304Y-56581D01*
X73304Y-56576D01*
X73306Y-56572D01*
X73306Y-56543D01*
X73307Y-56514D01*
X73306Y-56511D01*
X73306Y-56506D01*
X73286Y-56406D01*
X73280Y-56391D01*
X73276Y-56375D01*
X73273Y-56369D01*
X74505Y-56369D01*
X74067Y-56808D01*
X74067Y-56896D01*
X74518Y-57347D01*
X74523Y-57341D01*
X74594Y-57412D01*
X74588Y-57418D01*
X75039Y-57868D01*
X75127Y-57868D01*
X75720Y-57276D01*
X75790Y-57205D01*
X75828Y-57113D01*
X75828Y-57014D01*
X75822Y-56999D01*
X75912Y-56991D01*
X75997Y-56956D01*
X76006Y-56876D01*
X75800Y-56670D01*
X75794Y-56676D01*
X75723Y-56605D01*
X75729Y-56600D01*
X75723Y-56594D01*
X75794Y-56523D01*
X75800Y-56529D01*
X75805Y-56523D01*
X75876Y-56594D01*
X75870Y-56600D01*
X76076Y-56806D01*
X76156Y-56797D01*
X76205Y-56645D01*
X76191Y-56487D01*
X76156Y-56402D01*
X76076Y-56393D01*
X76101Y-56369D01*
X77640Y-56369D01*
X77630Y-56396D01*
X77629Y-56503D01*
X77670Y-56602D01*
X77746Y-56678D01*
X77846Y-56719D01*
X77929Y-56720D01*
X77929Y-56753D01*
X77970Y-56852D01*
X78046Y-56928D01*
X78098Y-56950D01*
X78098Y-56950D01*
G37*
G54D27*
X78098Y-56950D02*
X76977Y-56949D01*
X76205Y-57268D01*
X76006Y-57350D01*
X75635Y-57503D01*
X74968Y-58169D01*
X74968Y-58027D01*
X74968Y-57939D01*
X74518Y-57488D01*
X73713Y-58293D01*
X73713Y-58381D01*
X74022Y-58690D01*
X74114Y-58728D01*
X74213Y-58728D01*
X74305Y-58690D01*
X74376Y-58620D01*
X74968Y-58027D01*
X74968Y-58169D01*
X74607Y-58529D01*
X74050Y-59870D01*
X74050Y-60559D01*
X74043Y-60550D01*
X74035Y-60540D01*
X74028Y-60529D01*
X73918Y-60401D01*
X73857Y-60292D01*
X73789Y-60056D01*
X73789Y-59880D01*
X73785Y-59858D01*
X73784Y-59838D01*
X73727Y-59611D01*
X73708Y-59404D01*
X73707Y-59400D01*
X73707Y-59394D01*
X73697Y-59367D01*
X73690Y-59341D01*
X73687Y-59337D01*
X73685Y-59332D01*
X73625Y-59232D01*
X73610Y-59216D01*
X73598Y-59198D01*
X73588Y-59192D01*
X73580Y-59183D01*
X73561Y-59174D01*
X73543Y-59162D01*
X73475Y-59135D01*
X73442Y-59102D01*
X73315Y-58812D01*
X73309Y-58803D01*
X73305Y-58792D01*
X73245Y-58692D01*
X73239Y-58686D01*
X73235Y-58678D01*
X73209Y-58643D01*
X73209Y-58634D01*
X73247Y-58546D01*
X73373Y-58384D01*
X73376Y-58378D01*
X73381Y-58374D01*
X73390Y-58350D01*
X73403Y-58325D01*
X73404Y-58318D01*
X73406Y-58313D01*
X73426Y-58213D01*
X73426Y-58202D01*
X73429Y-58191D01*
X73435Y-58102D01*
X73554Y-58222D01*
X73642Y-58222D01*
X74447Y-57418D01*
X73996Y-56967D01*
X73908Y-56967D01*
X73466Y-57408D01*
X73466Y-57406D01*
X73426Y-57206D01*
X73422Y-57198D01*
X73421Y-57189D01*
X73410Y-57168D01*
X73401Y-57145D01*
X73394Y-57139D01*
X73390Y-57131D01*
X73290Y-57011D01*
X73271Y-56995D01*
X73269Y-56994D01*
X73269Y-56847D01*
X73287Y-56648D01*
X73304Y-56581D01*
X73304Y-56576D01*
X73306Y-56572D01*
X73306Y-56543D01*
X73307Y-56514D01*
X73306Y-56511D01*
X73306Y-56506D01*
X73286Y-56406D01*
X73280Y-56391D01*
X73276Y-56375D01*
X73273Y-56369D01*
X74505Y-56369D01*
X74067Y-56808D01*
X74067Y-56896D01*
X74518Y-57347D01*
X74523Y-57341D01*
X74594Y-57412D01*
X74588Y-57418D01*
X75039Y-57868D01*
X75127Y-57868D01*
X75720Y-57276D01*
X75790Y-57205D01*
X75828Y-57113D01*
X75828Y-57014D01*
X75822Y-56999D01*
X75912Y-56991D01*
X75997Y-56956D01*
X76006Y-56876D01*
X75800Y-56670D01*
X75794Y-56676D01*
X75723Y-56605D01*
X75729Y-56600D01*
X75723Y-56594D01*
X75794Y-56523D01*
X75800Y-56529D01*
X75805Y-56523D01*
X75876Y-56594D01*
X75870Y-56600D01*
X76076Y-56806D01*
X76156Y-56797D01*
X76205Y-56645D01*
X76191Y-56487D01*
X76156Y-56402D01*
X76076Y-56393D01*
X76101Y-56369D01*
X77640Y-56369D01*
X77630Y-56396D01*
X77629Y-56503D01*
X77670Y-56602D01*
X77746Y-56678D01*
X77846Y-56719D01*
X77929Y-56720D01*
X77929Y-56753D01*
X77970Y-56852D01*
X78046Y-56928D01*
X78098Y-56950D01*
G54D10*
G36*
X79117Y-57236D02*
X78429Y-56950D01*
X78300Y-56950D01*
X78352Y-56929D01*
X78391Y-56890D01*
X78771Y-56890D01*
X79117Y-57236D01*
X79117Y-57236D01*
G37*
G54D27*
X79117Y-57236D02*
X78429Y-56950D01*
X78300Y-56950D01*
X78352Y-56929D01*
X78391Y-56890D01*
X78771Y-56890D01*
X79117Y-57236D01*
G54D10*
G36*
X81135Y-57487D02*
X81082Y-57508D01*
X81040Y-57550D01*
X81017Y-57606D01*
X81017Y-57665D01*
X81017Y-57785D01*
X80953Y-57721D01*
X80892Y-57696D01*
X80907Y-57659D01*
X80907Y-57600D01*
X80907Y-57206D01*
X80884Y-57151D01*
X80842Y-57108D01*
X80787Y-57086D01*
X80727Y-57085D01*
X80520Y-57085D01*
X80572Y-57075D01*
X80634Y-57034D01*
X80764Y-56904D01*
X80787Y-56913D01*
X80847Y-56914D01*
X81135Y-56914D01*
X81135Y-57487D01*
X81135Y-57487D01*
G37*
G54D27*
X81135Y-57487D02*
X81082Y-57508D01*
X81040Y-57550D01*
X81017Y-57606D01*
X81017Y-57665D01*
X81017Y-57785D01*
X80953Y-57721D01*
X80892Y-57696D01*
X80907Y-57659D01*
X80907Y-57600D01*
X80907Y-57206D01*
X80884Y-57151D01*
X80842Y-57108D01*
X80787Y-57086D01*
X80727Y-57085D01*
X80520Y-57085D01*
X80572Y-57075D01*
X80634Y-57034D01*
X80764Y-56904D01*
X80787Y-56913D01*
X80847Y-56914D01*
X81135Y-56914D01*
X81135Y-57487D01*
G54D10*
G36*
X82257Y-59562D02*
X82250Y-59562D01*
X82250Y-59580D01*
X82150Y-59580D01*
X82150Y-59562D01*
X81894Y-59562D01*
X81832Y-59624D01*
X81831Y-59651D01*
X81869Y-59742D01*
X81879Y-59752D01*
X81815Y-59815D01*
X81774Y-59877D01*
X81760Y-59950D01*
X81760Y-60650D01*
X81760Y-60695D01*
X81697Y-60720D01*
X81621Y-60796D01*
X81580Y-60896D01*
X81579Y-61003D01*
X81620Y-61102D01*
X81696Y-61178D01*
X81796Y-61219D01*
X81903Y-61220D01*
X81931Y-61208D01*
X81931Y-61231D01*
X81954Y-61286D01*
X81968Y-61299D01*
X81954Y-61313D01*
X81932Y-61368D01*
X81931Y-61428D01*
X81931Y-61585D01*
X81954Y-61640D01*
X81996Y-61682D01*
X82010Y-61688D01*
X82010Y-61700D01*
X82024Y-61772D01*
X82065Y-61834D01*
X82080Y-61848D01*
X82079Y-61903D01*
X82082Y-61910D01*
X81641Y-61910D01*
X81603Y-61871D01*
X81503Y-61830D01*
X81487Y-61830D01*
X81525Y-61772D01*
X81540Y-61700D01*
X81540Y-61300D01*
X81540Y-59591D01*
X81578Y-59553D01*
X81619Y-59453D01*
X81620Y-59346D01*
X81596Y-59290D01*
X81711Y-59290D01*
X81717Y-59302D01*
X81759Y-59345D01*
X81814Y-59367D01*
X81843Y-59367D01*
X81831Y-59394D01*
X81832Y-59421D01*
X81894Y-59483D01*
X82150Y-59483D01*
X82150Y-59465D01*
X82250Y-59465D01*
X82250Y-59483D01*
X82257Y-59483D01*
X82257Y-59562D01*
X82257Y-59562D01*
G37*
G54D27*
X82257Y-59562D02*
X82250Y-59562D01*
X82250Y-59580D01*
X82150Y-59580D01*
X82150Y-59562D01*
X81894Y-59562D01*
X81832Y-59624D01*
X81831Y-59651D01*
X81869Y-59742D01*
X81879Y-59752D01*
X81815Y-59815D01*
X81774Y-59877D01*
X81760Y-59950D01*
X81760Y-60650D01*
X81760Y-60695D01*
X81697Y-60720D01*
X81621Y-60796D01*
X81580Y-60896D01*
X81579Y-61003D01*
X81620Y-61102D01*
X81696Y-61178D01*
X81796Y-61219D01*
X81903Y-61220D01*
X81931Y-61208D01*
X81931Y-61231D01*
X81954Y-61286D01*
X81968Y-61299D01*
X81954Y-61313D01*
X81932Y-61368D01*
X81931Y-61428D01*
X81931Y-61585D01*
X81954Y-61640D01*
X81996Y-61682D01*
X82010Y-61688D01*
X82010Y-61700D01*
X82024Y-61772D01*
X82065Y-61834D01*
X82080Y-61848D01*
X82079Y-61903D01*
X82082Y-61910D01*
X81641Y-61910D01*
X81603Y-61871D01*
X81503Y-61830D01*
X81487Y-61830D01*
X81525Y-61772D01*
X81540Y-61700D01*
X81540Y-61300D01*
X81540Y-59591D01*
X81578Y-59553D01*
X81619Y-59453D01*
X81620Y-59346D01*
X81596Y-59290D01*
X81711Y-59290D01*
X81717Y-59302D01*
X81759Y-59345D01*
X81814Y-59367D01*
X81843Y-59367D01*
X81831Y-59394D01*
X81832Y-59421D01*
X81894Y-59483D01*
X82150Y-59483D01*
X82150Y-59465D01*
X82250Y-59465D01*
X82250Y-59483D01*
X82257Y-59483D01*
X82257Y-59562D01*
G54D10*
G36*
X82257Y-64716D02*
X82250Y-64716D01*
X82250Y-64734D01*
X82150Y-64734D01*
X82150Y-64716D01*
X82142Y-64716D01*
X82142Y-64637D01*
X82150Y-64637D01*
X82150Y-64619D01*
X82250Y-64619D01*
X82250Y-64637D01*
X82257Y-64637D01*
X82257Y-64716D01*
X82257Y-64716D01*
G37*
G54D27*
X82257Y-64716D02*
X82250Y-64716D01*
X82250Y-64734D01*
X82150Y-64734D01*
X82150Y-64716D01*
X82142Y-64716D01*
X82142Y-64637D01*
X82150Y-64637D01*
X82150Y-64619D01*
X82250Y-64619D01*
X82250Y-64637D01*
X82257Y-64637D01*
X82257Y-64716D01*
G54D10*
G36*
X82832Y-64500D02*
X82825Y-64500D01*
X82825Y-64507D01*
X82725Y-64507D01*
X82725Y-64500D01*
X82717Y-64500D01*
X82717Y-64400D01*
X82725Y-64400D01*
X82725Y-64392D01*
X82825Y-64392D01*
X82825Y-64400D01*
X82832Y-64400D01*
X82832Y-64500D01*
X82832Y-64500D01*
G37*
G54D27*
X82832Y-64500D02*
X82825Y-64500D01*
X82825Y-64507D01*
X82725Y-64507D01*
X82725Y-64500D01*
X82717Y-64500D01*
X82717Y-64400D01*
X82725Y-64400D01*
X82725Y-64392D01*
X82825Y-64392D01*
X82825Y-64400D01*
X82832Y-64400D01*
X82832Y-64500D01*
G54D10*
G36*
X84180Y-62199D02*
X84180Y-62224D01*
X83870Y-62224D01*
X83815Y-62247D01*
X83800Y-62262D01*
X83785Y-62247D01*
X83729Y-62225D01*
X83670Y-62224D01*
X83320Y-62224D01*
X83265Y-62247D01*
X83222Y-62289D01*
X83200Y-62345D01*
X83199Y-62374D01*
X83199Y-62325D01*
X83161Y-62233D01*
X83091Y-62162D01*
X82999Y-62124D01*
X82887Y-62125D01*
X82825Y-62187D01*
X82825Y-62600D01*
X82832Y-62600D01*
X82832Y-62700D01*
X82825Y-62700D01*
X82825Y-62707D01*
X82725Y-62707D01*
X82725Y-62700D01*
X82412Y-62700D01*
X82350Y-62762D01*
X82349Y-62875D01*
X82350Y-62974D01*
X82366Y-63015D01*
X82308Y-63073D01*
X82270Y-63165D01*
X82270Y-63192D01*
X82332Y-63254D01*
X82666Y-63254D01*
X82666Y-63236D01*
X82725Y-63236D01*
X82766Y-63236D01*
X82766Y-63254D01*
X83101Y-63254D01*
X83163Y-63192D01*
X83163Y-63165D01*
X83134Y-63094D01*
X83161Y-63066D01*
X83199Y-62974D01*
X83199Y-62954D01*
X83199Y-62954D01*
X83222Y-63009D01*
X83264Y-63052D01*
X83320Y-63074D01*
X83333Y-63074D01*
X83301Y-63088D01*
X83259Y-63130D01*
X83236Y-63185D01*
X83236Y-63245D01*
X83236Y-63402D01*
X83244Y-63422D01*
X83236Y-63441D01*
X83236Y-63500D01*
X83236Y-63658D01*
X83244Y-63677D01*
X83236Y-63697D01*
X83236Y-63756D01*
X83236Y-63914D01*
X83258Y-63969D01*
X83301Y-64011D01*
X83333Y-64024D01*
X83320Y-64024D01*
X83265Y-64047D01*
X83222Y-64089D01*
X83200Y-64145D01*
X83199Y-64174D01*
X83199Y-64125D01*
X83161Y-64033D01*
X83091Y-63962D01*
X83050Y-63946D01*
X83063Y-63914D01*
X83063Y-63854D01*
X83063Y-63697D01*
X83055Y-63677D01*
X83063Y-63658D01*
X83063Y-63599D01*
X83063Y-63576D01*
X83125Y-63514D01*
X83163Y-63422D01*
X83163Y-63395D01*
X83101Y-63333D01*
X82973Y-63333D01*
X82943Y-63321D01*
X82884Y-63321D01*
X82725Y-63321D01*
X82490Y-63321D01*
X82460Y-63333D01*
X82332Y-63333D01*
X82306Y-63360D01*
X82300Y-63360D01*
X82299Y-63360D01*
X82287Y-63362D01*
X82227Y-63374D01*
X82192Y-63397D01*
X82192Y-63378D01*
X82154Y-63286D01*
X81845Y-62977D01*
X81757Y-62977D01*
X80952Y-63781D01*
X80958Y-63787D01*
X80887Y-63858D01*
X80881Y-63852D01*
X80811Y-63923D01*
X80811Y-63781D01*
X80360Y-63331D01*
X80272Y-63331D01*
X79679Y-63923D01*
X79609Y-63994D01*
X79571Y-64086D01*
X79571Y-64185D01*
X79609Y-64277D01*
X79918Y-64586D01*
X80006Y-64586D01*
X80811Y-63781D01*
X80811Y-63923D01*
X80077Y-64657D01*
X80077Y-64745D01*
X80262Y-64930D01*
X75039Y-64930D01*
X75038Y-64929D01*
X75031Y-64903D01*
X74971Y-64784D01*
X74961Y-64770D01*
X74952Y-64753D01*
X74898Y-64686D01*
X74892Y-64657D01*
X74907Y-64568D01*
X74906Y-64542D01*
X74908Y-64517D01*
X74905Y-64509D01*
X74905Y-64501D01*
X74895Y-64479D01*
X74886Y-64454D01*
X74881Y-64448D01*
X74878Y-64441D01*
X74861Y-64425D01*
X74843Y-64404D01*
X74835Y-64400D01*
X74829Y-64396D01*
X74809Y-64388D01*
X74783Y-64375D01*
X74354Y-64261D01*
X74782Y-62869D01*
X74784Y-62845D01*
X75629Y-63692D01*
X76970Y-64249D01*
X78422Y-64250D01*
X79764Y-63696D01*
X80792Y-62670D01*
X80881Y-62456D01*
X80920Y-62552D01*
X80985Y-62617D01*
X80431Y-63172D01*
X80431Y-63260D01*
X80881Y-63711D01*
X81686Y-62906D01*
X81686Y-62818D01*
X81391Y-62523D01*
X81419Y-62453D01*
X81420Y-62369D01*
X81503Y-62370D01*
X81602Y-62329D01*
X81641Y-62290D01*
X82364Y-62290D01*
X82350Y-62325D01*
X82349Y-62424D01*
X82350Y-62537D01*
X82412Y-62600D01*
X82725Y-62600D01*
X82725Y-62187D01*
X82703Y-62165D01*
X82750Y-62118D01*
X82881Y-62118D01*
X82936Y-62095D01*
X82949Y-62081D01*
X82963Y-62095D01*
X83018Y-62117D01*
X83078Y-62118D01*
X83235Y-62118D01*
X83290Y-62095D01*
X83332Y-62053D01*
X83341Y-62031D01*
X83372Y-62025D01*
X83434Y-61984D01*
X83710Y-61708D01*
X83847Y-61708D01*
X83902Y-61685D01*
X83945Y-61643D01*
X83949Y-61631D01*
X83954Y-61643D01*
X83993Y-61682D01*
X83945Y-61729D01*
X83900Y-61840D01*
X83899Y-61959D01*
X83945Y-62069D01*
X84029Y-62154D01*
X84140Y-62199D01*
X84180Y-62199D01*
X84180Y-62199D01*
G37*
G54D27*
X84180Y-62199D02*
X84180Y-62224D01*
X83870Y-62224D01*
X83815Y-62247D01*
X83800Y-62262D01*
X83785Y-62247D01*
X83729Y-62225D01*
X83670Y-62224D01*
X83320Y-62224D01*
X83265Y-62247D01*
X83222Y-62289D01*
X83200Y-62345D01*
X83199Y-62374D01*
X83199Y-62325D01*
X83161Y-62233D01*
X83091Y-62162D01*
X82999Y-62124D01*
X82887Y-62125D01*
X82825Y-62187D01*
X82825Y-62600D01*
X82832Y-62600D01*
X82832Y-62700D01*
X82825Y-62700D01*
X82825Y-62707D01*
X82725Y-62707D01*
X82725Y-62700D01*
X82412Y-62700D01*
X82350Y-62762D01*
X82349Y-62875D01*
X82350Y-62974D01*
X82366Y-63015D01*
X82308Y-63073D01*
X82270Y-63165D01*
X82270Y-63192D01*
X82332Y-63254D01*
X82666Y-63254D01*
X82666Y-63236D01*
X82725Y-63236D01*
X82766Y-63236D01*
X82766Y-63254D01*
X83101Y-63254D01*
X83163Y-63192D01*
X83163Y-63165D01*
X83134Y-63094D01*
X83161Y-63066D01*
X83199Y-62974D01*
X83199Y-62954D01*
X83199Y-62954D01*
X83222Y-63009D01*
X83264Y-63052D01*
X83320Y-63074D01*
X83333Y-63074D01*
X83301Y-63088D01*
X83259Y-63130D01*
X83236Y-63185D01*
X83236Y-63245D01*
X83236Y-63402D01*
X83244Y-63422D01*
X83236Y-63441D01*
X83236Y-63500D01*
X83236Y-63658D01*
X83244Y-63677D01*
X83236Y-63697D01*
X83236Y-63756D01*
X83236Y-63914D01*
X83258Y-63969D01*
X83301Y-64011D01*
X83333Y-64024D01*
X83320Y-64024D01*
X83265Y-64047D01*
X83222Y-64089D01*
X83200Y-64145D01*
X83199Y-64174D01*
X83199Y-64125D01*
X83161Y-64033D01*
X83091Y-63962D01*
X83050Y-63946D01*
X83063Y-63914D01*
X83063Y-63854D01*
X83063Y-63697D01*
X83055Y-63677D01*
X83063Y-63658D01*
X83063Y-63599D01*
X83063Y-63576D01*
X83125Y-63514D01*
X83163Y-63422D01*
X83163Y-63395D01*
X83101Y-63333D01*
X82973Y-63333D01*
X82943Y-63321D01*
X82884Y-63321D01*
X82725Y-63321D01*
X82490Y-63321D01*
X82460Y-63333D01*
X82332Y-63333D01*
X82306Y-63360D01*
X82300Y-63360D01*
X82299Y-63360D01*
X82287Y-63362D01*
X82227Y-63374D01*
X82192Y-63397D01*
X82192Y-63378D01*
X82154Y-63286D01*
X81845Y-62977D01*
X81757Y-62977D01*
X80952Y-63781D01*
X80958Y-63787D01*
X80887Y-63858D01*
X80881Y-63852D01*
X80811Y-63923D01*
X80811Y-63781D01*
X80360Y-63331D01*
X80272Y-63331D01*
X79679Y-63923D01*
X79609Y-63994D01*
X79571Y-64086D01*
X79571Y-64185D01*
X79609Y-64277D01*
X79918Y-64586D01*
X80006Y-64586D01*
X80811Y-63781D01*
X80811Y-63923D01*
X80077Y-64657D01*
X80077Y-64745D01*
X80262Y-64930D01*
X75039Y-64930D01*
X75038Y-64929D01*
X75031Y-64903D01*
X74971Y-64784D01*
X74961Y-64770D01*
X74952Y-64753D01*
X74898Y-64686D01*
X74892Y-64657D01*
X74907Y-64568D01*
X74906Y-64542D01*
X74908Y-64517D01*
X74905Y-64509D01*
X74905Y-64501D01*
X74895Y-64479D01*
X74886Y-64454D01*
X74881Y-64448D01*
X74878Y-64441D01*
X74861Y-64425D01*
X74843Y-64404D01*
X74835Y-64400D01*
X74829Y-64396D01*
X74809Y-64388D01*
X74783Y-64375D01*
X74354Y-64261D01*
X74782Y-62869D01*
X74784Y-62845D01*
X75629Y-63692D01*
X76970Y-64249D01*
X78422Y-64250D01*
X79764Y-63696D01*
X80792Y-62670D01*
X80881Y-62456D01*
X80920Y-62552D01*
X80985Y-62617D01*
X80431Y-63172D01*
X80431Y-63260D01*
X80881Y-63711D01*
X81686Y-62906D01*
X81686Y-62818D01*
X81391Y-62523D01*
X81419Y-62453D01*
X81420Y-62369D01*
X81503Y-62370D01*
X81602Y-62329D01*
X81641Y-62290D01*
X82364Y-62290D01*
X82350Y-62325D01*
X82349Y-62424D01*
X82350Y-62537D01*
X82412Y-62600D01*
X82725Y-62600D01*
X82725Y-62187D01*
X82703Y-62165D01*
X82750Y-62118D01*
X82881Y-62118D01*
X82936Y-62095D01*
X82949Y-62081D01*
X82963Y-62095D01*
X83018Y-62117D01*
X83078Y-62118D01*
X83235Y-62118D01*
X83290Y-62095D01*
X83332Y-62053D01*
X83341Y-62031D01*
X83372Y-62025D01*
X83434Y-61984D01*
X83710Y-61708D01*
X83847Y-61708D01*
X83902Y-61685D01*
X83945Y-61643D01*
X83949Y-61631D01*
X83954Y-61643D01*
X83993Y-61682D01*
X83945Y-61729D01*
X83900Y-61840D01*
X83899Y-61959D01*
X83945Y-62069D01*
X84029Y-62154D01*
X84140Y-62199D01*
X84180Y-62199D01*
G54D10*
G36*
X84693Y-56369D02*
X84691Y-56374D01*
X84691Y-56434D01*
X84691Y-56943D01*
X84509Y-56943D01*
X84567Y-56885D01*
X84617Y-56765D01*
X84617Y-56635D01*
X84568Y-56514D01*
X84476Y-56422D01*
X84355Y-56372D01*
X84225Y-56372D01*
X84105Y-56422D01*
X84013Y-56514D01*
X83963Y-56634D01*
X83963Y-56764D01*
X84013Y-56885D01*
X84071Y-56943D01*
X83827Y-56943D01*
X83772Y-56966D01*
X83730Y-57008D01*
X83707Y-57063D01*
X83707Y-57123D01*
X83707Y-57643D01*
X83101Y-57643D01*
X83101Y-57063D01*
X83086Y-57027D01*
X83174Y-57027D01*
X83294Y-56977D01*
X83386Y-56885D01*
X83436Y-56765D01*
X83436Y-56635D01*
X83386Y-56514D01*
X83295Y-56422D01*
X83174Y-56372D01*
X83044Y-56372D01*
X82924Y-56422D01*
X82832Y-56514D01*
X82782Y-56634D01*
X82782Y-56764D01*
X82831Y-56885D01*
X82890Y-56943D01*
X82708Y-56943D01*
X82708Y-56375D01*
X82706Y-56369D01*
X84693Y-56369D01*
X84693Y-56369D01*
G37*
G54D27*
X84693Y-56369D02*
X84691Y-56374D01*
X84691Y-56434D01*
X84691Y-56943D01*
X84509Y-56943D01*
X84567Y-56885D01*
X84617Y-56765D01*
X84617Y-56635D01*
X84568Y-56514D01*
X84476Y-56422D01*
X84355Y-56372D01*
X84225Y-56372D01*
X84105Y-56422D01*
X84013Y-56514D01*
X83963Y-56634D01*
X83963Y-56764D01*
X84013Y-56885D01*
X84071Y-56943D01*
X83827Y-56943D01*
X83772Y-56966D01*
X83730Y-57008D01*
X83707Y-57063D01*
X83707Y-57123D01*
X83707Y-57643D01*
X83101Y-57643D01*
X83101Y-57063D01*
X83086Y-57027D01*
X83174Y-57027D01*
X83294Y-56977D01*
X83386Y-56885D01*
X83436Y-56765D01*
X83436Y-56635D01*
X83386Y-56514D01*
X83295Y-56422D01*
X83174Y-56372D01*
X83044Y-56372D01*
X82924Y-56422D01*
X82832Y-56514D01*
X82782Y-56634D01*
X82782Y-56764D01*
X82831Y-56885D01*
X82890Y-56943D01*
X82708Y-56943D01*
X82708Y-56375D01*
X82706Y-56369D01*
X84693Y-56369D01*
G54D10*
G36*
X84882Y-62700D02*
X84875Y-62700D01*
X84875Y-62707D01*
X84775Y-62707D01*
X84775Y-62700D01*
X84767Y-62700D01*
X84767Y-62600D01*
X84775Y-62600D01*
X84775Y-62592D01*
X84875Y-62592D01*
X84875Y-62600D01*
X84882Y-62600D01*
X84882Y-62700D01*
X84882Y-62700D01*
G37*
G54D27*
X84882Y-62700D02*
X84875Y-62700D01*
X84875Y-62707D01*
X84775Y-62707D01*
X84775Y-62700D01*
X84767Y-62700D01*
X84767Y-62600D01*
X84775Y-62600D01*
X84775Y-62592D01*
X84875Y-62592D01*
X84875Y-62600D01*
X84882Y-62600D01*
X84882Y-62700D01*
G54D10*
G36*
X85180Y-58550D02*
X85162Y-58550D01*
X85162Y-58557D01*
X85083Y-58557D01*
X85083Y-58550D01*
X85065Y-58550D01*
X85065Y-58450D01*
X85083Y-58450D01*
X85083Y-58442D01*
X85162Y-58442D01*
X85162Y-58450D01*
X85180Y-58450D01*
X85180Y-58550D01*
X85180Y-58550D01*
G37*
G54D27*
X85180Y-58550D02*
X85162Y-58550D01*
X85162Y-58557D01*
X85083Y-58557D01*
X85083Y-58550D01*
X85065Y-58550D01*
X85065Y-58450D01*
X85083Y-58450D01*
X85083Y-58442D01*
X85162Y-58442D01*
X85162Y-58450D01*
X85180Y-58450D01*
X85180Y-58550D01*
G54D10*
G36*
X85740Y-59582D02*
X85647Y-59620D01*
X85571Y-59696D01*
X85530Y-59796D01*
X85529Y-59851D01*
X85015Y-60365D01*
X85015Y-60365D01*
X84931Y-60449D01*
X84733Y-60449D01*
X84661Y-60464D01*
X84599Y-60505D01*
X84495Y-60610D01*
X84271Y-60610D01*
X84278Y-60603D01*
X84319Y-60503D01*
X84320Y-60396D01*
X84279Y-60297D01*
X84203Y-60221D01*
X84103Y-60180D01*
X84048Y-60179D01*
X83719Y-59851D01*
X83720Y-59796D01*
X83679Y-59697D01*
X83603Y-59621D01*
X83503Y-59580D01*
X83396Y-59579D01*
X83297Y-59620D01*
X83221Y-59696D01*
X83180Y-59796D01*
X83179Y-59903D01*
X83220Y-60002D01*
X83296Y-60078D01*
X83396Y-60119D01*
X83451Y-60120D01*
X83780Y-60448D01*
X83779Y-60503D01*
X83820Y-60602D01*
X83828Y-60610D01*
X83478Y-60610D01*
X83057Y-60188D01*
X82995Y-60147D01*
X82923Y-60133D01*
X82418Y-60133D01*
X82403Y-60117D01*
X82361Y-60099D01*
X82402Y-60082D01*
X82445Y-60040D01*
X82467Y-59985D01*
X82468Y-59925D01*
X82468Y-59805D01*
X82530Y-59742D01*
X82568Y-59651D01*
X82568Y-59624D01*
X82516Y-59573D01*
X82529Y-59573D01*
X82551Y-59582D01*
X82611Y-59582D01*
X82847Y-59582D01*
X82902Y-59559D01*
X82945Y-59517D01*
X82949Y-59505D01*
X82954Y-59517D01*
X82996Y-59559D01*
X83051Y-59582D01*
X83111Y-59582D01*
X83347Y-59582D01*
X83402Y-59559D01*
X83445Y-59517D01*
X83449Y-59505D01*
X83454Y-59517D01*
X83496Y-59559D01*
X83551Y-59582D01*
X83611Y-59582D01*
X83847Y-59582D01*
X83902Y-59559D01*
X83945Y-59517D01*
X83949Y-59505D01*
X83954Y-59517D01*
X83996Y-59559D01*
X84051Y-59582D01*
X84111Y-59582D01*
X84347Y-59582D01*
X84402Y-59559D01*
X84445Y-59517D01*
X84449Y-59505D01*
X84454Y-59517D01*
X84496Y-59559D01*
X84551Y-59582D01*
X84611Y-59582D01*
X84847Y-59582D01*
X84869Y-59573D01*
X84870Y-59574D01*
X84940Y-59644D01*
X85032Y-59682D01*
X85087Y-59682D01*
X85150Y-59619D01*
X85150Y-59187D01*
X85142Y-59187D01*
X85142Y-59087D01*
X85150Y-59087D01*
X85150Y-59079D01*
X85250Y-59079D01*
X85250Y-59087D01*
X85257Y-59087D01*
X85257Y-59187D01*
X85250Y-59187D01*
X85250Y-59619D01*
X85312Y-59682D01*
X85367Y-59682D01*
X85459Y-59644D01*
X85529Y-59574D01*
X85530Y-59573D01*
X85551Y-59582D01*
X85611Y-59582D01*
X85740Y-59582D01*
X85740Y-59582D01*
G37*
G54D27*
X85740Y-59582D02*
X85647Y-59620D01*
X85571Y-59696D01*
X85530Y-59796D01*
X85529Y-59851D01*
X85015Y-60365D01*
X85015Y-60365D01*
X84931Y-60449D01*
X84733Y-60449D01*
X84661Y-60464D01*
X84599Y-60505D01*
X84495Y-60610D01*
X84271Y-60610D01*
X84278Y-60603D01*
X84319Y-60503D01*
X84320Y-60396D01*
X84279Y-60297D01*
X84203Y-60221D01*
X84103Y-60180D01*
X84048Y-60179D01*
X83719Y-59851D01*
X83720Y-59796D01*
X83679Y-59697D01*
X83603Y-59621D01*
X83503Y-59580D01*
X83396Y-59579D01*
X83297Y-59620D01*
X83221Y-59696D01*
X83180Y-59796D01*
X83179Y-59903D01*
X83220Y-60002D01*
X83296Y-60078D01*
X83396Y-60119D01*
X83451Y-60120D01*
X83780Y-60448D01*
X83779Y-60503D01*
X83820Y-60602D01*
X83828Y-60610D01*
X83478Y-60610D01*
X83057Y-60188D01*
X82995Y-60147D01*
X82923Y-60133D01*
X82418Y-60133D01*
X82403Y-60117D01*
X82361Y-60099D01*
X82402Y-60082D01*
X82445Y-60040D01*
X82467Y-59985D01*
X82468Y-59925D01*
X82468Y-59805D01*
X82530Y-59742D01*
X82568Y-59651D01*
X82568Y-59624D01*
X82516Y-59573D01*
X82529Y-59573D01*
X82551Y-59582D01*
X82611Y-59582D01*
X82847Y-59582D01*
X82902Y-59559D01*
X82945Y-59517D01*
X82949Y-59505D01*
X82954Y-59517D01*
X82996Y-59559D01*
X83051Y-59582D01*
X83111Y-59582D01*
X83347Y-59582D01*
X83402Y-59559D01*
X83445Y-59517D01*
X83449Y-59505D01*
X83454Y-59517D01*
X83496Y-59559D01*
X83551Y-59582D01*
X83611Y-59582D01*
X83847Y-59582D01*
X83902Y-59559D01*
X83945Y-59517D01*
X83949Y-59505D01*
X83954Y-59517D01*
X83996Y-59559D01*
X84051Y-59582D01*
X84111Y-59582D01*
X84347Y-59582D01*
X84402Y-59559D01*
X84445Y-59517D01*
X84449Y-59505D01*
X84454Y-59517D01*
X84496Y-59559D01*
X84551Y-59582D01*
X84611Y-59582D01*
X84847Y-59582D01*
X84869Y-59573D01*
X84870Y-59574D01*
X84940Y-59644D01*
X85032Y-59682D01*
X85087Y-59682D01*
X85150Y-59619D01*
X85150Y-59187D01*
X85142Y-59187D01*
X85142Y-59087D01*
X85150Y-59087D01*
X85150Y-59079D01*
X85250Y-59079D01*
X85250Y-59087D01*
X85257Y-59087D01*
X85257Y-59187D01*
X85250Y-59187D01*
X85250Y-59619D01*
X85312Y-59682D01*
X85367Y-59682D01*
X85459Y-59644D01*
X85529Y-59574D01*
X85530Y-59573D01*
X85551Y-59582D01*
X85611Y-59582D01*
X85740Y-59582D01*
G54D10*
G36*
X85900Y-62668D02*
X85896Y-62686D01*
X85890Y-62717D01*
X85890Y-62718D01*
X85890Y-62720D01*
X85890Y-62860D01*
X85788Y-63064D01*
X85786Y-63069D01*
X85783Y-63075D01*
X85777Y-63101D01*
X85770Y-63127D01*
X85771Y-63133D01*
X85770Y-63140D01*
X85770Y-63280D01*
X85774Y-63303D01*
X85777Y-63327D01*
X85781Y-63335D01*
X85783Y-63344D01*
X85796Y-63364D01*
X85798Y-63369D01*
X85703Y-63330D01*
X85596Y-63329D01*
X85497Y-63370D01*
X85421Y-63446D01*
X85380Y-63546D01*
X85379Y-63601D01*
X85265Y-63715D01*
X85224Y-63777D01*
X85218Y-63808D01*
X85197Y-63817D01*
X85154Y-63859D01*
X85132Y-63914D01*
X85131Y-63974D01*
X85131Y-64131D01*
X85154Y-64186D01*
X85168Y-64199D01*
X85154Y-64213D01*
X85132Y-64268D01*
X85131Y-64328D01*
X85131Y-64449D01*
X85121Y-64460D01*
X85100Y-64460D01*
X85100Y-64370D01*
X85077Y-64315D01*
X85035Y-64272D01*
X84979Y-64250D01*
X84920Y-64249D01*
X84202Y-64249D01*
X84252Y-64229D01*
X84328Y-64153D01*
X84369Y-64053D01*
X84370Y-63946D01*
X84330Y-63850D01*
X84979Y-63850D01*
X85034Y-63827D01*
X85077Y-63785D01*
X85099Y-63729D01*
X85100Y-63670D01*
X85100Y-63170D01*
X85094Y-63156D01*
X85141Y-63137D01*
X85211Y-63066D01*
X85249Y-62974D01*
X85250Y-62907D01*
X85277Y-62925D01*
X85350Y-62940D01*
X85550Y-62940D01*
X85622Y-62925D01*
X85684Y-62884D01*
X85900Y-62668D01*
X85900Y-62668D01*
G37*
G54D27*
X85900Y-62668D02*
X85896Y-62686D01*
X85890Y-62717D01*
X85890Y-62718D01*
X85890Y-62720D01*
X85890Y-62860D01*
X85788Y-63064D01*
X85786Y-63069D01*
X85783Y-63075D01*
X85777Y-63101D01*
X85770Y-63127D01*
X85771Y-63133D01*
X85770Y-63140D01*
X85770Y-63280D01*
X85774Y-63303D01*
X85777Y-63327D01*
X85781Y-63335D01*
X85783Y-63344D01*
X85796Y-63364D01*
X85798Y-63369D01*
X85703Y-63330D01*
X85596Y-63329D01*
X85497Y-63370D01*
X85421Y-63446D01*
X85380Y-63546D01*
X85379Y-63601D01*
X85265Y-63715D01*
X85224Y-63777D01*
X85218Y-63808D01*
X85197Y-63817D01*
X85154Y-63859D01*
X85132Y-63914D01*
X85131Y-63974D01*
X85131Y-64131D01*
X85154Y-64186D01*
X85168Y-64199D01*
X85154Y-64213D01*
X85132Y-64268D01*
X85131Y-64328D01*
X85131Y-64449D01*
X85121Y-64460D01*
X85100Y-64460D01*
X85100Y-64370D01*
X85077Y-64315D01*
X85035Y-64272D01*
X84979Y-64250D01*
X84920Y-64249D01*
X84202Y-64249D01*
X84252Y-64229D01*
X84328Y-64153D01*
X84369Y-64053D01*
X84370Y-63946D01*
X84330Y-63850D01*
X84979Y-63850D01*
X85034Y-63827D01*
X85077Y-63785D01*
X85099Y-63729D01*
X85100Y-63670D01*
X85100Y-63170D01*
X85094Y-63156D01*
X85141Y-63137D01*
X85211Y-63066D01*
X85249Y-62974D01*
X85250Y-62907D01*
X85277Y-62925D01*
X85350Y-62940D01*
X85550Y-62940D01*
X85622Y-62925D01*
X85684Y-62884D01*
X85900Y-62668D01*
G54D10*
G36*
X86457Y-60150D02*
X86450Y-60150D01*
X86450Y-60157D01*
X86350Y-60157D01*
X86350Y-60150D01*
X85987Y-60150D01*
X85925Y-60212D01*
X85924Y-60274D01*
X85962Y-60366D01*
X86010Y-60413D01*
X85994Y-60452D01*
X85994Y-60511D01*
X85994Y-60610D01*
X85308Y-60610D01*
X85798Y-60119D01*
X85853Y-60120D01*
X85952Y-60079D01*
X85984Y-60047D01*
X85987Y-60050D01*
X86350Y-60050D01*
X86350Y-60042D01*
X86450Y-60042D01*
X86450Y-60050D01*
X86457Y-60050D01*
X86457Y-60150D01*
X86457Y-60150D01*
G37*
G54D27*
X86457Y-60150D02*
X86450Y-60150D01*
X86450Y-60157D01*
X86350Y-60157D01*
X86350Y-60150D01*
X85987Y-60150D01*
X85925Y-60212D01*
X85924Y-60274D01*
X85962Y-60366D01*
X86010Y-60413D01*
X85994Y-60452D01*
X85994Y-60511D01*
X85994Y-60610D01*
X85308Y-60610D01*
X85798Y-60119D01*
X85853Y-60120D01*
X85952Y-60079D01*
X85984Y-60047D01*
X85987Y-60050D01*
X86350Y-60050D01*
X86350Y-60042D01*
X86450Y-60042D01*
X86450Y-60050D01*
X86457Y-60050D01*
X86457Y-60150D01*
G54D10*
G36*
X86935Y-60821D02*
X86846Y-60910D01*
X86817Y-60910D01*
X86867Y-60859D01*
X86905Y-60767D01*
X86905Y-60668D01*
X86905Y-60712D01*
X86843Y-60650D01*
X86616Y-60650D01*
X86616Y-60657D01*
X86537Y-60657D01*
X86537Y-60650D01*
X86519Y-60650D01*
X86519Y-60550D01*
X86537Y-60550D01*
X86537Y-60542D01*
X86616Y-60542D01*
X86616Y-60550D01*
X86843Y-60550D01*
X86905Y-60487D01*
X86905Y-60531D01*
X86905Y-60432D01*
X86867Y-60340D01*
X86853Y-60326D01*
X86875Y-60274D01*
X86875Y-60212D01*
X86812Y-60150D01*
X86875Y-60150D01*
X86875Y-60143D01*
X86935Y-60203D01*
X86935Y-60821D01*
X86935Y-60821D01*
G37*
G54D27*
X86935Y-60821D02*
X86846Y-60910D01*
X86817Y-60910D01*
X86867Y-60859D01*
X86905Y-60767D01*
X86905Y-60668D01*
X86905Y-60712D01*
X86843Y-60650D01*
X86616Y-60650D01*
X86616Y-60657D01*
X86537Y-60657D01*
X86537Y-60650D01*
X86519Y-60650D01*
X86519Y-60550D01*
X86537Y-60550D01*
X86537Y-60542D01*
X86616Y-60542D01*
X86616Y-60550D01*
X86843Y-60550D01*
X86905Y-60487D01*
X86905Y-60531D01*
X86905Y-60432D01*
X86867Y-60340D01*
X86853Y-60326D01*
X86875Y-60274D01*
X86875Y-60212D01*
X86812Y-60150D01*
X86875Y-60150D01*
X86875Y-60143D01*
X86935Y-60203D01*
X86935Y-60821D01*
G54D10*
G36*
X87810Y-60835D02*
X87782Y-60935D01*
X87671Y-61138D01*
X87667Y-61148D01*
X87662Y-61156D01*
X87622Y-61256D01*
X87616Y-61288D01*
X87610Y-61320D01*
X87610Y-61466D01*
X87598Y-61536D01*
X87551Y-61606D01*
X87429Y-61711D01*
X87413Y-61731D01*
X87396Y-61750D01*
X87296Y-61909D01*
X87199Y-62055D01*
X87077Y-62131D01*
X86942Y-62199D01*
X86783Y-62234D01*
X86768Y-62240D01*
X86753Y-62244D01*
X86622Y-62300D01*
X86516Y-62330D01*
X86420Y-62330D01*
X86409Y-62332D01*
X86399Y-62331D01*
X86239Y-62351D01*
X86216Y-62359D01*
X86198Y-62362D01*
X86225Y-62322D01*
X86240Y-62250D01*
X86240Y-61691D01*
X86278Y-61653D01*
X86310Y-61577D01*
X86320Y-61602D01*
X86396Y-61678D01*
X86496Y-61719D01*
X86603Y-61720D01*
X86702Y-61679D01*
X86778Y-61603D01*
X86819Y-61503D01*
X86820Y-61396D01*
X86781Y-61303D01*
X86782Y-61303D01*
X86788Y-61290D01*
X86925Y-61290D01*
X86997Y-61275D01*
X87059Y-61234D01*
X87259Y-61034D01*
X87259Y-61034D01*
X87259Y-61034D01*
X87300Y-60972D01*
X87315Y-60900D01*
X87315Y-60125D01*
X87314Y-60124D01*
X87315Y-60124D01*
X87309Y-60096D01*
X87332Y-60111D01*
X87448Y-60228D01*
X87510Y-60321D01*
X87564Y-60446D01*
X87578Y-60467D01*
X87591Y-60490D01*
X87710Y-60629D01*
X87792Y-60728D01*
X87810Y-60772D01*
X87810Y-60835D01*
X87810Y-60835D01*
G37*
G54D27*
X87810Y-60835D02*
X87782Y-60935D01*
X87671Y-61138D01*
X87667Y-61148D01*
X87662Y-61156D01*
X87622Y-61256D01*
X87616Y-61288D01*
X87610Y-61320D01*
X87610Y-61466D01*
X87598Y-61536D01*
X87551Y-61606D01*
X87429Y-61711D01*
X87413Y-61731D01*
X87396Y-61750D01*
X87296Y-61909D01*
X87199Y-62055D01*
X87077Y-62131D01*
X86942Y-62199D01*
X86783Y-62234D01*
X86768Y-62240D01*
X86753Y-62244D01*
X86622Y-62300D01*
X86516Y-62330D01*
X86420Y-62330D01*
X86409Y-62332D01*
X86399Y-62331D01*
X86239Y-62351D01*
X86216Y-62359D01*
X86198Y-62362D01*
X86225Y-62322D01*
X86240Y-62250D01*
X86240Y-61691D01*
X86278Y-61653D01*
X86310Y-61577D01*
X86320Y-61602D01*
X86396Y-61678D01*
X86496Y-61719D01*
X86603Y-61720D01*
X86702Y-61679D01*
X86778Y-61603D01*
X86819Y-61503D01*
X86820Y-61396D01*
X86781Y-61303D01*
X86782Y-61303D01*
X86788Y-61290D01*
X86925Y-61290D01*
X86997Y-61275D01*
X87059Y-61234D01*
X87259Y-61034D01*
X87259Y-61034D01*
X87259Y-61034D01*
X87300Y-60972D01*
X87315Y-60900D01*
X87315Y-60125D01*
X87314Y-60124D01*
X87315Y-60124D01*
X87309Y-60096D01*
X87332Y-60111D01*
X87448Y-60228D01*
X87510Y-60321D01*
X87564Y-60446D01*
X87578Y-60467D01*
X87591Y-60490D01*
X87710Y-60629D01*
X87792Y-60728D01*
X87810Y-60772D01*
X87810Y-60835D01*
M02*
